<?xml version="1.0" encoding="UTF-8" standalone="no"?>
<!-- Created with Inkscape (http://www.inkscape.org/) -->

<svg
   width="210mm"
   height="297mm"
   viewBox="0 0 210 297"
   version="1.1"
   id="svg1541"
   inkscape:version="1.1 (c68e22c387, 2021-05-23)"
   sodipodi:docname="cangrejo.svg"
   xmlns:inkscape="http://www.inkscape.org/namespaces/inkscape"
   xmlns:sodipodi="http://sodipodi.sourceforge.net/DTD/sodipodi-0.dtd"
   xmlns="http://www.w3.org/2000/svg"
   xmlns:svg="http://www.w3.org/2000/svg">
  <sodipodi:namedview
     id="namedview1543"
     pagecolor="#ffffff"
     bordercolor="#666666"
     borderopacity="1.0"
     inkscape:pageshadow="2"
     inkscape:pageopacity="0.0"
     inkscape:pagecheckerboard="0"
     inkscape:document-units="mm"
     showgrid="false"
     inkscape:snap-global="true"
     inkscape:zoom="0.47215208"
     inkscape:cx="408.7666"
     inkscape:cy="671.39385"
     inkscape:window-width="857"
     inkscape:window-height="706"
     inkscape:window-x="500"
     inkscape:window-y="0"
     inkscape:window-maximized="0"
     inkscape:current-layer="layer1" />
  <defs
     id="defs1538">
    <linearGradient
       id="SVGID_1_"
       gradientUnits="userSpaceOnUse"
       x1="2872.72"
       y1="2282.0813"
       x2="2908.9905"
       y2="2282.0813"
       gradientTransform="matrix(0.9894,0.1454,-0.1454,0.9894,232.1179,211.1829)">
      <stop
         offset="0.0054"
         style="stop-color:#50252F"
         id="stop570" />
      <stop
         offset="1"
         style="stop-color:#221F1F"
         id="stop572" />
    </linearGradient>
    <linearGradient
       id="SVGID_2_"
       gradientUnits="userSpaceOnUse"
       x1="2669.3625"
       y1="1851.0854"
       x2="2693.5337"
       y2="1851.0854"
       gradientTransform="matrix(0.9954,-0.0955,0.0955,0.9954,-92.0215,1303.5636)">
      <stop
         offset="0.0054"
         style="stop-color:#50252F"
         id="stop577" />
      <stop
         offset="1"
         style="stop-color:#221F1F"
         id="stop579" />
    </linearGradient>
    <linearGradient
       id="SVGID_3_"
       gradientUnits="userSpaceOnUse"
       x1="3027.0596"
       y1="2273.5781"
       x2="3063.3301"
       y2="2273.5781"
       gradientTransform="matrix(0.9894,0.1454,-0.1454,0.9894,232.1179,211.1829)">
      <stop
         offset="0.0054"
         style="stop-color:#50252F"
         id="stop586" />
      <stop
         offset="1"
         style="stop-color:#221F1F"
         id="stop588" />
    </linearGradient>
    <linearGradient
       id="SVGID_4_"
       gradientUnits="userSpaceOnUse"
       x1="2821.262"
       y1="1879.7517"
       x2="2845.4331"
       y2="1879.7517"
       gradientTransform="matrix(0.9954,-0.0955,0.0955,0.9954,-92.0215,1303.5636)">
      <stop
         offset="0.0054"
         style="stop-color:#50252F"
         id="stop593" />
      <stop
         offset="1"
         style="stop-color:#221F1F"
         id="stop595" />
    </linearGradient>
  </defs>
  <g
     inkscape:label="Capa 1"
     inkscape:groupmode="layer"
     id="layer1">
    <g
       id="g456"
       transform="matrix(0.16151728,0,0,0.16151728,-488.2551,68.925879)">
      <g
         id="g346">
        <g
           id="g340">
          <path
             fill="#951a33"
             d="m 4007.438,345.083 c 11.528,9.984 24.742,23.958 36.77,42.498 -12.856,11.3 -27.322,20.56 -43.33,25.77 -74.224,24.158 -26.74,-40.932 -26.74,-40.932 0,0 15.566,-8.532 33.3,-27.336 z"
             id="path332" />
          <path
             fill="#be2648"
             d="m 4007.438,345.083 c 16.544,-17.542 34.974,-44.01 44.474,-81.148 0,0 20.778,11.28 64.42,14.316 0,0 -25.372,68.236 -72.124,109.33 -12.028,-18.542 -25.242,-32.514 -36.77,-42.498 z"
             id="path334" />
          <path
             fill="#d7384c"
             d="m 3997.281,163.003 c 40.084,75.216 125.938,85.974 203.07,52.406 62.268,-27.098 76.938,-108.232 80.188,-153.722 6.67,18.44 10.262,40.272 9.366,64.46 -3.578,96.628 -100.996,165.28 -173.574,152.1 -43.642,-3.036 -64.42,-14.316 -64.42,-14.316 0,0 -45.007,-42.94 -54.63,-100.928 z"
             id="path336" />
          <path
             fill="#ef4e59"
             d="m 4200.352,215.411 c -77.132,33.566 -162.988,22.81 -203.07,-52.406 -2.494,-15.03 -2.736,-31.016 0.948,-47.592 17.894,-80.524 84.104,-57.262 98.418,-8.948 14.316,48.314 1.79,80.524 25.052,75.156 23.262,-5.368 3.578,-121.682 53.682,-166.416 37.562,-33.538 85.18,-8.742 105.158,46.484 -3.25,45.49 -17.92,126.624 -80.188,153.722 z"
             id="path338" />
        </g>
        <path
           opacity="0.3"
           fill="#fffdef"
           enable-background="new    "
           d="m 4202.34,51.629 c -31.048,-9.218 -61.306,134.708 -51.496,141.738 9.807,7.028 103.81,-126.208 51.496,-141.738 z"
           id="path342" />
        <path
           opacity="0.3"
           fill="#fffdef"
           enable-background="new    "
           d="m 4051.612,113.359 c 13.054,-7.228 38.678,85.402 23.588,87.036 -15.088,1.636 -43.206,-76.174 -23.588,-87.036 z"
           id="path344" />
      </g>
      <g
         id="g360">
        <path
           fill="#951a33"
           d="m 3975.86,630.339 -8.31,-56.382 c 0,0 55.116,8.764 103.338,48.152 -5.058,11.982 -13.364,28.24 -26.696,46.798 -27.694,-34.15 -68.332,-38.568 -68.332,-38.568 z"
           id="path348" />
        <path
           fill="#be2648"
           d="m 4101.755,653.659 c 51.414,66.582 63.788,175.092 26.09,177.03 -37.698,1.938 -44.65,-82.048 -69.192,-138.12 -4.03,-9.208 -9.022,-16.954 -14.464,-23.662 13.334,-18.558 21.64,-34.814 26.696,-46.798 10.879,8.884 21.411,19.298 30.87,31.55 z"
           id="path350" />
        <path
           fill="#951a33"
           d="m 3902.442,685.895 54.074,-25.068 c 0,0 23.34,14.914 47.5,53.676 -11.51,10.9 -24.698,21.988 -39.934,32.998 -28.009,-41.144 -61.64,-61.606 -61.64,-61.606 z"
           id="path352" />
        <path
           fill="#be2648"
           d="m 4029.884,767.351 c 29.704,78.824 10.254,135.954 -14.588,130.572 -24.842,-5.382 -15.448,-91.778 -44.464,-139.956 -2.194,-3.642 -4.458,-7.1 -6.75,-10.466 15.234,-11.01 28.424,-22.098 39.934,-32.998 8.884,14.258 17.878,31.648 25.868,52.848 z"
           id="path354" />
        <path
           fill="#be2648"
           d="m 3927.073,853.043 c 1.53,73.934 -22.45,83.048 -46.704,65.746 -18.138,-12.94 -2.898,-69.404 -11.958,-117.6 14.076,-6.136 27.318,-12.468 39.596,-18.98 9.985,17.938 18.461,41.54 19.066,70.834 z"
           id="path356" />
        <path
           fill="#951a33"
           d="m 3874.038,740.817 c 0,0 18.752,14.056 33.968,41.392 -12.276,6.51 -25.52,12.844 -39.596,18.98 -3.056,-16.256 -8.862,-31.576 -19.666,-43.962 -42.832,-49.116 25.294,-16.41 25.294,-16.41 z"
           id="path358" />
      </g>
      <g
         id="g374">
        <path
           fill="#951a33"
           d="m 3339.293,662.745 v -56.992 c 0,0 -53.25,16.706 -95.212,62.704 6.75,11.118 17.338,25.99 33.234,42.404 22.419,-37.82 61.978,-48.116 61.978,-48.116 z"
           id="path362" />
        <path
           fill="#be2648"
           d="m 3218.142,704.173 c -41.158,73.366 -37.578,182.522 0,178.942 37.578,-3.578 32.21,-87.682 48.314,-146.732 2.644,-9.698 6.454,-18.088 10.86,-25.518 -15.896,-16.416 -26.484,-31.288 -33.234,-42.404 -9.464,10.372 -18.366,22.21 -25.94,35.712 z"
           id="path364" />
        <path
           fill="#951a33"
           d="m 3420.028,707.003 -57.15,-16.916 c 0,0 -20.916,18.158 -39.166,60.026 12.976,9.104 27.64,18.152 44.318,26.824 21.708,-44.786 51.998,-69.934 51.998,-69.934 z"
           id="path366" />
        <path
           fill="#be2648"
           d="m 3305.823,806.169 c -17.894,82.314 9.678,135.996 33.47,127.05 23.792,-8.948 1.902,-93.05 23.584,-144.944 1.64,-3.924 3.376,-7.674 5.152,-11.338 -16.678,-8.672 -31.342,-17.718 -44.318,-26.824 -6.713,15.404 -13.076,33.918 -17.888,56.056 z"
           id="path368" />
        <path
           fill="#be2648"
           d="m 3420.028,875.957 c 9.266,73.366 34.318,78.888 55.792,58.234 16.058,-15.446 -7.252,-69.084 -5.316,-118.088 -14.82,-4.018 -28.844,-8.352 -41.94,-13.004 -7.262,19.202 -12.209,43.788 -8.536,72.858 z"
           id="path370" />
        <path
           fill="#951a33"
           d="m 3456.135,757.197 c 0,0 -16.502,16.64 -27.572,45.902 13.096,4.652 27.12,8.986 41.94,13.004 0.654,-16.528 4.164,-32.53 13.046,-46.36 35.215,-54.834 -27.414,-12.546 -27.414,-12.546 z"
           id="path372" />
      </g>
      <g
         id="g388">
        <path
           fill="#951a33"
           d="m 3322.118,371.061 c -11.528,9.984 -24.742,23.958 -36.77,42.498 12.856,11.3 27.322,20.56 43.33,25.77 74.224,24.158 26.74,-40.932 26.74,-40.932 0,0 -15.566,-8.532 -33.3,-27.336 z"
           id="path376" />
        <path
           fill="#be2648"
           d="m 3322.118,371.061 c -16.544,-17.542 -34.974,-44.012 -44.474,-81.148 0,0 -20.778,11.28 -64.42,14.316 0,0 25.372,68.236 72.124,109.33 12.026,-18.54 25.242,-32.512 36.77,-42.498 z"
           id="path378" />
        <path
           fill="#d7384c"
           d="m 3332.274,188.983 c -40.084,75.216 -125.938,85.974 -203.07,52.406 -62.268,-27.098 -76.94,-108.23 -80.188,-153.72 -6.67,18.44 -10.262,40.272 -9.366,64.46 3.578,96.628 100.996,165.28 173.574,152.1 43.642,-3.036 64.42,-14.316 64.42,-14.316 0,0 45.008,-42.944 54.63,-100.93 z"
           id="path380" />
        <path
           fill="#ef4e59"
           d="m 3129.202,241.389 c 77.132,33.566 162.988,22.81 203.07,-52.406 2.494,-15.03 2.736,-31.016 -0.948,-47.592 -17.894,-80.524 -84.104,-57.262 -98.418,-8.948 -14.316,48.314 -1.79,80.524 -25.052,75.156 -23.262,-5.368 -3.578,-121.682 -53.682,-166.416 -37.562,-33.536 -85.178,-8.742 -105.156,46.486 3.248,45.49 17.92,126.622 80.186,153.72 z"
           id="path382" />
        <path
           opacity="0.3"
           fill="#fffdef"
           enable-background="new    "
           d="m 3116.942,55.021 c 31.048,-9.218 61.306,134.708 51.496,141.738 -9.81,7.03 -103.811,-126.206 -51.496,-141.738 z"
           id="path384" />
        <path
           opacity="0.3"
           fill="#fffdef"
           enable-background="new    "
           d="m 3267.67,116.753 c -13.054,-7.228 -38.678,85.402 -23.59,87.036 15.09,1.634 43.208,-76.174 23.59,-87.036 z"
           id="path386" />
      </g>
      <g
         id="g412">
        <path
           fill="#f16d80"
           d="m 3698.384,590.231 c 43.694,-3.942 83.586,-18.092 116.386,-39.514 -36.426,-8.082 -77.676,-10.94 -124.22,-5.804 -47.816,5.276 -89.344,18.342 -125.302,36.132 39.286,10.66 84.824,13.544 133.136,9.186 z"
           id="path390" />
        <path
           fill="#f05e75"
           d="m 3913.644,590.231 c -27.934,-16.884 -60.764,-31.06 -98.874,-39.514 -32.8,21.422 -72.69,35.572 -116.386,39.514 -48.314,4.358 -93.852,1.474 -133.136,-9.186 -46.526,23.02 -83.72,53.954 -113.084,86.216 142.107,91.432 348.664,25.742 461.48,-77.03 z"
           id="path392" />
        <path
           fill="#ef4e59"
           d="m 3902.466,374.471 c 9.562,71.612 -26.818,136.488 -87.696,176.246 38.11,8.454 70.94,22.63 98.874,39.514 42.784,-38.974 72.198,-83.218 79.318,-126.29 4.084,-24.718 5.992,-48.098 6.328,-70.01 -34.046,-42.604 -83.482,-77.862 -142.678,-101.998 23.218,22.016 41.419,49.334 45.854,82.538 z"
           id="path394" />
        <path
           fill="#ef4e59"
           d="m 3431.083,652.279 c 6.834,5.442 13.896,10.36 21.082,14.982 29.364,-32.262 66.558,-63.196 113.084,-86.216 -62.188,-16.876 -108.586,-53.388 -124.616,-112.632 -19.056,-70.424 32.14,-146.316 61.358,-182.358 -62.404,22.8 -114.982,57.696 -151.718,100.534 -21.409,81.594 -19.641,185.7 80.81,265.69 z"
           id="path396" />
        <path
           fill="#f05e75"
           d="m 3440.634,468.413 c 16.03,59.242 62.428,95.756 124.616,112.632 35.958,-17.79 77.486,-30.856 125.302,-36.132 46.544,-5.136 87.794,-2.276 124.22,5.804 60.878,-39.76 97.256,-104.636 87.696,-176.246 -4.434,-33.204 -22.636,-60.52 -45.854,-82.538 -54.674,-22.294 -117.662,-35.118 -184.85,-35.118 -61.078,0 -118.704,10.582 -169.77,29.24 -29.22,36.042 -80.416,111.934 -61.36,182.358 z"
           id="path398" />
        <path
           fill="#be2648"
           d="m 3976.04,638.615 c 9.544,9.284 18.086,18.566 25.57,27.508 30.902,-39.792 48.612,-85.698 48.612,-134.632 0,-33.836 -8.642,-66.164 -24.088,-96.084 1.461,7.706 19.688,112.61 -50.094,203.208 z"
           id="path400" />
        <path
           fill="#d7384c"
           d="m 3913.644,590.231 c 24.442,14.774 45.118,31.578 62.396,48.384 69.782,-90.598 51.556,-195.502 50.094,-203.206 -7.442,-14.416 -16.332,-28.32 -26.844,-41.476 -0.336,21.912 -2.242,45.292 -6.328,70.01 -7.118,43.07 -36.535,87.314 -79.318,126.288 z"
           id="path402" />
        <path
           fill="#be2648"
           d="m 3312.338,617.501 c 19.048,41.912 51.546,79.388 93.892,109.66 5.534,-8.598 11.692,-17.408 18.306,-26.274 -51.213,-29.808 -88.963,-62.808 -112.198,-83.386 z"
           id="path404" />
        <path
           fill="#d7384c"
           d="m 3452.166,667.261 c -7.184,-4.622 -14.248,-9.54 -21.082,-14.982 -100.452,-79.99 -102.22,-184.094 -80.81,-265.69 -36.076,42.07 -56.976,91.704 -56.976,144.904 0,30.054 6.742,58.946 19.042,86.008 23.234,20.578 60.984,53.578 112.198,83.386 8.344,-11.186 17.473,-22.472 27.628,-33.626 z"
           id="path406" />
        <path
           fill="#ef4e59"
           d="m 3452.166,667.261 c -10.152,11.156 -19.282,22.44 -27.628,33.626 89.328,51.992 219.732,94.222 386.378,43.59 81.172,-24.662 132.656,-63.706 165.124,-105.86 -17.278,-16.806 -37.954,-33.61 -62.396,-48.384 -112.816,102.77 -319.373,168.46 -461.478,77.028 z"
           id="path408" />
        <path
           fill="#d7384c"
           d="m 3976.04,638.615 c -32.468,42.154 -83.952,81.198 -165.124,105.86 -166.648,50.632 -297.05,8.4 -386.378,-43.59 -6.614,8.868 -12.772,17.678 -18.306,26.274 68.322,48.84 162.056,79.008 265.53,79.008 141.598,0 264.952,-56.474 329.85,-140.046 -7.487,-8.938 -16.029,-18.222 -25.572,-27.506 z"
           id="path410" />
      </g>
      <g
         id="g448">
        <g
           id="g418">
          <ellipse
             transform="matrix(0.9933,-0.1158,0.1158,0.9933,-35.4674,406.9692)"
             fill="#f395ba"
             cx="3484.9551"
             cy="508.74399"
             rx="94.966003"
             ry="54.471001"
             id="ellipse414" />
          <ellipse
             transform="matrix(0.9933,-0.1158,0.1158,0.9933,-34.0631,406.4809)"
             opacity="0.3"
             fill="#fffdef"
             enable-background="new    "
             cx="3481.4551"
             cy="496.414"
             rx="58.09"
             ry="26.452"
             id="ellipse416" />
        </g>
        <g
           id="g424">
          <ellipse
             transform="matrix(0.9933,-0.1158,0.1158,0.9933,-28.8638,447.8505)"
             fill="#f395ba"
             cx="3840.113"
             cy="472.349"
             rx="94.966003"
             ry="54.470001"
             id="ellipse420" />
          <ellipse
             transform="matrix(0.9933,-0.1158,0.1158,0.9933,-27.1259,447.5448)"
             opacity="0.3"
             fill="#fffdef"
             enable-background="new    "
             cx="3838.3511"
             cy="457.23901"
             rx="58.09"
             ry="26.452"
             id="ellipse422" />
        </g>
        <path
           fill="#ffffff"
           d="m 3633.734,454.447 c 0,0 37.286,9.232 60.722,-7.078 0,0 4.462,38.274 -25.538,44.922 -29.998,6.648 -35.184,-37.844 -35.184,-37.844 z"
           id="path426" />
        <g
           id="g436">
          <ellipse
             transform="matrix(0.9933,-0.1158,0.1158,0.9933,-22.2609,414.0285)"
             fill="#353535"
             cx="3552.3169"
             cy="398.60901"
             rx="26.878"
             ry="33.686001"
             id="ellipse428" />
          <g
             id="g434">
            <ellipse
               transform="matrix(0.9996,-0.0291,0.0291,0.9996,-10.4249,103.7721)"
               opacity="0.3"
               fill="#ffffff"
               enable-background="new    "
               cx="3560.675"
               cy="410.11301"
               rx="12.108"
               ry="13.066"
               id="ellipse430" />
            <ellipse
               transform="matrix(0.9996,-0.0291,0.0291,0.9996,-9.6991,103.2888)"
               opacity="0.3"
               fill="#ffffff"
               enable-background="new    "
               cx="3543.926"
               cy="384.883"
               rx="8.9720001"
               ry="9.6820002"
               id="ellipse432" />
          </g>
        </g>
        <g
           id="g446">
          <ellipse
             transform="matrix(0.9933,-0.1158,0.1158,0.9933,-18.3515,436.2567)"
             fill="#353535"
             cx="3745.584"
             cy="376.07599"
             rx="26.878"
             ry="33.686001"
             id="ellipse438" />
          <g
             id="g444">
            <ellipse
               transform="matrix(0.9996,-0.0291,0.0291,0.9996,-9.6782,109.3503)"
               opacity="0.3"
               fill="#ffffff"
               enable-background="new    "
               cx="3752.196"
               cy="387.19699"
               rx="12.108"
               ry="13.066"
               id="ellipse440" />
            <ellipse
               transform="matrix(0.9996,-0.0291,0.0291,0.9996,-8.9511,108.8523)"
               opacity="0.3"
               fill="#ffffff"
               enable-background="new    "
               cx="3735.45"
               cy="361.965"
               rx="8.9720001"
               ry="9.6820002"
               id="ellipse442" />
          </g>
        </g>
      </g>
      <g
         id="g454">
        <path
           opacity="0.3"
           fill="#fffdef"
           enable-background="new    "
           d="m 3426.382,387.013 c 16.344,19.99 51.094,-21.866 100.218,-44.79 49.124,-22.924 166.082,-8.518 172.726,-34.944 6.644,-26.426 -78.346,-41.22 -174.226,-4.888 -95.881,36.332 -110.458,70.262 -98.718,84.622 z"
           id="path450" />
        <ellipse
           transform="matrix(0.1773,-0.9842,0.9842,0.1773,2786.011,3944.3667)"
           opacity="0.3"
           fill="#fffdef"
           enable-background="new    "
           cx="3752.2161"
           cy="305.81"
           rx="17.950001"
           ry="37.195999"
           id="ellipse452" />
      </g>
    </g>
  </g>
</svg>
