<?xml version="1.0" encoding="UTF-8" standalone="no"?>
<!-- Created with Inkscape (http://www.inkscape.org/) -->

<svg
   width="210mm"
   height="297mm"
   viewBox="0 0 210 297"
   version="1.1"
   id="svg1541"
   inkscape:version="1.1 (c68e22c387, 2021-05-23)"
   sodipodi:docname="cerdito.svg"
   xmlns:inkscape="http://www.inkscape.org/namespaces/inkscape"
   xmlns:sodipodi="http://sodipodi.sourceforge.net/DTD/sodipodi-0.dtd"
   xmlns="http://www.w3.org/2000/svg"
   xmlns:svg="http://www.w3.org/2000/svg">
  <sodipodi:namedview
     id="namedview1543"
     pagecolor="#ffffff"
     bordercolor="#666666"
     borderopacity="1.0"
     inkscape:pageshadow="2"
     inkscape:pageopacity="0.0"
     inkscape:pagecheckerboard="0"
     inkscape:document-units="mm"
     showgrid="false"
     inkscape:snap-global="true"
     inkscape:zoom="0.47215208"
     inkscape:cx="408.7666"
     inkscape:cy="671.39385"
     inkscape:window-width="857"
     inkscape:window-height="706"
     inkscape:window-x="500"
     inkscape:window-y="0"
     inkscape:window-maximized="0"
     inkscape:current-layer="layer1" />
  <defs
     id="defs1538">
    <linearGradient
       id="SVGID_1_"
       gradientUnits="userSpaceOnUse"
       x1="2872.72"
       y1="2282.0813"
       x2="2908.9905"
       y2="2282.0813"
       gradientTransform="matrix(0.9894,0.1454,-0.1454,0.9894,232.1179,211.1829)">
      <stop
         offset="0.0054"
         style="stop-color:#50252F"
         id="stop570" />
      <stop
         offset="1"
         style="stop-color:#221F1F"
         id="stop572" />
    </linearGradient>
    <linearGradient
       id="SVGID_2_"
       gradientUnits="userSpaceOnUse"
       x1="2669.3625"
       y1="1851.0854"
       x2="2693.5337"
       y2="1851.0854"
       gradientTransform="matrix(0.9954,-0.0955,0.0955,0.9954,-92.0215,1303.5636)">
      <stop
         offset="0.0054"
         style="stop-color:#50252F"
         id="stop577" />
      <stop
         offset="1"
         style="stop-color:#221F1F"
         id="stop579" />
    </linearGradient>
    <linearGradient
       id="SVGID_3_"
       gradientUnits="userSpaceOnUse"
       x1="3027.0596"
       y1="2273.5781"
       x2="3063.3301"
       y2="2273.5781"
       gradientTransform="matrix(0.9894,0.1454,-0.1454,0.9894,232.1179,211.1829)">
      <stop
         offset="0.0054"
         style="stop-color:#50252F"
         id="stop586" />
      <stop
         offset="1"
         style="stop-color:#221F1F"
         id="stop588" />
    </linearGradient>
    <linearGradient
       id="SVGID_4_"
       gradientUnits="userSpaceOnUse"
       x1="2821.262"
       y1="1879.7517"
       x2="2845.4331"
       y2="1879.7517"
       gradientTransform="matrix(0.9954,-0.0955,0.0955,0.9954,-92.0215,1303.5636)">
      <stop
         offset="0.0054"
         style="stop-color:#50252F"
         id="stop593" />
      <stop
         offset="1"
         style="stop-color:#221F1F"
         id="stop595" />
    </linearGradient>
  </defs>
  <g
     inkscape:label="Capa 1"
     inkscape:groupmode="layer"
     id="layer1">
    <g
       id="g656"
       transform="matrix(0.17907003,0,0,0.17907003,-460.75494,-382.94728)">
      <g
         id="g516">
        <path
           fill="#3d2118"
           d="m 2994.294,3154.27 c -114.16,21.688 -227.852,46.014 -341.016,72.966 -13.02,3.102 -27.152,14.092 -29.178,28.008 -1.204,8.264 1.688,17.026 7.576,22.95 8.292,8.342 20.882,10.37 32.598,11.422 23.562,2.116 48.458,9.736 51.326,37.51 0.818,7.914 -0.634,16.438 3.138,23.444 8.334,15.47 31.656,11.478 45.904,10.828 21.878,-0.998 43.98,-2.608 65.63,1.7 19.526,3.884 34.754,16.196 51.104,26.646 19.874,12.704 38.646,17.526 62.328,15.136 34.448,-3.478 67.75,-14.054 102.282,-18.082 36.014,-4.202 72.41,-4.992 108.588,-2.668 94.976,6.104 193.348,30.322 284.716,-9.172 37.592,-16.25 70.222,-42.924 108.492,-57.532 38.404,-14.658 80.118,-16.36 120.054,-24.558 16.376,-3.362 32.734,-7.91 47.202,-16.288 22.482,-13.022 43.94,-40.282 32.756,-67.388 -4.38,-10.614 -13.55,-18.746 -23.884,-23.752 -22.438,-10.874 -52.946,1.71 -62.876,-25.674 -5.85,-16.13 -5.032,-41.974 -27.424,-44.06 -204.354,-19.03 -405.7,7.122 -606.004,33.25"
           id="path514" />
      </g>
      <g
         opacity="0.3"
         id="g520">
        <path
           fill="#3d2118"
           d="m 3034.91,3151.27 c -88.878,16.884 -177.39,35.824 -265.49,56.806 -10.136,2.414 -21.138,10.97 -22.718,21.804 -0.938,6.434 1.314,13.256 5.898,17.868 6.456,6.496 16.256,8.074 25.378,8.892 18.344,1.648 37.726,7.58 39.958,29.204 0.636,6.16 -0.494,12.796 2.444,18.25 6.488,12.044 24.646,8.936 35.736,8.43 17.034,-0.778 34.24,-2.03 51.096,1.322 15.202,3.024 27.058,12.608 39.786,20.746 15.474,9.89 30.088,13.644 48.524,11.784 26.82,-2.708 52.746,-10.942 79.63,-14.078 28.038,-3.272 56.374,-3.886 84.538,-2.076 73.942,4.752 150.528,23.606 221.66,-7.142 29.266,-12.65 54.67,-33.418 84.464,-44.79 29.898,-11.412 62.374,-12.736 93.466,-19.118 12.75,-2.618 25.486,-6.158 36.748,-12.68 17.504,-10.138 34.208,-31.36 25.502,-52.462 -3.41,-8.262 -10.55,-14.594 -18.594,-18.492 -17.468,-8.466 -41.22,1.332 -48.95,-19.988 -4.554,-12.558 -3.918,-32.678 -21.35,-34.3 -159.094,-14.816 -315.85,5.544 -471.792,25.886"
           id="path518" />
      </g>
      <path
         fill="#fcdbd1"
         d="m 2964.967,3172.058 c -1.042,1.174 -2.174,2.272 -3.308,3.37 -0.14,0.262 -0.37,0.448 -0.6,0.636 -10.542,10.5 -22.742,20.084 -35.54,28.572 -35.128,23.416 -74.71,39.092 -95.684,46.632 -7.34,2.602 -15.114,-2.758 -15.376,-10.654 l -0.304,-11.768 c -0.176,-6.996 -6.446,-12.17 -13.274,-11.102 l -11.39,1.67 c -7.964,1.258 -14.58,-5.78 -13.102,-13.594 6.25,-33.766 33.634,-82.014 51.204,-110.43 3.57,-5.788 6.728,-10.71 9.244,-14.582 3.594,-5.542 5.764,-8.72 5.764,-8.72 l 34.2,27.988 z"
         id="path522" />
      <path
         opacity="0.5"
         fill="#f5c3c1"
         enable-background="new    "
         d="m 2961.66,3175.427 c -0.14,0.262 -0.37,0.448 -0.6,0.636 -10.542,10.5 -22.742,20.084 -35.54,28.572 -13.058,-12.278 -74.276,-71.666 -88.684,-123.828 10.228,8.404 17.76,17.438 17.76,17.438 0,0 42.634,37.657 107.064,77.182 z"
         id="path524" />
      <path
         opacity="0.5"
         fill="#f5c3c1"
         enable-background="new    "
         d="m 2961.66,3175.427 c -0.14,0.262 -0.37,0.448 -0.6,0.636 -10.542,10.5 -22.742,20.084 -35.54,28.572 -13.058,-12.278 -74.276,-71.666 -88.684,-123.828 10.228,8.404 17.76,17.438 17.76,17.438 0,0 42.634,37.657 107.064,77.182 z"
         id="path526" />
      <g
         id="g530">
        <path
           fill="#fcdbd1"
           d="m 3281.48,3232.1 c 0,0 -0.544,28.224 16.972,78.076 3.722,10.59 16.494,14.81 25.756,8.47 3.402,-2.328 6.532,-4.56 9.236,-6.536 6.054,-4.424 14.27,-4.322 20.244,0.21 l 13.102,9.938 c 7.988,6.06 19.438,3.968 24.7,-4.566 13.058,-21.18 34.11,-60.56 35.424,-96.1"
           id="path528" />
      </g>
      <g
         opacity="0.5"
         id="g534">
        <path
           fill="#f5c3c1"
           d="m 3281.48,3232.1 c 0,0 -0.544,28.224 16.972,78.076 3.722,10.59 16.494,14.81 25.756,8.47 3.402,-2.328 6.532,-4.56 9.236,-6.536 6.054,-4.424 14.27,-4.322 20.244,0.21 l 13.102,9.938 c 7.988,6.06 19.438,3.968 24.7,-4.566 13.058,-21.18 34.11,-60.56 35.424,-96.1"
           id="path532" />
      </g>
      <g
         opacity="0.5"
         id="g538">
        <path
           fill="#f5c3c1"
           d="m 3281.48,3232.1 c 0,0 -0.544,28.224 16.972,78.076 3.722,10.59 16.494,14.81 25.756,8.47 3.402,-2.328 6.532,-4.56 9.236,-6.536 6.054,-4.424 14.27,-4.322 20.244,0.21 l 13.102,9.938 c 7.988,6.06 19.438,3.968 24.7,-4.566 13.058,-21.18 34.11,-60.56 35.424,-96.1"
           id="path536" />
      </g>
      <path
         fill="#fcdbd1"
         d="m 3606.442,2995.122 c 0.218,65.074 -10.83,127.1 -23.422,169.56 -81.31,36.508 -152.654,65.956 -245.288,77.314 -49.98,6.196 -106.082,7.038 -173.254,0.858 -14.394,-1.26 -29.234,-2.888 -44.688,-4.872 -33.006,-6.074 -93.906,-25.15 -158.73,-61.918 -34.218,-19.57 -69.56,-43.984 -102.394,-74.084 -1.36,-1.272 -2.712,-2.462 -4.07,-3.734 -6.066,-5.606 -11.982,-11.392 -17.76,-17.438 -8.048,-8.22 -15.81,-16.882 -23.356,-25.892 -100.228,-120.328 355.624,-339.36 355.624,-339.36 0,0 8.778,-2.244 23.768,-5.084 6.076,-1.16 13.216,-2.422 21.262,-3.688 23.484,-3.738 54.308,-7.518 88.118,-8.534 56.262,-1.766 120.754,4.012 173.538,29.642 15.658,7.574 30.248,16.898 43.31,28.352 42.506,37.174 66.384,89.17 78.006,144.982 6.497,30.723 9.227,62.638 9.336,93.896 z"
         id="path540" />
      <g
         id="g558">
        <g
           id="g546">
          <path
             fill="#fcdbd1"
             d="m 2794.633,2514.275 -97.416,96.546 -43.708,43.214 c 1.734,-3.414 -68.732,-48.544 -54.066,-171.966 1.08,-9.092 8.41,-16.288 17.52,-17.202 95.856,-9.609 118.826,-5.153 177.67,49.408 z"
             id="path542" />
          <path
             fill="#f5c3c1"
             d="m 2695.638,2643.396 c 0,0 -66.638,-27.064 -65.372,-127.224 0.09,-7.114 5.164,-13.214 12.128,-14.672 52.984,-11.086 95.652,-2.522 121.498,36.35"
             id="path544" />
        </g>
        <g
           id="g552">
          <path
             fill="#fcdbd1"
             d="m 3062.618,2532.85 72.416,116.476 32.516,52.158 c -0.896,-3.724 78.104,-31.312 92.41,-154.778 1.054,-9.094 -4.412,-17.792 -13.062,-20.79 -91.025,-31.541 -114.404,-32.522 -184.28,6.934 z"
             id="path548" />
          <path
             fill="#f5c3c1"
             d="m 3129.031,2681.382 c 0,0 71.094,-10.902 93.048,-108.634 1.56,-6.942 -1.964,-14.052 -8.402,-17.08 -48.978,-23.052 -92.47,-24.598 -126.612,7.234"
             id="path550" />
        </g>
        <path
           opacity="0.5"
           fill="#f5c3c1"
           enable-background="new    "
           d="m 2904.868,3104.562 c -15.974,-0.53 -31.406,-1.444 -46.202,-2.582 -1.36,-1.272 -2.712,-2.462 -4.07,-3.734 -6.066,-5.606 -11.982,-11.392 -17.76,-17.438 -8.048,-8.22 -15.81,-16.882 -23.356,-25.892 -100.228,-120.328 355.624,-339.36 355.624,-339.36 0,0 8.778,-2.244 23.768,-5.084 3.542,15.418 6.44,31.888 8.944,49.386 25.681,181.759 -4.465,355.182 -296.948,344.704 z"
           id="path554" />
        <path
           fill="#fcdbd1"
           d="m 2921.326,2473.25 c 0,0 -205.392,-25.748 -297.228,212.758 -93.73,243.43 -27.712,384.914 264.794,395.364 292.508,10.448 322.63,-162.942 296.946,-344.734 -25.684,-181.792 -103.849,-251.294 -264.512,-263.388 z"
           id="path556" />
      </g>
      <path
         fill="#fcdbd1"
         d="m 3584.621,3159 c 0,0 -22.818,105.316 -57.91,160.08 -0.288,0.44 -0.576,0.88 -0.864,1.32 -4.382,6.774 -13.752,8.002 -19.712,2.632 -3.534,-3.292 -6.766,-6.034 -9.552,-8.406 -5.472,-4.59 -13.714,-3.634 -18.028,2.142 l -6.434,8.62 c -5.06,6.59 -14.958,6.632 -19.89,-0.072 -5.232,-7.254 -12.096,-17.734 -19.494,-31.214 -11.106,-20.302 -23.292,-47.598 -32.862,-81.99 -23.517,-84.374 184.746,-53.112 184.746,-53.112 z"
         id="path560" />
      <path
         fill="#fcdbd1"
         d="m 3506.022,2766.362 c -5,-6.342 -7.906,-14.816 -7.714,-23.514 -0.026,-8.766 3.24,-17.256 7.852,-24.526 4.642,-7.324 10.814,-13.7 18.22,-18.326 7.292,-4.738 15.776,-7.998 24.722,-8.646 9.02,-0.556 17.952,1.892 25.632,6.172 7.606,4.738 13.186,11.988 15.696,20.18 2.532,8.254 1.38,17.348 -3.222,24.754 -4.574,7.154 -13.386,13.4 -23.836,11.014 -5.104,-1.12 -9.68,-4.86 -12.166,-9.486 -2.338,-4.606 -3.504,-9.362 -3.27,-14.328 0.356,-9.89 4.904,-18.37 10.25,-25.242 5.49,-6.908 11.874,-12.748 19.638,-17.404 7.746,-4.568 16.558,-7.322 25.856,-7.81 9.194,-0.24 19.272,1.824 27.118,7.804 7.954,5.798 12.964,14.162 15.474,22.652 4.866,17.036 1.23,35.076 -8.574,47.902 l -1.44,-0.79 c 4.75,-14.654 3.606,-30.36 -2.104,-42.594 -5.876,-12.484 -16.918,-18.826 -29.53,-17.484 -12.592,0.824 -25.302,7.454 -34.556,17.596 -4.524,5.016 -7.926,10.754 -8.996,16.482 -0.652,2.798 -0.27,5.92 0.298,8.482 0.73,2.438 2.296,4.516 4.694,5.634 4.822,2.296 12.62,0.032 16.55,-5.592 4.212,-5.454 5.284,-13.408 2.774,-19.886 -2.514,-6.6 -8.392,-11.538 -14.696,-13.686 -6.592,-1.952 -13.402,-2.094 -19.896,-0.806 -12.912,2.858 -25.542,10.018 -34.262,20.792 -9.116,10.53 -13.236,24.72 -9.058,39.886 z"
         id="path562" />
      <path
         fill="#fcdbd1"
         d="m 2955.675,3172.934 c 0,0 28.116,101.824 69.532,152.59 4.606,5.646 13.224,5.804 18.32,0.594 3.538,-3.614 6.632,-6.786 9.18,-9.402 4.472,-4.59 11.678,-4.974 16.648,-0.926 l 9.67,7.878 c 6.316,5.146 15.75,2.892 19.108,-4.528 9.698,-21.424 25.97,-63.27 25.214,-101.438"
         id="path564" />
      <ellipse
         transform="matrix(0.1454,-0.9894,0.9894,0.1454,-427.5798,5301.0791)"
         fill="#f5c3c1"
         cx="2854.7351"
         cy="2898.0439"
         rx="115.32"
         ry="169.73399"
         id="ellipse566" />
      <path
         opacity="0.2"
         fill="#f5c3c1"
         enable-background="new    "
         d="m 3022.757,2922.973 c -9.222,63.008 -91.926,103.032 -184.726,89.41 -59.242,-8.674 -108.264,-37.222 -133.402,-73.09 27.262,27.91 69.89,49.152 119.6,56.51 92.718,13.632 175.424,-26.392 184.646,-89.402 3.336,-22.842 -3.386,-45.628 -17.874,-65.936 23.763,24.12 36.041,53.221 31.756,82.508 z"
         id="path568" />
      <g
         id="g584">
        <linearGradient
           id="linearGradient3793"
           gradientUnits="userSpaceOnUse"
           x1="2872.72"
           y1="2282.0813"
           x2="2908.9905"
           y2="2282.0813"
           gradientTransform="matrix(0.9894,0.1454,-0.1454,0.9894,232.1179,211.1829)">
          <stop
             offset="0.0054"
             style="stop-color:#50252F"
             id="stop3789" />
          <stop
             offset="1"
             style="stop-color:#221F1F"
             id="stop3791" />
        </linearGradient>
        <path
           fill="url(#SVGID_1_)"
           d="m 2778.458,2892.042 c -2.17,14.772 -11.964,25.566 -21.874,24.108 -9.91,-1.456 -16.184,-14.612 -14.012,-29.382 2.172,-14.772 11.964,-25.564 21.874,-24.108 9.912,1.455 16.185,14.61 14.012,29.382 z"
           id="path575"
           style="fill:url(#SVGID_1_)" />
        <linearGradient
           id="linearGradient3800"
           gradientUnits="userSpaceOnUse"
           x1="2669.3625"
           y1="1851.0854"
           x2="2693.5337"
           y2="1851.0854"
           gradientTransform="matrix(0.9954,-0.0955,0.0955,0.9954,-92.0215,1303.5636)">
          <stop
             offset="0.0054"
             style="stop-color:#50252F"
             id="stop3796" />
          <stop
             offset="1"
             style="stop-color:#221F1F"
             id="stop3798" />
        </linearGradient>
        <path
           fill="url(#SVGID_2_)"
           d="m 2760.64,2915.78 c 0.334,0.05 0.67,0.1 0.996,0.07 -1.602,0.484 -3.328,0.566 -5.084,0.322 -9.874,-1.446 -16.17,-14.62 -13.96,-29.434 2.026,-14.138 11.158,-24.748 20.78,-24.186 -7.96,2.166 -14.888,11.658 -16.694,23.794 -2.208,14.813 4.086,27.987 13.962,29.434 z"
           id="path582"
           style="fill:url(#SVGID_2_)" />
      </g>
      <g
         id="g600">
        <linearGradient
           id="linearGradient3808"
           gradientUnits="userSpaceOnUse"
           x1="3027.0596"
           y1="2273.5781"
           x2="3063.3301"
           y2="2273.5781"
           gradientTransform="matrix(0.9894,0.1454,-0.1454,0.9894,232.1179,211.1829)">
          <stop
             offset="0.0054"
             style="stop-color:#50252F"
             id="stop3804" />
          <stop
             offset="1"
             style="stop-color:#221F1F"
             id="stop3806" />
        </linearGradient>
        <path
           fill="url(#SVGID_3_)"
           d="m 2932.398,2906.07 c -2.17,14.77 -11.964,25.564 -21.874,24.108 -9.91,-1.456 -16.184,-14.612 -14.012,-29.382 2.172,-14.772 11.964,-25.564 21.874,-24.108 9.91,1.456 16.183,14.612 14.012,29.382 z"
           id="path591"
           style="fill:url(#SVGID_3_)" />
        <linearGradient
           id="linearGradient3815"
           gradientUnits="userSpaceOnUse"
           x1="2821.262"
           y1="1879.7517"
           x2="2845.4331"
           y2="1879.7517"
           gradientTransform="matrix(0.9954,-0.0955,0.0955,0.9954,-92.0215,1303.5636)">
          <stop
             offset="0.0054"
             style="stop-color:#50252F"
             id="stop3811" />
          <stop
             offset="1"
             style="stop-color:#221F1F"
             id="stop3813" />
        </linearGradient>
        <path
           fill="url(#SVGID_4_)"
           d="m 2914.579,2929.808 c 0.334,0.05 0.67,0.1 0.996,0.07 -1.604,0.484 -3.328,0.566 -5.084,0.322 -9.874,-1.446 -16.17,-14.62 -13.96,-29.434 2.026,-14.138 11.158,-24.748 20.78,-24.186 -7.96,2.166 -14.888,11.658 -16.694,23.794 -2.209,14.814 4.088,27.988 13.962,29.434 z"
           id="path598"
           style="fill:url(#SVGID_4_)" />
      </g>
      <g
         id="g612">
        <g
           id="g606">
          <path
             fill="#22100c"
             d="m 2787.742,2691.283 c 1.788,18.642 -11.876,35.202 -30.516,36.99 -18.642,1.788 -35.204,-11.876 -36.992,-30.516 -1.788,-18.642 11.876,-35.202 30.516,-36.99 18.645,-1.789 35.207,11.875 36.992,30.516 z"
             id="path602" />
          <path
             fill="#ffffff"
             d="m 2761.073,2685.681 c 0.766,7.974 -5.08,15.058 -13.052,15.822 -7.974,0.766 -15.058,-5.08 -15.822,-13.052 -0.766,-7.974 5.08,-15.058 13.052,-15.822 7.971,-0.765 15.055,5.079 15.822,13.052 z"
             id="path604" />
        </g>
        <g
           id="g610">
          <path
             fill="#f5c3c1"
             d="m 2722.163,2717.845 c 3.48,4.102 7.418,7.594 11.756,10.258 4.35,2.622 9.104,4.4 14.056,4.896 4.944,0.59 10.016,-0.018 14.998,-1.304 4.998,-1.276 9.886,-3.264 14.846,-5.398 -3.994,3.636 -8.654,6.596 -13.812,8.584 -2.546,1.096 -5.292,1.678 -8.048,2.208 -2.788,0.38 -5.634,0.442 -8.466,0.174 -5.662,-0.648 -11.116,-2.938 -15.488,-6.424 -4.379,-3.454 -7.87,-7.945 -9.842,-12.994 z"
             id="path608" />
        </g>
      </g>
      <g
         id="g624">
        <g
           id="g618">
          <path
             fill="#22100c"
             d="m 3069.47,2718.968 c 1.788,18.642 -11.876,35.204 -30.516,36.99 -18.642,1.788 -35.202,-11.874 -36.99,-30.516 -1.788,-18.642 11.876,-35.202 30.516,-36.99 18.643,-1.788 35.203,11.875 36.99,30.516 z"
             id="path614" />
          <path
             fill="#ffffff"
             d="m 3042.801,2713.367 c 0.764,7.974 -5.08,15.058 -13.054,15.822 -7.974,0.764 -15.058,-5.08 -15.822,-13.054 -0.764,-7.974 5.08,-15.058 13.052,-15.822 7.975,-0.763 15.059,5.081 15.824,13.054 z"
             id="path616" />
        </g>
        <g
           id="g622">
          <path
             fill="#f5c3c1"
             d="m 3003.89,2745.531 c 3.48,4.102 7.418,7.594 11.756,10.258 4.35,2.622 9.104,4.4 14.056,4.896 4.944,0.59 10.016,-0.018 14.998,-1.304 4.998,-1.276 9.886,-3.266 14.846,-5.398 -3.994,3.636 -8.652,6.596 -13.812,8.584 -2.546,1.096 -5.292,1.678 -8.048,2.208 -2.788,0.38 -5.634,0.442 -8.466,0.174 -5.662,-0.648 -11.116,-2.938 -15.488,-6.424 -4.378,-3.453 -7.869,-7.945 -9.842,-12.994 z"
             id="path620" />
        </g>
      </g>
      <path
         opacity="0.5"
         fill="#f5c3c1"
         enable-background="new    "
         d="m 2916.354,2808.545 c -9.73,-4.098 -19.85,-6.756 -30.16,-8.16 -10.258,-1.634 -20.652,-2.298 -31.024,-2.216 -20.728,0.204 -41.468,2.45 -61.566,7.314 -20.088,4.72 -39.734,11.808 -57.224,22.544 -17.27,10.682 -32.372,26.544 -37.052,47.392 0.562,-10.588 4.686,-20.918 10.62,-29.92 6.156,-8.908 14.182,-16.402 22.914,-22.72 17.626,-12.606 38.13,-20.228 58.858,-25.286 20.84,-4.828 42.31,-6.926 63.63,-5.612 21.14,1.362 42.927,5.372 61.004,16.664 z"
         id="path626" />
      <path
         fill="#f5c3c1"
         d="m 3096.707,2982.236 -11.852,-3.15 c -7.554,-2.766 -15.204,-5.2 -21.558,-9.658 -13.14,-8.074 -22.002,-21.894 -24.026,-38.778 -2.356,8.228 -1.418,17.446 2.154,25.628 2.22,5.298 5.746,9.944 9.89,13.934 -1.884,8.264 -4.424,16.046 -8.718,22.732 -5.104,7.956 -12.422,14.134 -20.952,18.086 -8.468,4.108 -18.016,6.156 -27.67,6.752 -9.682,0.432 -19.558,-0.39 -29.082,-4.2 7.826,6.822 18.598,9.876 29.038,10.584 10.556,0.718 21.396,-1.144 31.246,-5.726 9.768,-4.644 18.38,-12.502 23.004,-22.354 3.762,-7.724 5.046,-16.138 4.734,-24.306 1.886,1.658 3.862,3.204 5.946,4.556 7.508,5.016 16.128,7.362 24.57,9 4.29,0.426 8.568,0.846 12.816,0.91 4.276,-0.256 8.516,-0.492 12.702,-1.106 -4.128,-1.216 -8.205,-2.053 -12.242,-2.904 z"
         id="path628" />
      <g
         id="g632">
        <path
           fill="#3d2118"
           d="m 3475.791,2727.889 c -4.32,7.426 -12.318,12.648 -20.952,13.806 -5.788,0.72 -12.758,0.316 -16.356,4.95 -3,4 -1.854,9.914 -4.316,14.356 -4.076,7.404 -15.502,6.106 -22.56,1.338 -7.05,-4.686 -12.774,-11.894 -20.978,-13.994 -13.796,-3.626 -30.66,8.056 -41.524,-1.134 -7.9,-6.668 -7.114,-20.85 -16.166,-25.758 -5.732,-2.998 -12.622,-0.852 -18.958,0.168 -6.338,1.02 -14.456,-0.182 -16.604,-6.246 -1.954,-5.752 2.882,-11.248 4.874,-17.132 56.263,-1.762 120.756,4.017 173.54,29.646 z"
           id="path630" />
      </g>
      <g
         id="g636">
        <path
           fill="#3d2118"
           d="m 3317.088,2743.229 c -6.304,1.714 -13.46,4.768 -18.118,9.478 -1.046,1.058 -1.994,2.278 -2.398,3.71 -0.604,2.15 0.156,4.574 1.744,6.144 2.506,2.482 6.544,2.784 9.548,1.058 3.146,-1.806 4.868,-5.29 6.412,-8.574 1.268,-2.698 1.758,-7.91 2.812,-11.816"
           id="path634" />
      </g>
      <g
         id="g640">
        <path
           fill="#3d2118"
           d="m 3330.658,2742.612 c -1.396,4.56 -2.298,10.164 -1.204,14.872 0.246,1.058 0.63,2.116 1.356,2.924 1.092,1.21 2.884,1.684 4.472,1.316 2.508,-0.582 4.266,-2.956 4.372,-5.482 0.108,-2.646 -1.37,-5.064 -2.796,-7.296 -1.173,-1.831 -4.202,-4.163 -6.2,-6.334"
           id="path638" />
      </g>
      <g
         id="g650">
        <g
           id="g644">
          <path
             fill="#3d2118"
             d="m 2686.358,3192.587 c -3.238,-7.922 -8.352,-16.736 -15.218,-22.04 -1.542,-1.192 -3.28,-2.228 -5.206,-2.524 -2.892,-0.444 -5.922,0.934 -7.71,3.248 -2.826,3.656 -2.574,8.954 0.15,12.584 2.852,3.8 7.656,5.482 12.172,6.964 3.711,1.221 10.567,1.025 15.812,1.768"
             id="path642" />
        </g>
        <g
           id="g648">
          <path
             fill="#3d2118"
             d="m 2699.695,3186.333 c 3.248,-5.362 6.2,-12.218 6.322,-18.572 0.026,-1.428 -0.122,-2.902 -0.788,-4.164 -1.002,-1.894 -3.134,-3.076 -5.276,-3.116 -3.384,-0.066 -6.39,2.394 -7.336,5.582 -0.99,3.338 0.118,6.896 1.216,10.2 0.901,2.713 4.011,6.661 5.862,10.07"
             id="path646" />
        </g>
      </g>
      <g
         id="g654">
        <path
           fill="#3d2118"
           d="m 3606.442,2995.122 c -4.572,3.08 -8.178,7.632 -12.182,11.482 -4.528,4.394 -10.264,8.244 -16.498,7.77 -7.23,-0.544 -12.68,-6.622 -17.258,-12.206 -7.578,-9.338 -15.688,-20.77 -12.43,-32.386 2.382,-8.726 11.054,-15.498 10.838,-24.636 -0.242,-6.824 -5.49,-12.508 -6.638,-19.328 -1.676,-9.74 6.166,-19.154 15.48,-22.688 9.224,-3.608 19.452,-2.772 29.352,-1.908 6.497,30.727 9.227,62.642 9.336,93.9 z"
           id="path652" />
      </g>
    </g>
  </g>
</svg>
