<?xml version="1.0" encoding="UTF-8" standalone="no"?>
<!-- Created with Inkscape (http://www.inkscape.org/) -->

<svg
   width="210mm"
   height="297mm"
   viewBox="0 0 210 297"
   version="1.1"
   id="svg1541"
   inkscape:version="1.1 (c68e22c387, 2021-05-23)"
   sodipodi:docname="gallina.svg"
   xmlns:inkscape="http://www.inkscape.org/namespaces/inkscape"
   xmlns:sodipodi="http://sodipodi.sourceforge.net/DTD/sodipodi-0.dtd"
   xmlns="http://www.w3.org/2000/svg"
   xmlns:svg="http://www.w3.org/2000/svg">
  <sodipodi:namedview
     id="namedview1543"
     pagecolor="#ffffff"
     bordercolor="#666666"
     borderopacity="1.0"
     inkscape:pageshadow="2"
     inkscape:pageopacity="0.0"
     inkscape:pagecheckerboard="0"
     inkscape:document-units="mm"
     showgrid="false"
     inkscape:snap-global="true"
     inkscape:zoom="0.47215208"
     inkscape:cx="408.7666"
     inkscape:cy="671.39385"
     inkscape:window-width="857"
     inkscape:window-height="706"
     inkscape:window-x="500"
     inkscape:window-y="0"
     inkscape:window-maximized="0"
     inkscape:current-layer="layer1" />
  <defs
     id="defs1538" />
  <g
     inkscape:label="Capa 1"
     inkscape:groupmode="layer"
     id="layer1">
    <g
       id="g512"
       transform="matrix(0.26458333,0,0,0.26458333,-862.04657,-303.52765)">
      <g
         id="g502">
        <path
           fill="#f5a84c"
           d="m 3592.985,1979.639 c 2.946,52.096 14.72,130.75 17.664,142.542 2.942,11.806 29.434,70.796 39.25,66.86 9.812,-3.936 -31.4,-63.912 -21.586,-58.004 9.81,5.896 43.176,40.302 52.986,31.456 9.812,-8.846 -37.288,-37.366 -26.494,-37.366 10.794,0 57.894,0.012 52.008,-9.82 -5.888,-9.844 -75.558,-6.884 -75.558,-6.884 -4.906,-64.888 -11.774,-125.84 -11.774,-125.84"
           id="path458" />
        <path
           fill="#f5a84c"
           d="m 3709.753,1971.769 c 2.942,52.106 14.72,130.762 17.662,142.554 2.946,11.794 29.436,70.784 39.25,66.848 9.816,-3.934 -31.398,-63.9 -21.588,-58.004 9.812,5.896 43.176,40.314 52.99,31.468 9.81,-8.858 -37.288,-37.366 -26.494,-37.366 10.792,0 57.894,0 52.004,-9.832 -5.886,-9.832 -75.556,-6.884 -75.556,-6.884 -4.91,-64.886 -11.776,-125.84 -11.776,-125.84"
           id="path460" />
        <path
           fill="#d5525c"
           d="m 3723.491,1559.835 c -97.142,12.78 -141.302,-30.47 -172.702,-71.77 -31.396,-41.288 -82.422,-74.718 -76.534,18.688 -63.782,-88.486 -99.638,-72.698 -105.258,18.208 -65.478,-67.366 -105.71,72.24 -36.042,239.368 69.666,167.128 193.306,259.548 455.3,223.17 193.31,-34.406 186.438,-241.846 176.626,-300.836 -9.81,-58.994 -241.39,-126.828 -241.39,-126.828 z"
           id="path462" />
        <g
           id="g472">
          <g
             id="g466">
            <path
               opacity="0.5"
               fill="#b0333e"
               enable-background="new    "
               d="m 3788.255,1987.497 c 193.31,-34.406 186.438,-241.846 176.626,-300.836 -3.252,-19.556 -30.902,-40.086 -66.394,-58.798 -30.824,0.156 -57.738,1.288 -57.738,1.288 0,0 -41.212,57.51 -39.742,82.576 1.472,25.066 51.516,58.99 80.954,-10.326 -1.472,4.428 33.854,224.156 -197.234,212.364 -292.526,-14.934 -372.386,-281.666 -362.082,-328.864 10.302,-47.186 23.55,-53.082 73.594,-14.742 -9.38,-28.196 -8.476,-93.78 1.204,-120.798 -16.19,6.016 -25.768,32.238 -28.448,75.598 -65.478,-67.366 -105.71,72.24 -36.042,239.368 69.668,167.128 193.306,259.548 455.302,223.17 z"
               id="path464" />
          </g>
          <g
             id="g470">
            <path
               opacity="0.5"
               fill="#b0333e"
               enable-background="new    "
               d="m 3474.089,1503.179 c 7.934,11.3 16.744,24.2 26.652,38.954 -11.228,-16.872 -16.446,-68.906 -9.798,-94.61 -11.356,3.416 -18.618,19.408 -16.854,55.656 z"
               id="path468" />
          </g>
        </g>
        <path
           fill="#f5a84c"
           d="m 3418.323,1721.065 c -63.29,-4.416 9.812,138.138 98.124,180.894 88.314,42.768 198.216,5.416 215.878,-84.538 17.666,-89.954 -68.688,-122.89 -121.676,-131.748 -52.99,-8.844 -99.106,-139.594 -150.132,-29.976 -35.328,-72.264 -62.8,-10.326 -42.194,65.368 z"
           id="path474" />
        <path
           fill="#d5525c"
           d="m 3881.475,1353.379 c 69.67,-50.134 -16.68,-150.412 -51.024,-62.914 -59.86,-99.304 -164.852,-16.716 -82.426,54.068 -137.376,-10.818 -85.372,121.904 -17.662,89.46 67.708,-32.442 151.112,-80.614 151.112,-80.614 z"
           id="path476" />
        <g
           id="g480">
          <path
             opacity="0.5"
             fill="#b0333e"
             enable-background="new    "
             d="m 3771.571,1411.383 c -97.146,23.598 -113.826,-48.172 2.942,-66.848 -85.368,-93.408 10.794,-151.892 61.818,-24.586 0.682,-20.47 11.768,-50.398 28.652,-63.84 -12.582,1.18 -25.396,11.07 -34.532,34.356 -59.86,-99.304 -164.852,-16.716 -82.426,54.068 -137.376,-10.818 -85.372,121.904 -17.662,89.46 13.494,-6.462 27.61,-13.562 41.57,-20.77 -0.136,-0.624 -0.212,-1.202 -0.362,-1.84 z"
             id="path478" />
        </g>
        <path
           fill="#d5525c"
           d="m 3968.809,1476.271 c 25.514,17.702 63.704,28.99 64.27,41.542 0.736,16.222 -61.328,30.23 -61.328,30.23 0,0 -4.908,-43.264 -2.942,-71.772 z"
           id="path482" />
        <g
           id="g486">
          <path
             fill="#af222c"
             d="m 4026.457,1521.497 c 0.546,1.214 -2.336,3.872 -7.956,5.508 -2.786,0.868 -6.148,1.366 -9.882,1.638 -3.716,0.182 -7.798,0.104 -12.002,-0.384 -16.878,-1.916 -29.288,-8.554 -28.302,-11.188 0.932,-2.63 13.794,-0.66 29.442,1.104 3.908,0.454 7.598,0.79 10.954,1.118 3.336,0.238 6.354,0.504 8.868,0.596 5.024,0.304 8.306,0.256 8.878,1.608 z"
             id="path484" />
        </g>
        <path
           fill="#fad85d"
           d="m 3974.697,1710.259 c 14.72,-177.946 14.716,-335.242 -77.522,-360.814 -92.236,-25.56 -186.432,45.224 -184.474,131.736 1.96,86.524 -7.846,92.42 -38.268,116.02 -30.422,23.588 -48.318,72.036 8.83,89.46 22.566,6.882 90.936,-1.902 95.02,-21.108 4.084,112.542 95.504,64.274 96.894,11.72 50.454,87.054 91.67,63.456 99.52,32.986 z"
           id="path488" />
        <path
           fill="#402312"
           d="m 3885.789,1454.139 c 4.472,15.956 16.692,26.486 27.316,23.502 10.622,-2.972 15.624,-18.34 11.158,-34.296 -4.466,-15.97 -16.696,-26.486 -27.314,-23.514 -10.618,2.984 -15.62,18.34 -11.16,34.308 z"
           id="path490" />
        <path
           fill="#f9a53d"
           d="m 3936.715,1526.897 c 0,18.736 -17.308,33.924 -38.658,33.924 -21.35,0 -38.66,-15.186 -38.66,-33.924 0,-18.726 17.31,-33.912 38.66,-33.912 21.35,0 38.658,15.188 38.658,33.912 z"
           id="path492" />
        <g
           id="g496">
          <path
             fill="#ce7328"
             d="m 3484.063,1800.709 c -0.24,0.656 -2,0.614 -5.116,-0.096 -3.05,-0.81 -7.264,-2.602 -12.068,-5.486 -9.5,-5.864 -21.044,-16.306 -30.854,-29.97 -9.972,-13.562 -16.322,-27.6 -19.554,-38.102 -3.186,-10.576 -3.336,-17.504 -2.08,-17.782 1.468,-0.352 4.058,5.764 8.744,15.122 4.746,9.33 11.688,21.996 21.096,34.792 9.266,12.902 19.176,23.31 26.89,30.152 3.902,3.36 7.216,5.906 9.546,7.718 2.364,1.7 3.638,2.994 3.396,3.652 z"
             id="path494" />
        </g>
        <g
           id="g500">
          <path
             fill="#ce7328"
             d="m 3526.259,1734.835 c -0.256,0.65 -1.894,0.628 -4.738,-0.02 -2.902,-0.53 -6.742,-2.198 -11.336,-4.63 -9.072,-5.032 -19.992,-14.752 -28.978,-27.49 -9.04,-12.722 -14.804,-25.576 -18.044,-35.112 -3.258,-9.56 -3.926,-15.884 -2.648,-16.314 1.374,-0.47 4.406,4.9 9.21,13.408 4.788,8.506 11.286,20.228 19.748,32.13 8.432,11.924 17.484,21.396 24.774,27.462 3.696,2.93 6.728,5.418 8.96,6.972 2.172,1.678 3.308,2.942 3.052,3.594 z"
             id="path498" />
        </g>
      </g>
      <g
         id="g506">
        <path
           opacity="0.4"
           fill="#ce7328"
           enable-background="new    "
           d="m 3732.325,1817.421 c 8.354,-42.54 -6.562,-72.312 -30.2,-92.83 39.288,62.516 -47.498,186.118 -141.038,165.576 -107.444,-23.598 -157.488,-147.476 -101.56,-113.552 -29.436,-28.016 -36.796,-87.006 -33.854,-109.124 2.946,-22.118 16.19,-25.078 72.124,42.756 -17.626,-23.96 -24.4,-73.708 -7.6,-94.094 -9.766,5.704 -19.626,17.93 -29.682,39.544 -35.328,-72.264 -62.8,-10.326 -42.194,65.368 -63.29,-4.416 9.812,138.138 98.124,180.894 88.316,42.77 198.218,5.416 215.88,-84.538 z"
           id="path504" />
      </g>
      <g
         id="g510">
        <path
           opacity="0.3"
           fill="#f5a84c"
           enable-background="new    "
           d="m 3683.263,1686.661 c 22.566,6.882 90.936,-1.902 95.02,-21.108 4.084,112.542 95.504,64.274 96.894,11.72 50.456,87.054 91.672,63.454 99.52,32.986 0.856,-10.36 1.658,-20.638 2.4,-30.842 -22.608,45.416 -69.066,19.494 -105.436,-34.044 -10.796,53.082 -71.632,83.564 -86.35,1.962 -66.728,58.992 -156.02,-9.832 -110.878,-50.134 -30.422,23.586 -48.32,72.034 8.83,89.46 z"
           id="path508" />
      </g>
    </g>
  </g>
</svg>
