<?xml version="1.0" encoding="UTF-8" standalone="no"?>
<!-- Created with Inkscape (http://www.inkscape.org/) -->

<svg
   width="210mm"
   height="297mm"
   viewBox="0 0 210 297"
   version="1.1"
   id="svg1541"
   inkscape:version="1.1 (c68e22c387, 2021-05-23)"
   sodipodi:docname="perro.svg"
   xmlns:inkscape="http://www.inkscape.org/namespaces/inkscape"
   xmlns:sodipodi="http://sodipodi.sourceforge.net/DTD/sodipodi-0.dtd"
   xmlns="http://www.w3.org/2000/svg"
   xmlns:svg="http://www.w3.org/2000/svg">
  <sodipodi:namedview
     id="namedview1543"
     pagecolor="#ffffff"
     bordercolor="#666666"
     borderopacity="1.0"
     inkscape:pageshadow="2"
     inkscape:pageopacity="0.0"
     inkscape:pagecheckerboard="0"
     inkscape:document-units="mm"
     showgrid="false"
     inkscape:snap-global="true"
     inkscape:zoom="0.47215208"
     inkscape:cx="408.7666"
     inkscape:cy="501.95692"
     inkscape:window-width="857"
     inkscape:window-height="706"
     inkscape:window-x="500"
     inkscape:window-y="0"
     inkscape:window-maximized="0"
     inkscape:current-layer="layer1" />
  <defs
     id="defs1538" />
  <g
     inkscape:label="Capa 1"
     inkscape:groupmode="layer"
     id="layer1">
    <g
       id="g120"
       transform="matrix(0.26458333,0,0,0.26458333,-39.317915,21.293773)">
      <g
         id="g110">
        <g
           id="g10">
          <path
             fill="#ad6a2f"
             d="m 893.371,562.532 c -0.298,-5.906 -0.474,-11.732 -1.028,-17.626 -0.572,-6.086 -3.956,-12.142 -4.312,-18.012 -0.2,-3.642 -5.832,-4.458 -7.088,-1.024 -1.806,4.94 -3.442,10.128 -5.254,15.284 -1.704,-26.652 -9.994,-52.516 -26.77,-73.186 -2.574,-3.162 -7.068,-0.994 -6.958,2.8 0.028,1.04 0.122,2.084 0.196,3.104 -4.936,-12.326 -11.212,-24.144 -17.808,-34.77 -15.302,-24.692 -43.732,-54.64 -72.184,-63.498 -3.214,-0.994 -6.536,1.638 -5.21,5.104 2.254,5.882 5.234,11.47 8.262,17.068 -9.876,-10.946 -20.824,-20.504 -32.372,-26.99 -4.016,-2.252 -7.796,2.686 -6.476,6.332 4.876,13.604 11.156,25.13 14.298,39.734 4.774,22.126 6.446,44.696 7.55,67.264 2.16,44.236 -1.048,85.996 -9.972,129.052 -2.316,7.498 -2.316,16.976 -2.656,23.784 -0.844,15.838 -1.868,31.408 -0.638,47.286 1.07,13.664 4.71,27.272 9.096,40.214 2.396,7.11 6.56,19.66 14.412,22.8 3.244,1.286 6.344,-0.566 7.288,-3.382 45.33,-20.17 79.86,-48.972 108.592,-89.784 12.6,-17.886 22.642,-37.994 27.476,-59.364 2.44,-10.756 2.082,-21.28 1.556,-32.19 z"
             id="path2" />
          <path
             opacity="0.2"
             fill="#ad6a2f"
             enable-background="new    "
             d="m 893.371,562.532 c -0.298,-5.906 -0.474,-11.732 -1.028,-17.626 -0.572,-6.086 -3.956,-12.142 -4.312,-18.012 -0.2,-3.642 -5.832,-4.458 -7.088,-1.024 -1.806,4.94 -3.442,10.128 -5.254,15.284 -1.704,-26.652 -9.994,-52.516 -26.77,-73.186 -2.574,-3.162 -7.068,-0.994 -6.958,2.8 0.028,1.04 0.122,2.084 0.196,3.104 -4.936,-12.326 -11.212,-24.144 -17.808,-34.77 -15.302,-24.692 -43.732,-54.64 -72.184,-63.498 -3.214,-0.994 -6.536,1.638 -5.21,5.104 2.254,5.882 5.234,11.47 8.262,17.068 -9.876,-10.946 -20.824,-20.504 -32.372,-26.99 -4.016,-2.252 -7.796,2.686 -6.476,6.332 4.876,13.604 11.156,25.13 14.298,39.734 4.774,22.126 6.446,44.696 7.55,67.264 1.142,23.222 0.75,45.762 -1.116,68.166 3.04,-1.982 6.008,-4.108 8.842,-6.554 6.214,-5.438 12.152,-10.548 19.628,-14.088 1.89,-0.874 4.818,-0.24 5.21,2.218 2.866,18.286 1.172,36.314 -2.412,54.14 10.082,-12.674 19.046,-26.206 29.708,-38.412 1.97,-2.244 5.052,-0.582 5.952,1.648 6.554,16.396 7.278,34.242 8.206,51.656 0.956,18.346 0.864,36.416 -4.586,54.152 -10.912,35.514 -32.782,65.32 -60.818,89.25 0.534,0.354 1.046,0.73 1.626,0.958 3.244,1.286 6.344,-0.566 7.288,-3.382 45.33,-20.17 79.86,-48.972 108.592,-89.784 12.6,-17.886 22.642,-37.994 27.476,-59.364 2.442,-10.754 2.084,-21.278 1.558,-32.188 z"
             id="path4" />
          <path
             fill="#f2c37f"
             d="m 893.371,562.532 c -0.298,-5.906 -0.474,-11.732 -1.028,-17.626 -0.572,-6.086 -3.956,-12.142 -4.312,-18.012 -0.2,-3.642 -5.832,-4.458 -7.088,-1.024 -1.806,4.94 -3.442,10.128 -5.254,15.284 -1.704,-26.652 -9.994,-52.516 -26.77,-73.186 -2.574,-3.162 -7.068,-0.994 -6.958,2.8 0.028,1.04 0.122,2.084 0.196,3.104 -4.936,-12.326 -11.212,-24.144 -17.808,-34.77 -15.302,-24.692 -43.732,-54.64 -72.184,-63.498 -3.214,-0.994 -6.536,1.638 -5.21,5.104 2.254,5.882 5.234,11.47 8.262,17.068 -9.876,-10.946 -20.824,-20.504 -32.372,-26.99 -4.016,-2.252 -7.796,2.686 -6.476,6.332 4.876,13.604 11.156,25.13 14.298,39.734 4.774,22.126 6.446,44.696 7.55,67.264 1.09,22.3 0.812,43.974 -0.876,65.494 12.846,-12.322 23.406,-26.924 29.146,-43.922 0.962,-2.844 5.012,-3.594 6.542,-0.784 7.46,13.802 9.416,30.902 9.246,48.146 7.134,-10.47 13.404,-21.464 19.634,-32.602 1.638,-2.888 5.558,-1.79 6.52,0.958 14.502,40.756 23.582,89.752 14.89,132.76 -4.884,24.102 -14.03,46.39 -26.436,66.898 26.082,-17.626 48.132,-39.548 67.454,-66.976 12.6,-17.886 22.642,-37.994 27.476,-59.364 2.442,-10.758 2.084,-21.282 1.558,-32.192 z"
             id="path6" />
          <path
             opacity="0.5"
             fill="#f2c37f"
             enable-background="new    "
             d="m 855.967,651.444 c -2.57,1.68 -6.208,-1.2 -5.176,-4.096 13.514,-38.064 18.644,-82.084 8.844,-121.934 -2.64,11.446 -6.11,22.678 -10.638,33.658 -1.15,2.802 -4.802,3.594 -6.542,0.776 -8.268,-13.578 -9.12,-30.098 -10.788,-45.55 -2.39,-22.312 -7.762,-44.616 -15.492,-65.822 -2.714,20.43 -7.026,40.57 -12.932,60.006 -0.968,3.246 -6.178,3.508 -6.888,-0.066 -6.822,-34.9 -16.494,-70.774 -33.878,-102.186 4.984,23.696 11.39,53.306 0.596,74.932 -1.03,2.036 -4.142,2.244 -5.616,0.648 -13.392,-14.604 -16.178,-34.328 -24.36,-51.692 2.924,17.864 4.244,35.928 5.12,53.996 1.09,22.3 0.812,43.974 -0.876,65.494 12.846,-12.322 23.406,-26.924 29.146,-43.922 0.962,-2.844 5.012,-3.594 6.542,-0.784 7.46,13.802 9.416,30.902 9.246,48.146 7.134,-10.47 13.404,-21.464 19.634,-32.602 1.638,-2.888 5.558,-1.79 6.52,0.958 14.502,40.756 23.582,89.752 14.89,132.76 -4.884,24.102 -14.03,46.39 -26.436,66.898 26.082,-17.626 48.132,-39.548 67.454,-66.976 12.6,-17.886 22.642,-37.994 27.476,-59.364 0.502,-2.206 0.816,-4.388 1.102,-6.576 -8.62,22.606 -15.61,49.392 -36.948,63.298 z"
             id="path8" />
        </g>
        <g
           id="g52">
          <path
             fill="#f2c37f"
             d="m 744.577,840.084 c -0.262,0.024 -0.432,0.126 -0.66,0.196 -2.106,-2.44 -4.688,-4.262 -7.584,-5.58 33.732,-63.138 56.176,-130.83 50.638,-204.116 -2.872,-37.922 -32.316,-51.782 -66.334,-43.306 -17.022,4.258 -38.392,17.854 -51.072,29.518 -5.086,-29.094 -13.182,-57.63 -23.798,-85.69 -3.448,-9.162 -6.532,-18.886 -9.764,-28.618 -5.388,-11.042 -10.74,-22.1 -16.378,-33.002 -9.266,-18.032 -23.196,-31.59 -36.212,-46.506 -3.618,-3.316 -7.14,-6.706 -10.366,-10.444 -0.682,-0.382 -1.32,-0.786 -1.992,-1.168 -12.436,-16.334 -38.704,-6.418 -56.38,-3.486 -32.064,5.332 -64.396,6.372 -96.284,13.204 -15.236,3.282 -30.392,5.654 -45.844,7.406 -10.946,1.246 -25.498,9.434 -36.388,8.028 -3.482,-0.444 -5.132,3.8 -2.606,6.042 0.546,0.476 1.058,0.772 1.582,1.08 -0.456,26.216 -11.156,46.876 -25.124,69.164 -12.572,20.052 -21.264,38.394 -21.322,62.48 -0.024,14.85 3.46,30.632 7.606,46.05 -0.95,-0.286 -1.916,-0.592 -2.822,-0.832 -14.956,-4.47 -34.778,-0.35 -49.434,3.336 -29.902,7.5 -46.776,30.024 -43.488,61.33 3.902,37.31 26.364,75.406 51.208,102.632 11.596,12.722 20.47,26.456 33.414,38.11 9.922,8.94 19.718,17.408 29.794,25.632 -1.282,-0.078 -2.618,-0.032 -4.08,0.274 -3.722,0.762 -6.816,2.534 -9.434,4.812 0.08,2.3 -1.672,4.56 -4.334,3.484 -11.846,-4.85 -22.234,18.522 -21.578,26.614 0.812,10.242 6.496,21.026 14.512,27.634 7.562,6.262 16.034,8.924 23.788,-0.706 0.848,-1.036 1.672,-2.512 3.134,-2.818 4.926,-1.028 14.998,4.606 18.194,-0.596 0.678,-1.1 1.65,-1.546 2.64,-1.624 0.148,-0.456 0.318,-0.872 0.432,-1.35 2.264,1.35 4.716,2.378 7.374,2.998 0.576,1.836 1.252,3.618 2.082,5.36 5.884,12.486 18.224,23.238 32.644,21.198 4.052,-0.566 7.118,-2.434 9.422,-5.046 5.304,4.708 12.004,7.816 19.946,7.848 10.592,0.048 19.042,-4.984 24.924,-12.384 0.496,0.164 0.916,0.346 1.402,0.47 14.604,3.996 27.746,-1.546 35.654,-14.118 3.702,-5.846 5.244,-13.106 5.074,-20.61 0.728,0.102 1.48,0.228 2.276,0.47 1.092,0.29 2.39,0.542 3.702,0.682 0.042,3.264 0.41,6.38 1.23,9.096 3.372,11.458 8.784,21.944 21.22,25.036 7.004,1.726 13.12,1.264 18.11,-1.82 3.55,3.24 8.05,5.768 13.768,7.338 14.358,3.924 25.18,-0.738 32.956,-10.634 0.802,0.762 1.724,1.444 2.884,1.86 11.722,4.292 23.896,-4.356 29.562,-14.104 3.39,-5.816 3.864,-12.464 2.606,-19.064 5.352,-1.57 10.632,-3.468 15.76,-5.494 3.162,-1.256 6.434,-2.206 9.706,-3.154 0.352,3.328 1.172,6.6 2.486,9.716 5.906,14.064 23.364,17.478 36.746,15.9 9.78,-1.162 17.832,-5.934 23.834,-12.612 1.922,2.174 4.51,3.972 7.982,5.134 11.53,3.892 22.324,0.988 31.386,-5.22 15.64,7.088 35.688,3.462 44.962,-12.972 5.074,-8.978 7.838,-22.21 1.48,-31.37 -8.226,-11.814 -21.494,-13.076 -34.842,-11.688 z"
             id="path12" />
          <g
             id="g36">
            <path
               fill="#ad6a2f"
               d="m 663.803,779.088 c 8.272,-19.15 16.452,-38.26 23.642,-57.794 -2.946,4.764 -5.814,9.582 -8.488,14.52 2.878,-25.624 -0.522,-52.85 -2.126,-78.364 -2.202,-34.772 -11.214,-70.352 -20.494,-103.804 -7.736,-27.944 -19.854,-55.412 -33.628,-80.872 -10.52,-19.494 -23.81,-38.98 -40.446,-54.17 5.286,9.024 10.674,17.984 16.074,26.938 0.062,0.126 0.13,0.24 0.204,0.358 8.108,13.438 16.078,26.92 23.252,40.866 15.936,31 27.176,64.148 35.33,98.024 7.874,32.632 13.454,65.822 16.11,99.326 1.116,14.134 1.832,27.39 0.24,40.214 0.62,5.518 1.24,11.004 1.912,16.512 0.062,0.338 0.222,0.566 0.434,0.792 -12.432,23.922 -22.12,49.326 -29.008,75.358 -5.252,19.902 -15.972,43.448 -16.266,64.128 -0.12,9.12 4.198,15.68 10.752,20.21 -0.444,-0.636 -0.898,-1.248 -1.338,-1.946 -9.29,-14.48 -3.966,-33.394 0.188,-48.604 6.69,-24.478 13.58,-48.36 23.656,-71.692 z"
               id="path14" />
            <path
               fill="#ad6a2f"
               d="m 706.301,854.156 c -5.654,-19.056 -23.89,-15.28 -36.764,-7.134 11.794,-4.764 27.002,-5.164 33.282,6.718 8.91,16.882 0.416,33.544 -11.332,46.65 6.146,-4.168 10.526,-7.746 14.07,-15.578 3.994,-8.776 3.44,-21.576 0.744,-30.656 z"
               id="path16" />
            <path
               fill="#ad6a2f"
               d="m 747.233,859.642 c -0.232,-3.696 -1.496,-7.08 -3.442,-9.99 0.058,-0.024 0.114,-0.048 0.17,-0.048 -1.318,-1.342 -2.684,-2.644 -3.936,-4.074 -2.47,-2.19 -5.336,-3.948 -8.524,-4.912 -9.74,-2.982 -18.182,3.72 -25.208,9.276 -0.872,0.69 -0.432,1.718 0.38,1.97 -0.012,-0.848 0.272,-1.688 0.944,-2.338 12.164,-11.356 35.502,-1.718 35.992,14.794 0.306,10.414 -3.108,21.81 -9.218,31.182 0.524,0.188 1.024,0.494 1.492,1.068 0.068,0.102 0.164,0.172 0.228,0.26 9.008,-9.186 11.846,-24.922 11.122,-37.188 z"
               id="path18" />
            <path
               fill="#ad6a2f"
               d="m 623.171,582.93 c 0.078,-0.188 -0.182,-0.384 -0.332,-0.188 -12.208,16.906 -8.026,44.954 -9.54,64.858 -2.27,29.73 -4.962,60.22 -9.256,89.76 -0.17,1.154 1.48,1.358 1.776,0.26 6.838,-25.452 8.42,-52.088 11.446,-78.2 2.96,-25.468 -2.492,-51.796 5.906,-76.49 z"
               id="path20" />
            <path
               fill="#ad6a2f"
               d="m 601.359,875.198 c -3.892,-5.518 -7.834,-8.272 -12.848,-12.566 -5.212,-4.482 1.65,-25.004 2.618,-30.718 4.46,-26.032 9.718,-52.066 13.084,-78.294 0.21,-1.742 -2.48,-2.652 -3.038,-0.88 -9.73,31.064 -14.304,63.256 -19.156,95.332 -1.082,7.142 -4.42,14.998 2.678,19.4 7.67,4.694 12.518,9.144 14.77,18.946 2.968,12.926 -3.698,44.42 -24.19,38.212 -0.398,-0.134 -0.774,0.368 -0.392,0.652 8.482,6.608 20.002,-2.448 25.368,-8.986 7.87,-9.572 8.216,-31.052 1.106,-41.098 z"
               id="path22" />
            <path
               fill="#ad6a2f"
               d="m 555.607,575.844 c -6.782,-18.058 -12.63,-36.658 -18.86,-54.922 -0.404,-1.15 -2.312,-0.682 -2.1,0.534 2.582,14.428 7.68,29.416 12.846,43.75 -5.256,-6.864 -10.616,-13.754 -16.226,-20.048 -1.45,-1.594 -4.37,-0.714 -4.068,1.672 3.124,24.338 0.176,49.248 0.608,73.868 -10.956,-13.154 -18.638,-30.094 -29.408,-43.282 -1.564,-1.912 -4.17,0.22 -2.998,2.268 9.604,16.576 20.112,36.91 33.662,50.586 1.872,1.888 4.568,-0.396 4.454,-2.524 -1.148,-24.66 0.456,-49.248 -1.204,-73.804 6.452,8.092 13.352,15.728 19.866,23.862 1.402,1.794 4.236,0.19 3.428,-1.96 z"
               id="path24" />
            <path
               fill="#ad6a2f"
               d="m 374.611,624.702 c -2.554,-1.942 -4.114,-4.528 -4.684,-7.714 -1.512,-3.366 -2.804,-6.824 -3.852,-10.376 -3.47,-10.262 -2.526,-20.64 -1.182,-31.11 2.468,-19.27 13.642,-30.8 24.27,-45.602 1.878,-2.622 0,-7.192 -3.642,-6.474 -16.184,3.254 -31.21,18.796 -39.58,33.622 -0.552,-15.998 11.038,-35.09 19.27,-46.242 0.422,-0.546 -0.362,-1.138 -0.83,-0.652 -12.732,13.044 -25.22,35.65 -22,54.812 0.428,2.492 3.374,2.616 4.564,0.652 5.922,-9.924 17.096,-23.372 29.144,-30.188 -9.676,15.258 -16.886,28.806 -18.95,48.948 -1.594,15.418 3.588,41.748 16.606,51.676 0.904,0.682 2.27,0.98 3.328,0.456 6.36,-2.998 4.078,-11.16 4.376,-17.164 0.866,-18.866 7.97,-35.058 16.8,-49.224 4.068,-6.546 -22.882,19.636 -23.638,54.58 z"
               id="path26" />
            <path
               fill="#ad6a2f"
               d="m 579.819,908.984 c 2.31,-5.43 2.644,-10.8 2.418,-16.286 -0.204,-1.608 -0.524,-3.154 -1.086,-4.584 -0.058,-0.062 -0.096,-0.126 -0.17,-0.172 -1.752,20.814 -11.24,43.59 -33.702,43.722 -26.96,0.164 -34.176,-33.23 -24.02,-53.988 -8.352,12.298 -9.546,28.584 -3.004,41.078 1.956,2.936 3.918,5.902 6.236,8.53 2.86,2.786 6.302,5.148 10.398,6.868 10.628,4.504 22.842,0.784 32.178,-6.75 3.09,-6.442 7.952,-11.928 10.752,-18.418 z"
               id="path28" />
            <path
               fill="#ad6a2f"
               d="m 460.983,856.558 c -4.176,-4.716 -17.318,-9.144 -20.042,-15.336 -2.954,-6.734 -4.648,-14.386 -6.144,-21.976 -4.286,-13.844 -8.472,-27.704 -12.808,-41.516 -14.056,-44.68 -27.272,-90.034 -38.048,-135.64 3.522,41.792 17.398,81.778 27.922,122.048 5.114,19.542 10.872,38.636 17.106,57.81 2.742,8.374 6.948,24.11 8.712,25.2 13.984,8.672 25.588,13.602 32.336,30.09 9.876,24.172 -7.964,48.376 -32.678,48.298 1.728,-2.456 3.316,-4.928 4.54,-7.204 3.954,-7.268 5.068,-15.884 3.6,-23.96 -1.212,-5.312 -3.232,-10.312 -6.912,-14.064 9.434,21.144 0.778,52.59 -24.612,55.448 -29.156,3.264 -38.584,-23.442 -32.486,-46.728 -7.612,11.944 -6.56,28.144 1.048,40.05 -4.5,1.702 -8.424,2.55 -14.024,-1.194 -3.134,-2.096 -5.832,-4.85 -8.096,-7.958 -8.572,-7.306 -11.834,-19.4 -8.414,-31 4.318,-14.716 15.326,-21.292 28.554,-21.778 -4.222,-0.934 -8.808,-0.376 -13.33,1.24 -2.52,1.036 -4.864,2.308 -6.712,3.626 -11.054,7.942 -15.982,17.808 -15.128,31.464 0.01,0.172 0.084,0.4 0.09,0.588 -2.452,-0.376 -4.756,-0.966 -7.118,-2.692 -6.286,-4.598 -8.426,-13.53 -8.482,-21.448 -0.974,-7.15 1.036,-14.786 5.928,-20.178 3.214,-3.516 7.908,-6.726 12.806,-7.166 3.044,-0.274 5.842,0.156 8.618,0.816 -33.146,-13.406 -38.572,30.876 -25.578,50.19 -13.358,9.654 -25.43,-5.604 -30.302,-17.416 -2.828,-6.844 -6.598,-17.642 -1.812,-24.714 0.534,-0.784 1.392,-1.546 2.354,-2.3 -7.618,0.534 -8.954,16.724 -8.006,20.664 1.536,6.506 3.88,13.546 7.846,19.048 3.784,5.25 8.234,9.042 13.364,11.372 2.202,-0.566 4.552,0.346 6.832,0.596 5.11,0.542 8.984,-0.424 13.082,-3.674 0.608,-0.47 1.24,-0.556 1.854,-0.44 0.672,-0.33 1.48,-0.362 2.264,0 2.31,1.052 4.786,1.632 6.906,3.084 0.666,0.47 1.184,1.256 1.606,2.12 0,0 0,0 0.012,0 0.028,0.046 0.044,0.078 0.066,0.118 0.08,0.204 0.16,0.338 0.228,0.534 7.02,16.324 27.128,37.31 40.086,23.254 5.154,4.906 11.812,8.24 19.668,8.742 10.24,0.644 19.634,-6.702 26.55,-15.046 4.596,2.23 9.08,3.068 13.324,2.88 15.93,-7.864 28.152,-19.88 27.036,-40.37 -0.714,-13.028 -4.868,-25.578 -13.606,-35.482 z"
               id="path30" />
            <path
               fill="#ad6a2f"
               d="m 348.685,767.684 c -12.566,-30.482 -21.988,-61.852 -32.48,-93.088 -10.394,-30.93 -22.586,-60.25 -23.438,-93.28 -0.898,-34.364 20.686,-67.224 34.226,-97.142 4.774,-10.536 5.358,-19.284 5.21,-18.784 -7.328,26.428 -42.09,68.958 -42.646,99.904 -0.558,30.848 5.002,64.906 14.828,93.614 11.992,34.996 21.788,70.586 35.852,104.852 13.084,31.88 25.072,67.268 42.68,96.894 0.654,1.09 2.184,0.04 1.832,-1.036 -10.422,-31.29 -23.51,-61.474 -36.064,-91.934 z"
               id="path32" />
            <path
               fill="#ad6a2f"
               d="m 522.837,755.85 c -0.558,21.104 -1,42.24 -1.492,63.366 2.856,-24.416 5.268,-48.8 5.724,-73.592 0.354,-18.82 0.548,-37.632 0.876,-56.452 0.284,-15.508 2.974,-30.788 2.93,-46.288 -6.47,37.372 -7.038,75.028 -8.038,112.966 z"
               id="path34" />
          </g>
          <path
             opacity="0.5"
             fill="#f2c37f"
             enable-background="new    "
             d="m 779.419,851.77 c -8.226,-11.812 -21.494,-13.076 -34.842,-11.686 -0.262,0.024 -0.432,0.126 -0.66,0.196 -2.106,-2.44 -4.688,-4.262 -7.584,-5.58 6.07,-11.364 11.77,-22.9 17.004,-34.586 -1.598,0.054 -3.192,0.11 -4.848,-0.024 -30.016,-2.606 -26.078,-44.876 -22.004,-65.108 5.598,-27.696 31.216,-112.598 -22.494,-108.674 -9.286,0.682 -33.34,2.948 -35.456,-11.592 -0.216,-1.424 -0.26,-2.834 -0.24,-4.258 -5.12,-26.888 -12.698,-53.356 -22.528,-79.354 -3.448,-9.162 -6.532,-18.886 -9.764,-28.618 -5.388,-11.042 -10.74,-22.1 -16.378,-33.002 -9.266,-18.032 -23.196,-31.59 -36.212,-46.506 -3.618,-3.316 -7.14,-6.706 -10.366,-10.444 -0.682,-0.382 -1.32,-0.786 -1.992,-1.168 -12.436,-16.334 -38.704,-6.418 -56.38,-3.486 -32.064,5.332 -64.396,6.372 -96.284,13.204 -15.236,3.282 -30.392,5.654 -45.844,7.406 -10.946,1.246 -25.498,9.434 -36.388,8.028 -3.482,-0.444 -5.132,3.8 -2.606,6.042 0.546,0.476 1.058,0.772 1.582,1.08 -0.456,26.216 -11.156,46.876 -25.124,69.164 -12.572,20.052 -21.264,38.394 -21.322,62.48 -0.024,14.85 3.46,30.632 7.606,46.05 -0.95,-0.286 -1.916,-0.592 -2.822,-0.832 -0.944,-0.294 -1.95,-0.444 -2.93,-0.66 -0.05,0.444 0.012,0.82 -0.034,1.264 -1.274,8.896 -8.738,15.654 -14.61,21.744 -14.108,14.614 -21.22,28.38 -15.576,49.404 8.568,31.966 30.55,56.28 44.096,85.876 6.9,15.076 9.036,37.46 -3.078,50.856 -2.166,2.402 -4.46,3.986 -6.82,5.18 6.774,5.918 13.546,11.734 20.446,17.376 -1.282,-0.078 -2.618,-0.032 -4.08,0.274 -3.722,0.762 -6.816,2.534 -9.434,4.812 0.08,2.3 -1.672,4.56 -4.334,3.484 -11.846,-4.85 -22.234,18.522 -21.578,26.614 0.812,10.242 6.496,21.026 14.512,27.634 7.562,6.262 16.034,8.924 23.788,-0.706 0.848,-1.036 1.672,-2.512 3.134,-2.818 4.926,-1.028 14.998,4.606 18.194,-0.596 0.678,-1.1 1.65,-1.546 2.64,-1.624 0.148,-0.456 0.318,-0.872 0.432,-1.35 2.264,1.35 4.716,2.378 7.374,2.998 0.576,1.836 1.252,3.618 2.082,5.36 5.884,12.486 18.224,23.238 32.644,21.198 4.052,-0.566 7.118,-2.434 9.422,-5.046 5.304,4.708 12.004,7.816 19.946,7.848 10.592,0.048 19.042,-4.984 24.924,-12.384 0.496,0.164 0.916,0.346 1.402,0.47 14.604,3.996 27.746,-1.546 35.654,-14.118 3.702,-5.846 5.244,-13.106 5.074,-20.61 0.728,0.102 1.48,0.228 2.276,0.47 1.092,0.29 2.39,0.542 3.702,0.682 0.042,3.264 0.41,6.38 1.23,9.096 3.372,11.458 8.784,21.944 21.22,25.036 7.004,1.726 13.12,1.264 18.11,-1.82 3.55,3.24 8.05,5.768 13.768,7.338 14.358,3.924 25.18,-0.738 32.956,-10.634 0.802,0.762 1.724,1.444 2.884,1.86 11.722,4.292 23.896,-4.356 29.562,-14.104 3.39,-5.816 3.864,-12.464 2.606,-19.064 5.352,-1.57 10.632,-3.468 15.76,-5.494 3.162,-1.256 6.434,-2.206 9.706,-3.154 0.352,3.328 1.172,6.6 2.486,9.716 5.906,14.064 23.364,17.478 36.746,15.9 9.78,-1.162 17.832,-5.934 23.834,-12.612 1.922,2.174 4.51,3.972 7.982,5.134 11.53,3.892 22.324,0.988 31.386,-5.22 15.64,7.088 35.688,3.462 44.962,-12.972 5.074,-8.978 7.84,-22.21 1.48,-31.37 z M 425.995,588.588 c 1.81,-16.1 11.856,-29.722 27.724,-33.692 1.084,-0.274 2.042,-0.046 2.77,0.444 0.284,-0.138 0.524,-0.33 0.83,-0.466 2.868,-1.248 7.266,1.766 4.83,4.936 -8.482,11.05 -14.252,20.084 -15.31,34.454 -1.206,15.932 1.952,30.608 8.01,45.3 1.416,3.414 -2.874,7.708 -5.65,4.254 -4.032,-5.008 -7.856,-9.866 -11.282,-14.754 -0.04,-0.058 -0.09,-0.07 -0.136,-0.102 -2.378,-2.622 -4.172,-5.666 -5.456,-8.948 -4.92,-9.216 -7.718,-19.174 -6.33,-31.426 z m -10.674,-28.912 c 0.764,-0.424 1.604,-0.424 2.418,-0.264 0.916,-0.35 1.862,-0.648 2.902,-0.922 2.248,-0.58 4.506,1.174 4.478,3.492 -0.078,7.66 -3.874,11.858 -8.02,17.262 -4.49,7.216 -8.314,14.688 -10.52,22.802 -0.114,0.526 -0.284,1.048 -0.392,1.582 -0.774,3.164 -1.318,6.408 -1.512,9.764 -0.534,8.704 0.984,17.442 -0.33,26.02 -0.41,2.746 -4.318,3.304 -5.984,1.514 -2.47,-2.652 -4.49,-5.54 -6.178,-8.532 -1.048,-0.572 -1.844,-1.616 -1.862,-3.018 l 0.018,-0.664 c -10.962,-24.356 0.93,-56.248 24.982,-69.036 z m 54.72,322.954 c -5.514,12.872 -19.23,16.678 -30.38,10.61 -2.71,11.02 -16.574,16.136 -26.9,17.604 -9.374,1.342 -28.332,1.938 -34.214,-7.896 -3.39,9.354 -11.726,16.128 -22.432,10.344 -8.608,-4.662 -6.45,-19.196 -2.624,-26.182 5.872,-10.706 16.516,-15.736 28.35,-16.85 0.46,-0.032 0.848,0.024 1.212,0.134 1.592,-1.044 3.008,-2.134 4.038,-3.336 8.102,-9.364 6.562,-18.38 3.63,-28.512 -2.656,-9.182 -4.87,-18.444 -7.152,-27.712 -2.02,-8.296 -4.194,-16.552 -6.344,-24.832 -12.226,-33.346 -25.4,-66.45 -36.364,-100.15 -14.576,-44.83 -42.93,-98.4 -12.596,-142.546 2.004,-2.904 6.554,-1.742 6.634,1.9 0.252,12.494 0.182,24.974 0.068,37.456 2.366,-2.546 4.894,-4.948 7.716,-7.158 0.034,-0.034 0.09,-0.034 0.136,-0.058 0.37,-0.726 0.776,-1.42 1.122,-2.182 1.24,-2.778 6.024,-1.954 6.514,0.942 4.358,26.378 3.88,53.846 13.824,78.866 2.902,-3.438 5.63,-7.024 8.488,-10.54 1.764,-2.182 5.274,-0.666 5.946,1.664 19.68,69.59 48.876,184.864 60.556,202.272 12.634,6.614 36.62,22.45 30.772,36.162 z m 13.802,-281.876 c -0.582,3.696 -5.262,2.978 -6.542,0.11 -0.332,-0.282 -0.626,-0.66 -0.866,-1.138 -7.63,-16.27 -8.364,-45.544 13.95,-50.586 7.588,-1.706 13.238,1.786 9.644,9.924 -6.162,13.892 -13.81,26.338 -16.186,41.69 z m 101.448,303.262 c -4.238,-1.366 -7.26,-3.798 -9.49,-6.844 -0.386,2.974 -1.438,6.052 -3.406,9.222 -8.062,13.012 -33.328,14.622 -45.014,5.958 -8.352,-6.224 -10.764,-14.488 -9.068,-22.398 -3.476,4.67 -8.084,8.61 -13.148,10.988 -8.044,3.806 -15.72,-0.126 -16.5,-9.222 -1.222,-14.244 8.386,-26.644 21.45,-31.37 4.17,-5.642 7.896,-11.434 8.982,-19.982 1.684,-13.28 4.392,-26.44 6.092,-39.744 3.414,-26.92 4.468,-53.862 5.89,-80.946 1.41,-26.636 4.202,-52.944 6.906,-79.456 1.836,-18.012 -1.304,-39.312 6.344,-56.012 0.976,-2.166 4.13,-2.118 5.622,-0.662 4.46,4.438 8.596,9.194 13.894,12.494 0.148,-0.954 0.432,-1.9 0.648,-2.868 -2.424,-19.18 -13.87,-36.526 -12.3,-56.46 0.262,-3.288 3.698,-4.45 6.122,-2.444 4.836,3.994 9,8.354 12.47,13.196 13.894,12.44 24.96,31.11 22.632,50.182 -3.3,27.092 -8.136,54.238 -12.284,81.244 -5.454,35.498 -18.216,151.966 -14.616,165.73 2.788,10.712 11.288,16.386 18.536,22.892 8.01,4.238 13.69,11.646 14.974,20.806 1.332,9.644 -3.766,19.212 -14.736,15.696 z m 118.768,-31.558 c -6.668,16.85 -39.596,18.286 -48.812,2.936 -7.612,-12.674 5.882,-27.162 19.61,-30.278 6.298,-3.484 13.22,-5.188 19.428,-1.106 9.318,6.144 13.962,17.822 9.774,28.448 z m 32.054,1.978 c -7.164,2.456 -15.782,-0.252 -21.506,-4.858 -6.058,-4.896 -10.206,-14.41 -3.652,-20.86 1.394,-1.39 3.014,-2.308 4.71,-2.936 0.466,-0.306 1,-0.556 1.66,-0.62 0.41,-0.048 0.832,-0.048 1.24,-0.086 0.44,-0.054 0.872,-0.078 1.302,-0.102 8.25,-0.392 18.274,1.468 21.808,9.786 2.994,7.072 2.97,16.74 -5.562,19.676 z m 31.198,-4.066 c -5.37,2.566 -12.692,1.382 -17.05,-2.692 -2.822,-2.654 -4.148,-6.578 -3.636,-10.07 -1.944,-2.958 -3.402,-6.122 -3.004,-9.88 0.272,-2.44 2.144,-3.846 4.564,-3.374 1.046,0.188 2.058,0.494 3.016,0.84 4.828,-0.832 11.196,1.138 14.744,3.492 4.108,2.762 7.146,6.482 7.374,11.654 0.182,4.356 -2.048,8.132 -6.008,10.03 z"
             id="path38" />
          <path
             opacity="0.5"
             fill="#f2c37f"
             enable-background="new    "
             d="m 603.657,907.972 c -7.85,12.918 -19.48,9.622 -27.376,1.17 -6.918,7.998 -17.34,13.484 -27.638,14.276 -12.254,0.98 -23.776,-5.8 -29.242,-15.642 -1.856,3.9 -4.534,7.236 -8.67,8.852 -10.754,4.222 -19.826,-2.622 -22.62,-12.98 -1.536,-5.738 -1.002,-13.076 1.15,-20.084 1.166,-5.518 3.846,-10.524 7.71,-14.598 3.032,-3.642 6.694,-6.334 10.86,-7.676 1,-0.432 2.004,-0.918 3.06,-1.272 1.2,-0.4 2.1,-0.07 2.81,0.486 0.188,0 0.364,0.024 0.548,0.048 8.692,-79.25 13.914,-158.816 16.498,-238.5 -11.914,-14.224 -24.226,-28.254 -33.01,-44.514 -5.57,12.188 -11.014,24.408 -18.434,35.604 -1.546,2.358 -4.63,2.138 -6.166,-0.066 -6.304,-9.218 -8.488,-20.094 -10.496,-30.984 -16.868,39.37 6.242,76.724 5.496,76.59 -25.232,-4.52 -45.4,-31.314 -51.652,-56.53 -6.476,15.17 -5.19,32.296 -8.108,48.486 -0.484,2.636 -4.318,3.39 -5.992,1.514 -16.532,-18.662 -19.052,-44.13 -14.882,-67.922 -2.452,3.378 -4.756,6.804 -6.394,10.512 -6.634,15.124 -3.498,31.268 1.228,46.438 8.028,25.782 14.268,52.182 21.04,78.286 6.906,26.566 14.304,52.96 21.516,79.44 4.052,14.864 6.544,30.106 11.242,44.64 1.156,0.77 2.344,1.53 3.408,2.338 13.376,3.564 32.708,15.14 32.036,30.2 3.924,8.218 4.208,16.92 -3.312,24.856 -7.532,7.872 -22.912,14.628 -30.976,9.034 -2.56,4.99 -6.156,9.37 -11.02,12.604 -12.022,8.036 -32.656,9.402 -41.548,-2.966 -4.1,6.278 -10.048,9.568 -18.842,5.47 -5.018,-2.354 -8.182,-6.772 -9.802,-11.842 -8.556,-4.67 -6.412,-19.174 -2.584,-26.126 5.872,-10.706 16.516,-15.736 28.35,-16.85 0.46,-0.032 0.848,0.024 1.212,0.134 1.592,-1.044 3.008,-2.134 4.038,-3.336 0.206,-0.228 0.33,-0.456 0.512,-0.684 -18.7,-36.658 -32.906,-76.378 -47.716,-114.622 -16.578,-42.82 -31.666,-86.104 -43.618,-130.43 -0.94,-0.298 -1.902,-0.582 -2.794,-0.82 -0.944,-0.294 -1.95,-0.444 -2.93,-0.66 -0.05,0.444 0.012,0.82 -0.034,1.264 -1.274,8.896 -8.738,15.654 -14.61,21.744 -14.108,14.614 -21.22,28.38 -15.576,49.404 8.568,31.966 30.55,56.28 44.096,85.876 6.9,15.076 9.036,37.46 -3.078,50.856 -2.166,2.402 -4.46,3.986 -6.82,5.18 6.774,5.918 13.546,11.734 20.446,17.376 -1.282,-0.078 -2.618,-0.032 -4.08,0.274 -3.722,0.762 -6.816,2.534 -9.434,4.812 0.08,2.3 -1.672,4.56 -4.334,3.484 -11.846,-4.85 -22.234,18.522 -21.578,26.614 0.812,10.242 6.496,21.026 14.512,27.634 7.562,6.262 16.034,8.924 23.788,-0.706 0.848,-1.036 1.672,-2.512 3.134,-2.818 4.926,-1.028 14.998,4.606 18.194,-0.596 0.678,-1.1 1.65,-1.546 2.64,-1.624 0.148,-0.456 0.318,-0.872 0.432,-1.35 2.264,1.35 4.716,2.378 7.374,2.998 0.576,1.836 1.252,3.618 2.082,5.36 5.884,12.486 18.224,23.238 32.644,21.198 4.052,-0.566 7.118,-2.434 9.422,-5.046 5.304,4.708 12.004,7.816 19.946,7.848 10.592,0.048 19.042,-4.984 24.924,-12.384 0.496,0.164 0.916,0.346 1.402,0.47 14.604,3.996 27.746,-1.546 35.654,-14.118 3.702,-5.846 5.244,-13.106 5.074,-20.61 0.728,0.102 1.48,0.228 2.276,0.47 1.092,0.29 2.39,0.542 3.702,0.682 0.042,3.264 0.41,6.38 1.23,9.096 3.372,11.458 8.784,21.944 21.22,25.036 7.004,1.726 13.12,1.264 18.11,-1.82 3.55,3.24 8.05,5.768 13.768,7.338 14.358,3.924 25.18,-0.738 32.956,-10.634 0.802,0.762 1.724,1.444 2.884,1.86 11.722,4.292 23.896,-4.356 29.562,-14.104 0.866,-1.514 1.53,-3.06 2.036,-4.646 -0.276,0.57 -0.508,1.134 -0.856,1.708 z"
             id="path40" />
          <path
             opacity="0.5"
             fill="#dcb790"
             enable-background="new    "
             d="m 603.657,907.972 c -7.85,12.918 -19.48,9.622 -27.376,1.17 -6.918,7.998 -17.34,13.484 -27.638,14.276 -12.254,0.98 -23.776,-5.8 -29.242,-15.642 -1.856,3.9 -4.534,7.236 -8.67,8.852 -10.754,4.222 -19.826,-2.622 -22.62,-12.98 -1.536,-5.738 -1.002,-13.076 1.15,-20.084 1.166,-5.518 3.846,-10.524 7.71,-14.598 3.032,-3.642 6.694,-6.334 10.86,-7.676 1,-0.432 2.004,-0.918 3.06,-1.272 1.2,-0.4 2.1,-0.07 2.81,0.486 0.188,0 0.364,0.024 0.548,0.048 8.692,-79.25 13.914,-158.816 16.498,-238.5 -11.914,-14.224 -24.226,-28.254 -33.01,-44.514 -5.57,12.188 -11.014,24.408 -18.434,35.604 -1.546,2.358 -4.63,2.138 -6.166,-0.066 -6.304,-9.218 -8.488,-20.094 -10.496,-30.984 -16.868,39.37 6.242,76.724 5.496,76.59 -25.232,-4.52 -45.4,-31.314 -51.652,-56.53 -6.476,15.17 -5.19,32.296 -8.108,48.486 -0.484,2.636 -4.318,3.39 -5.992,1.514 -16.532,-18.662 -19.052,-44.13 -14.882,-67.922 -2.452,3.378 -4.756,6.804 -6.394,10.512 -6.634,15.124 -3.498,31.268 1.228,46.438 8.028,25.782 14.268,52.182 21.04,78.286 6.906,26.566 14.304,52.96 21.516,79.44 4.052,14.864 6.544,30.106 11.242,44.64 1.156,0.77 2.344,1.53 3.408,2.338 13.376,3.564 32.708,15.14 32.036,30.2 3.924,8.218 4.208,16.92 -3.312,24.856 -7.532,7.872 -22.912,14.628 -30.976,9.034 -2.56,4.99 -6.156,9.37 -11.02,12.604 -12.022,8.036 -32.656,9.402 -41.548,-2.966 -4.1,6.278 -10.048,9.568 -18.842,5.47 -5.018,-2.354 -8.182,-6.772 -9.802,-11.842 -8.556,-4.67 -6.412,-19.174 -2.584,-26.126 5.872,-10.706 16.516,-15.736 28.35,-16.85 0.46,-0.032 0.848,0.024 1.212,0.134 1.592,-1.044 3.008,-2.134 4.038,-3.336 0.206,-0.228 0.33,-0.456 0.512,-0.684 -18.7,-36.658 -32.906,-76.378 -47.716,-114.622 -16.578,-42.804 -31.66,-86.08 -43.596,-130.406 -20.588,20.32 -0.454,68.296 8.034,89.65 10.57,26.534 62.786,135.288 38.1,143.348 13.706,-1.798 16.768,6.946 14.178,12.754 -2.554,5.738 -8.278,9.874 -13.92,12.228 -4.342,1.82 -10.514,3.21 -14.946,0.762 -3.744,3.516 -8.21,5.728 -14.228,4.944 -5.552,-0.73 -9.74,-2.998 -13.018,-6.24 -1.626,10.674 -11.554,19.394 -22.528,18.232 2.516,6.686 6.766,12.95 12.094,17.336 7.562,6.262 16.034,8.924 23.788,-0.706 0.848,-1.036 1.672,-2.512 3.134,-2.818 4.926,-1.028 14.998,4.606 18.194,-0.596 0.678,-1.1 1.65,-1.546 2.64,-1.624 0.148,-0.456 0.318,-0.872 0.432,-1.35 2.264,1.35 4.716,2.378 7.374,2.998 0.576,1.836 1.252,3.618 2.082,5.36 5.884,12.486 18.224,23.238 32.644,21.198 4.052,-0.566 7.118,-2.434 9.422,-5.046 5.304,4.708 12.004,7.816 19.946,7.848 10.592,0.048 19.042,-4.984 24.924,-12.384 0.496,0.164 0.916,0.346 1.402,0.47 14.604,3.996 27.746,-1.546 35.654,-14.118 3.702,-5.846 5.244,-13.106 5.074,-20.61 0.728,0.102 1.48,0.228 2.276,0.47 1.092,0.29 2.39,0.542 3.702,0.682 0.042,3.264 0.41,6.38 1.23,9.096 3.372,11.458 8.784,21.944 21.22,25.036 7.004,1.726 13.12,1.264 18.11,-1.82 3.55,3.24 8.05,5.768 13.768,7.338 14.358,3.924 25.18,-0.738 32.956,-10.634 0.802,0.762 1.724,1.444 2.884,1.86 11.722,4.292 23.896,-4.356 29.562,-14.104 0.866,-1.514 1.53,-3.06 2.036,-4.646 -0.278,0.57 -0.51,1.134 -0.858,1.708 z"
             id="path42" />
          <path
             opacity="0.7"
             fill="#f2c37f"
             enable-background="new    "
             d="m 335.139,443.642 c -0.364,20.758 -7.196,38.042 -16.936,55.406 4.494,-1.09 9.086,-1.444 13.51,-0.542 14.798,3.038 25.432,12.934 38.658,19.444 25.436,12.49 52.306,4.94 72.6,-13.338 9.466,-8.52 20.482,-18.148 34.154,-17.736 24.286,0.686 46.986,6.918 70.642,-2.622 24.794,-9.97 39.682,-25.912 49.878,-45.312 -4.682,-5.324 -9.506,-10.548 -14.23,-15.966 -3.618,-3.316 -7.14,-6.706 -10.366,-10.444 -0.682,-0.382 -1.32,-0.786 -1.992,-1.168 -12.436,-16.334 -38.704,-6.418 -56.38,-3.486 -32.064,5.332 -64.396,6.372 -96.284,13.204 -15.236,3.282 -30.392,5.654 -45.844,7.406 -10.946,1.246 -25.498,9.434 -36.388,8.028 -3.482,-0.444 -5.132,3.8 -2.606,6.042 0.548,0.48 1.06,0.776 1.584,1.084 z"
             id="path44" />
          <path
             opacity="0.7"
             fill="#f2c37f"
             enable-background="new    "
             d="m 335.139,443.642 c -0.21,11.77 -2.536,22.382 -6.242,32.542 1.258,0.11 2.492,0.278 3.692,0.592 15.122,3.818 28.27,13.28 43.426,17.54 19.782,5.564 38.782,6.066 58.472,-0.498 12.408,-4.128 23.696,-9.544 36.894,-10.67 34.238,-2.932 63.828,-5.184 90.872,-28.914 9.32,-8.176 17.622,-17.21 25.028,-26.91 -1.282,-1.452 -2.584,-2.868 -3.87,-4.348 -3.618,-3.316 -7.14,-6.706 -10.366,-10.444 -0.682,-0.382 -1.32,-0.786 -1.992,-1.168 -12.436,-16.334 -38.704,-6.418 -56.38,-3.486 -32.064,5.332 -64.396,6.372 -96.284,13.204 -15.236,3.282 -30.392,5.654 -45.844,7.406 -10.946,1.246 -25.498,9.434 -36.388,8.028 -3.482,-0.444 -5.132,3.8 -2.606,6.042 0.552,0.48 1.064,0.776 1.588,1.084 z"
             id="path46" />
          <path
             opacity="0.5"
             fill="#f2c37f"
             enable-background="new    "
             d="m 741.609,881.39 c -2.844,4.3 -6.486,7.99 -11.116,10.484 -6.792,3.666 -16.772,5.958 -24.304,3.006 -3.608,-1.39 -5.616,-3.72 -6.912,-6.6 -6.594,9.654 -17.004,15.154 -32.708,11.018 -16.908,-4.466 -18.24,-17.886 -13.388,-32.224 0.08,-1.624 0.318,-3.264 0.884,-4.85 0.914,-8.248 4.926,-16.7 7.976,-25.68 9.422,-27.806 20.344,-55.016 31.506,-82.14 7.942,-19.4 29.748,-53.76 14.746,-74.166 -9.058,-12.322 -21.802,8.138 -29.278,-7.314 -1.154,-2.402 -2.178,-4.914 -3.094,-7.48 -1.354,5.604 -3.414,10.822 -6.69,15.076 -6.678,8.648 -18.052,2.276 -22.438,-5.494 -6.236,-11.05 -7.676,-23.45 -9.922,-35.724 -3.072,-16.83 -9.062,-33.23 -14.218,-49.522 -10.354,15.484 -7.46,41.952 -8.436,58.744 -1.524,26.166 -4.154,52.034 -8.784,77.808 -4.888,27.232 -10.8,54.238 -16.17,81.354 -4.052,20.374 -9.694,39.21 -3.214,56.962 7.958,7.064 17.062,16.716 19.792,26.942 5.11,-1.514 10.116,-3.336 14.998,-5.242 3.162,-1.256 6.434,-2.206 9.706,-3.154 0.352,3.328 1.172,6.6 2.486,9.716 5.906,14.064 23.364,17.478 36.746,15.9 9.78,-1.162 17.832,-5.934 23.834,-12.612 1.922,2.174 4.51,3.972 7.982,5.134 11.53,3.892 22.324,0.988 31.386,-5.22 15.64,7.088 35.688,3.462 44.962,-12.972 0.158,-0.298 0.306,-0.612 0.456,-0.91 -10.688,10.594 -29.78,12.32 -36.788,-0.84 z"
             id="path48" />
          <path
             opacity="0.5"
             fill="#dcb790"
             enable-background="new    "
             d="m 640.989,850.412 c 10.416,-36.282 23.98,-71.41 35.99,-107.128 0.262,-0.8 0.728,-1.302 1.264,-1.704 -0.228,-7.966 -0.53,-15.916 -1.076,-23.874 -0.904,-13.562 -4.592,-26.786 -5.968,-40.206 -0.596,1.044 -1.228,2.056 -1.968,3.022 -6.678,8.648 -18.052,2.276 -22.438,-5.494 -6.236,-11.05 -7.676,-23.45 -9.922,-35.724 -3.072,-16.83 -9.062,-33.23 -14.218,-49.522 -10.354,15.484 -7.46,41.952 -8.436,58.744 -1.524,26.166 -4.154,52.034 -8.784,77.808 -4.888,27.232 -10.8,54.238 -16.17,81.354 -4.052,20.374 -9.694,39.21 -3.214,56.962 7.958,7.064 17.062,16.716 19.792,26.942 5.11,-1.514 10.116,-3.336 14.998,-5.242 3.162,-1.256 6.434,-2.206 9.706,-3.154 0.352,3.328 1.172,6.6 2.486,9.716 0.124,0.322 0.33,0.556 0.46,0.848 0.182,-14.568 3.482,-29.338 7.498,-43.348 z"
             id="path50" />
        </g>
        <g
           id="g108">
          <path
             fill="#ad6a2f"
             d="m 404.081,94.62 c 0.534,-0.74 1.126,-1.456 1.644,-2.196 7.206,-10.326 14.622,-23.542 16.458,-36.08 C 425.687,32.188 410.257,4.602 384.509,0.8 c -29.152,-4.292 -55.156,9.3 -78.182,25.988 -15.496,11.236 -26.808,26.846 -40.018,40.486 -11.486,11.844 -22.58,25.286 -31.16,39.374 -18.08,29.76 -34.356,61.096 -43.294,94.89 -6.166,23.318 -8.108,46.832 21.956,45.638 16.112,-0.654 32.95,-10.536 47.186,-17.068 17.364,-7.976 34.846,-16.412 51.356,-25.982 30.114,-17.448 57.58,-49.566 77.174,-77.812 1.566,-2.294 0.838,-5.014 -0.806,-6.72 1.262,-1.81 2.456,-3.576 3.526,-5.188 3.948,-6.062 8.066,-12.786 11.834,-19.786 z"
             id="path54" />
          <path
             opacity="0.2"
             fill="#ad6a2f"
             enable-background="new    "
             d="m 422.183,56.344 c 1.974,-13.66 -2.116,-28.43 -10.702,-39.358 -0.126,1.422 -0.342,2.914 -0.74,4.49 -4.352,17.978 -19.246,31.888 -32.504,43.84 -20.902,18.866 -39.21,39.79 -57.306,61.36 -22.33,26.636 -42.59,56.322 -69.26,78.908 -14.108,11.932 -35.052,32.196 -55.686,26.83 -3.066,-0.808 -5.49,-2.066 -7.604,-3.54 1.25,11.218 7.85,19.008 25.43,18.302 16.112,-0.654 32.95,-10.536 47.186,-17.068 17.364,-7.976 34.846,-16.412 51.356,-25.982 30.114,-17.448 57.58,-49.566 77.174,-77.812 1.566,-2.294 0.838,-5.014 -0.806,-6.72 1.262,-1.81 2.456,-3.576 3.526,-5.188 3.95,-6.064 8.068,-12.788 11.836,-19.788 0.534,-0.74 1.126,-1.456 1.644,-2.196 7.204,-10.322 14.62,-23.54 16.456,-36.078 z"
             id="path56" />
          <path
             opacity="0.3"
             fill="#ad6a2f"
             enable-background="new    "
             d="m 422.183,56.344 c 1.114,-7.778 0.228,-15.878 -2.282,-23.44 -5.398,17.922 -23.628,39.836 -43.068,59.662 -1.018,1.236 -2.042,2.492 -3.088,3.71 -18.296,21.476 -34.46,44.672 -52.01,66.734 -25.83,32.458 -58.508,69.056 -100.454,80.002 -7.322,1.922 -14.148,2.668 -20.554,2.492 3.48,1.21 7.714,1.872 13.086,1.672 16.112,-0.654 32.95,-10.536 47.186,-17.068 17.364,-7.976 34.846,-16.412 51.356,-25.982 30.114,-17.448 57.58,-49.566 77.174,-77.812 1.566,-2.294 0.838,-5.014 -0.806,-6.72 1.262,-1.81 2.456,-3.576 3.526,-5.188 3.95,-6.064 8.068,-12.788 11.836,-19.788 0.534,-0.74 1.126,-1.456 1.644,-2.196 7.202,-10.322 14.618,-23.54 16.454,-36.078 z"
             id="path58" />
          <path
             fill="#f2c37f"
             d="m 649.927,315.862 c 1.518,-9.032 2.644,-18.146 3.492,-27.262 1.94,-21.288 8.652,-43.18 8.284,-64.56 -0.518,-29.948 -0.102,-59.97 -5.924,-89.376 C 650.363,107.202 638.235,89.65 618.897,69.966 610.643,61.562 600.447,55.476 590.889,48.62 578.101,39.46 565.845,37.264 551.031,33.736 466.227,13.562 455.651,23.342 417.175,54.08 c -42.646,34.046 -75.768,82.324 -100.942,130.254 -14.15,26.95 -26.814,55.406 -37.094,84.082 -14.934,41.74 -28.194,90.69 1.896,129.064 12.522,15.968 21.92,27.774 39.95,37.544 8.716,4.714 17.714,8.386 26.886,10.314 5.178,10.764 14.422,18.984 25.078,24.28 16.692,8.326 33.498,9.12 49.38,4.56 19.146,12.16 45.55,16.466 66.768,16.56 37.458,0.188 74.118,-22.69 101.15,-46.636 32.148,-28.474 46.014,-68.218 55.9,-109.642 1.47,-6.15 2.706,-12.362 3.78,-18.598 z"
             id="path60" />
          <path
             opacity="0.5"
             fill="#f2c37f"
             enable-background="new    "
             d="m 646.149,334.46 c 1.468,-6.15 2.704,-12.362 3.78,-18.598 1.518,-9.032 2.644,-18.146 3.492,-27.262 1.94,-21.288 8.652,-43.18 8.284,-64.56 -0.518,-29.948 -0.102,-59.97 -5.924,-89.376 C 650.365,107.202 638.237,89.65 618.899,69.966 610.645,61.562 600.449,55.476 590.891,48.62 578.103,39.46 565.847,37.264 551.033,33.736 495.927,20.642 472.181,20.196 451.743,29.89 c 0.854,-0.136 1.7,-0.324 2.56,-0.432 26.558,-3.544 41.692,13.624 33.76,38.584 -12.59,39.664 -42.964,72.094 -53.308,112.902 -9.296,36.69 0.968,77.902 17.34,111.196 14.076,28.554 41.838,48.818 54.554,78.316 17.652,40.946 -19.554,66.568 -59.73,57.66 -31.07,-6.908 -62,-27.206 -69,-60.38 -2.276,-10.746 -2.48,-21.426 -1.456,-32.036 -9.688,25.29 -24.408,48.068 -48.448,49.712 -13.438,0.928 -27.2,-5.332 -33.556,-17.802 -8.876,-17.416 -5.178,-34.732 -1.126,-53.12 13.21,-59.782 32.45,-119.59 62.262,-173.274 18.568,-33.43 41.474,-74.142 74.836,-96.808 -0.73,0.33 -1.52,0.598 -2.23,0.934 -3.47,2.696 -7.078,5.598 -11.026,8.738 -42.646,34.046 -75.768,82.324 -100.942,130.254 -14.15,26.95 -26.814,55.406 -37.094,84.082 -14.934,41.74 -28.194,90.69 1.896,129.064 12.522,15.968 21.92,27.774 39.95,37.544 8.716,4.714 17.714,8.386 26.886,10.314 5.178,10.764 14.422,18.984 25.078,24.28 16.692,8.326 33.498,9.12 49.38,4.56 19.146,12.16 45.55,16.466 66.768,16.56 37.458,0.188 74.118,-22.69 101.15,-46.636 32.15,-28.474 46.016,-68.22 55.902,-109.642 z"
             id="path62" />
          <path
             fill="#f2c37f"
             d="m 384.031,437.542 c 23.86,12.472 50.914,2.65 75.422,-4.164 -15.888,-0.718 -31.294,-6.906 -43.948,-17.728 -0.024,-0.03 -0.04,-0.046 -0.062,-0.058 -1.216,0.756 -2.81,0.87 -4.164,-0.434 -13.376,-12.864 -26.348,-28.252 -32.618,-46.038 -4.364,-12.34 -4.858,-22.938 -3.34,-33.798 -2.872,7.526 -5.82,15.058 -9.564,22.154 -6.872,12.858 -16.932,28.754 -32.816,31.48 -3.794,0.636 -7.238,0.692 -10.416,0.33 -2.384,0.284 -4.786,0.272 -7.288,-0.392 5.82,6.4 12.522,12.208 20.116,17.562 8.46,5.95 15.908,12.75 23.474,19.832 6.906,6.44 13.336,10.218 20.492,12.654 0.89,-1.478 2.732,-2.44 4.712,-1.4 z"
             id="path64" />
          <path
             opacity="0.5"
             fill="#f2c37f"
             enable-background="new    "
             d="m 351.215,445.212 c -2.89,-5.206 -5.508,-10.696 -8.146,-16.17 -29.248,-2.468 -53.136,-21.966 -67.9,-50.928 -7.272,-14.262 -10.896,-28.656 -11.986,-43.136 -1.288,21.994 2.98,43.528 17.852,62.502 12.522,15.968 21.92,27.774 39.95,37.544 8.716,4.714 17.714,8.386 26.886,10.314 1.798,3.75 4.234,7.06 6.906,10.166 -1.376,-3.356 -2.576,-6.812 -3.562,-10.292 z"
             id="path66" />
          <path
             opacity="0.5"
             fill="#f2c37f"
             enable-background="new    "
             d="m 646.149,334.46 c 1.468,-6.15 2.704,-12.362 3.78,-18.598 1.518,-9.032 2.644,-18.146 3.492,-27.262 1.94,-21.288 8.652,-43.18 8.284,-64.56 -0.518,-29.948 -0.102,-59.97 -5.924,-89.376 -5.416,-27.462 -17.544,-45.014 -36.882,-64.698 -8.254,-8.404 -18.45,-14.49 -28.008,-21.346 -5.648,-4.04 -11.208,-6.69 -16.918,-8.728 -150.674,93.666 -137.924,209.84 -87.124,270.52 27.35,32.686 82.414,44.798 77.748,95.846 -2.008,22 -14.894,41.832 -33.514,53.81 -29.568,19.032 -67.338,20.136 -97.058,3.954 -3.022,3.942 -6.93,7.442 -11.372,10.346 19.11,12 45.344,16.278 66.45,16.372 37.458,0.188 74.118,-22.69 101.15,-46.636 32.144,-28.476 46.01,-68.222 55.896,-109.644 z"
             id="path68" />
          <path
             fill="#ad6a2f"
             d="m 577.829,41.542 c -31.44,8.784 -59.714,37.304 -76.496,62.426 -26.142,39.096 -50.464,92.41 -39.278,140.54 9.62,41.332 39.87,74.798 78.772,91.386 38.162,16.304 76.712,12.09 107.69,-13.104 0.44,-2.31 1.008,-4.596 1.412,-6.93 1.518,-9.032 2.644,-18.146 3.492,-27.262 1.94,-21.288 8.652,-43.18 8.284,-64.56 -0.518,-29.948 -0.102,-59.97 -5.924,-89.376 -5.416,-27.462 -17.544,-45.014 -36.882,-64.698 -8.254,-8.404 -18.45,-14.49 -28.008,-21.346 -4.354,-3.096 -8.684,-5.312 -13.062,-7.076 z"
             id="path70" />
          <path
             opacity="0.2"
             fill="#ad6a2f"
             enable-background="new    "
             d="m 649.927,315.862 c 1.518,-9.032 2.644,-18.146 3.492,-27.262 1.94,-21.288 8.652,-43.18 8.284,-64.56 -0.518,-29.948 -0.102,-59.97 -5.924,-89.376 -5.416,-27.462 -17.544,-45.014 -36.882,-64.698 -8.254,-8.404 -18.45,-14.49 -28.008,-21.346 -4.352,-3.096 -8.682,-5.314 -13.062,-7.078 -6.292,1.764 -12.438,4.334 -18.406,7.488 12.956,-1.514 26.014,0.886 37.898,9.772 23.49,17.524 33.4,43.894 37.508,72.208 6.07,41.746 0.358,81.72 -8.09,122.676 -5.986,28.988 -17.826,57.04 -49.218,65.45 -60.396,16.174 -109.652,-46.556 -113.574,-101.594 -0.98,-13.846 -0.16,-27.626 2.082,-41.172 -6.672,22.552 -9.146,45.888 -3.974,68.138 9.62,41.332 39.87,74.798 78.772,91.386 38.162,16.304 76.712,12.09 107.69,-13.104 0.44,-2.308 1.008,-4.596 1.412,-6.928 z"
             id="path72" />
          <path
             fill="#815020"
             d="m 425.381,78.646 c -10.206,-0.46 -17.376,6.658 -24.782,12.562 -0.808,0.65 -0.012,1.866 0.91,1.514 6.458,-2.414 12.118,-5.848 19.07,-6.884 6.766,-0.98 6.088,11.542 8.314,15.606 1.86,3.346 6.206,2.48 7.026,-1.1 1.442,-6.104 -2.322,-21.288 -10.538,-21.698 z"
             id="path74" />
          <path
             fill="#815020"
             d="m 565.983,108.43 c -6.316,-6.828 -15.918,-4.052 -22.052,1.306 -2.618,2.27 -0.934,7.38 2.854,6.504 6.202,-1.422 11.64,-5.496 16.83,0.33 3.828,4.306 5.948,10.354 8.476,15.418 0.552,1.126 2.178,0.614 2.06,-0.626 -0.68,-7.772 -2.716,-17.022 -8.168,-22.932 z"
             id="path76" />
          <g
             id="g82">
            <path
               fill="#221f1f"
               d="m 568.213,179.976 c 0.104,-4.568 0.182,-9.358 -1.388,-13.698 -1.674,-4.608 -6.48,-6.816 -11.084,-4.854 -9.09,3.894 -13.028,20.136 -13.984,28.566 -1.108,9.452 5.052,26.358 17.068,16.63 6.708,-5.418 9.184,-18.554 9.388,-26.644 z"
               id="path78" />
            <path
               fill="#ffffff"
               d="m 564.935,175.48 c -0.272,-1.86 -0.762,-4.534 -2.554,-5.626 -1.878,-1.156 -4.648,-1.582 -6.104,0.596 -1.332,2.004 -1.582,4.42 -1.354,6.862 -0.24,2.84 0.59,5.9 2.354,7.35 1.934,1.61 4.7,1.2 6.19,-0.802 1.436,-1.91 1.798,-6.104 1.468,-8.38 z"
               id="path80" />
          </g>
          <g
             id="g88">
            <path
               fill="#221f1f"
               d="m 412.761,145.288 c 0.114,-4.552 0.2,-9.336 -1.398,-13.694 -1.672,-4.62 -6.48,-6.822 -11.048,-4.854 -9.102,3.88 -13.028,20.14 -14.006,28.554 -1.094,9.468 5.052,26.37 17.068,16.642 6.7,-5.41 9.18,-18.546 9.384,-26.648 z"
               id="path84" />
            <path
               fill="#ffffff"
               d="m 407.869,138.99 c -0.228,-1.62 -0.676,-3.942 -2.218,-4.888 -1.638,-1.006 -4.034,-1.364 -5.292,0.518 -1.16,1.742 -1.366,3.842 -1.184,5.946 -0.182,2.464 0.524,5.126 2.048,6.378 1.678,1.398 4.086,1.04 5.37,-0.694 1.242,-1.656 1.538,-5.274 1.276,-7.26 z"
               id="path86" />
          </g>
          <path
             fill="#e55c53"
             d="m 421.311,422.25 c 0.176,-1.848 -1.07,-3.346 -2.622,-3.914 -2.868,-4.744 -11.402,-7.414 -16.942,-12.078 -10.628,-8.938 -17.262,-18.91 -23.804,-31.064 -2.584,-4.796 -4.006,-11.86 -9.25,-14.416 -1.798,-0.882 -3.932,0.016 -5.11,1.438 -6.576,7.864 -13.62,15.124 -19.628,23.412 -0.768,1.042 -0.762,2.294 -0.306,3.364 -0.126,0.364 -0.154,0.752 0.114,1.132 9.62,13.294 14.496,30.032 19.126,45.61 3.032,10.208 5.848,18.162 16.466,21.716 18.65,6.252 40.312,-18.928 41.956,-35.2 z"
             id="path90" />
          <path
             opacity="0.5"
             fill="#e55c53"
             enable-background="new    "
             d="m 421.311,422.25 c 0.176,-1.848 -1.07,-3.346 -2.622,-3.914 -2.868,-4.744 -11.402,-7.414 -16.942,-12.078 -2.596,-2.178 -4.95,-4.432 -7.124,-6.774 -6.292,3.252 -12.162,7.218 -16.998,12.202 -4.454,4.552 -11.572,14.684 -14.574,24.54 2.968,9.962 5.852,17.728 16.304,21.226 18.65,6.25 40.312,-18.93 41.956,-35.202 z"
             id="path92" />
          <path
             fill="#815020"
             d="m 502.287,426.232 c -19.162,5.814 -47.916,3.366 -66.24,-1.718 -20.838,-5.758 -43.016,-23.65 -54.046,-42.162 -9.108,-15.31 -4.592,-35.164 -0.608,-50.632 5.798,-15.146 8.988,-25.852 13.682,-36.064 2.09,-4.528 -6.752,-6.224 -7.936,-1.98 -8.248,29.618 -14.098,63.15 -38.788,86.236 -10.194,9.536 -23.95,11.668 -32.564,6.78 -13.058,-1.74 -20.834,-20.36 -23.282,-34.008 -3.492,-19.44 6.942,-40.086 19.696,-55.004 -35.626,15.02 -34.216,86.214 3.562,97.604 21.846,6.604 39.824,-7.772 53.142,-28.242 11.954,65.82 137.338,103.604 175.216,28.02 0.596,-1.212 -20.284,24.628 -41.834,31.17 z"
             id="path94" />
          <path
             fill="#3b3b3c"
             d="m 418.565,268.642 c -13.482,-6.384 -58.912,-24.01 -64.004,2.046 -2.196,11.21 3.846,22.672 11.426,30.602 11.036,11.51 30.276,17.45 45.672,14.412 12.71,-2.52 30.836,-13.176 24.816,-28.662 -2.68,-6.842 -11.346,-15.282 -17.91,-18.398 z"
             id="path96" />
          <path
             fill="#525354"
             d="m 402.817,284.754 c 0.866,-0.078 1.716,-0.204 2.526,-0.392 3.618,-0.79 7.238,-3.27 7.574,-6.45 0.482,-4.58 -3.614,-9.336 -8.074,-12.334 -4.914,-3.306 -10.548,-5.468 -16.51,-6.618 -5.302,-1.028 -11.132,-2.184 -16.368,-1.49 -2.474,0.33 -5.29,1.09 -7.276,2.258 -10.254,6.042 3.788,15.946 11.656,19.542 3.306,1.512 7.458,3.208 11.088,3.846 4.704,0.828 10.502,2.014 15.384,1.638 z"
             id="path98" />
          <path
             fill="#292728"
             d="m 436.475,287.04 c -2.68,-6.844 -11.344,-15.282 -17.91,-18.398 -0.052,-0.006 -0.096,-0.036 -0.138,-0.052 1.252,1.594 2.368,3.262 3.272,4.956 8.71,16.014 -2.326,32.274 -20.476,32.86 -19.862,0.67 -41.304,-7.772 -46.902,-27.882 0.98,8.518 5.848,16.688 11.664,22.768 11.036,11.51 30.276,17.45 45.672,14.412 12.712,-2.52 30.836,-13.176 24.818,-28.664 z"
             id="path100" />
          <path
             fill="#f2c37f"
             d="m 756.185,271.138 c 1.172,-18.734 2.088,-37.474 2.548,-56.248 0.802,-32.512 5.786,-69.744 -4.672,-100.956 -7.958,-23.746 -28.44,-43.46 -53.414,-48.21 -14.214,-2.708 -27.99,0.772 -39.814,8.864 -8.682,5.946 -14.912,13.42 -19.274,21.852 -1.308,5.166 -2.064,10.696 -1.986,16.64 0.29,21.796 1.94,44.142 4.842,65.73 3.334,25.076 8.818,50.196 16.994,74.304 6.742,16.18 13.382,32.516 21.078,48.284 0.028,0.054 0.068,0.138 0.09,0.194 0,0 0,0 0.012,0 5.4,11.084 11.326,21.892 18.182,32.144 14.406,21.488 37.504,4.932 45.788,-11.662 7.44,-14.94 8.614,-34.716 9.626,-50.936 z"
             id="path102" />
          <path
             opacity="0.5"
             fill="#f2c37f"
             enable-background="new    "
             d="m 703.975,313.324 c -14.468,-37.61 -20.504,-80.474 -27.054,-119.922 -3.686,-22.13 -7.338,-44.614 -7.84,-67.086 -0.318,-15.094 -0.444,-34.05 8.238,-47.248 4.528,-6.918 10.07,-11.414 16.516,-14.114 -11.782,-0.632 -23.07,2.844 -33.004,9.638 -8.682,5.946 -14.912,13.42 -19.274,21.852 -1.308,5.166 -2.064,10.696 -1.986,16.64 0.29,21.796 1.94,44.142 4.842,65.73 3.334,25.076 8.818,50.196 16.994,74.304 6.742,16.18 13.382,32.516 21.078,48.284 0.028,0.054 0.068,0.138 0.09,0.194 0,0 0,0 0.012,0 5.4,11.084 11.326,21.892 18.182,32.144 8.098,12.072 18.934,12.142 28.368,6.93 -10.912,-1.948 -19.616,-12.978 -25.162,-27.346 z"
             id="path104" />
          <path
             opacity="0.5"
             fill="#de9e55"
             enable-background="new    "
             d="m 709.401,339.95 c -11.612,-9.354 -16.362,-21.264 -21.334,-35.112 -8.04,-22.438 -15.396,-44.924 -20.134,-68.322 -7.488,-36.96 -34.454,-138.98 7.23,-168.974 -4.99,1.656 -9.83,3.936 -14.33,7.05 -8.682,5.946 -14.912,13.42 -19.274,21.852 -1.308,5.166 -2.064,10.696 -1.986,16.64 0.29,21.796 1.94,44.142 4.842,65.73 3.334,25.076 8.818,50.196 16.994,74.304 6.742,16.18 13.382,32.516 21.078,48.284 0.028,0.054 0.068,0.138 0.09,0.194 0,0 0,0 0.012,0 5.4,11.084 11.326,21.892 18.182,32.144 4.198,6.254 9.126,9.24 14.224,9.98 -1.9,-1.062 -3.754,-2.29 -5.594,-3.77 z"
             id="path106" />
        </g>
      </g>
      <path
         fill="#bab9b9"
         d="m 696.083,414.11 c 0,0 -8.278,34.368 12.902,45.996 0,0 -15.206,-14.08 -12.902,-45.996 z"
         id="path112" />
      <path
         fill="#bab9b9"
         d="m 683.795,409.768 c 0,0 -10.788,44.74 16.79,59.866 -0.002,0 -19.806,-18.334 -16.79,-59.866 z"
         id="path114" />
      <path
         fill="#bab9b9"
         d="m 915.789,521.796 c 0,0 18.648,28.104 3.468,45.446 0.002,0 9.034,-17.588 -3.468,-45.446 z"
         id="path116" />
      <path
         fill="#bab9b9"
         d="m 926.463,509.678 c 0,0 25.456,38.334 4.744,62.02 0,0.002 12.322,-24.014 -4.744,-62.02 z"
         id="path118" />
    </g>
  </g>
</svg>
