<?xml version="1.0" encoding="UTF-8" standalone="no"?>
<!-- Created with Inkscape (http://www.inkscape.org/) -->

<svg
   width="210mm"
   height="297mm"
   viewBox="0 0 210 297"
   version="1.1"
   id="svg1541"
   inkscape:version="1.1 (c68e22c387, 2021-05-23)"
   sodipodi:docname="perro-gris.svg"
   xmlns:inkscape="http://www.inkscape.org/namespaces/inkscape"
   xmlns:sodipodi="http://sodipodi.sourceforge.net/DTD/sodipodi-0.dtd"
   xmlns="http://www.w3.org/2000/svg"
   xmlns:svg="http://www.w3.org/2000/svg">
  <sodipodi:namedview
     id="namedview1543"
     pagecolor="#ffffff"
     bordercolor="#666666"
     borderopacity="1.0"
     inkscape:pageshadow="2"
     inkscape:pageopacity="0.0"
     inkscape:pagecheckerboard="0"
     inkscape:document-units="mm"
     showgrid="false"
     inkscape:snap-global="true"
     inkscape:zoom="0.47215208"
     inkscape:cx="408.7666"
     inkscape:cy="671.39385"
     inkscape:window-width="857"
     inkscape:window-height="706"
     inkscape:window-x="500"
     inkscape:window-y="0"
     inkscape:window-maximized="0"
     inkscape:current-layer="layer1" />
  <defs
     id="defs1538" />
  <g
     inkscape:label="Capa 1"
     inkscape:groupmode="layer"
     id="layer1">
    <g
       id="g234"
       transform="matrix(0.17975095,0,0,0.17975095,2.710577,-166.56285)">
      <g
         id="g182">
        <g
           id="g160">
          <path
             fill="#b3b2b3"
             d="m 283.243,1667.472 c -26.902,-18.032 -91.828,-35.318 -123.028,-44.002 -36.382,-10.126 -75.634,-6.322 -111.542,5.376 -11.73,3.822 -23.148,8.45 -34.3,13.676 -21.596,10.122 -18.078,41.92 5.336,46.452 67.478,13.06 132.174,40.602 188.098,80.58 z"
             id="path158" />
        </g>
        <path
           fill="#b3b2b3"
           d="m 620.659,2040.768 c 0,0 -20.476,93.472 16.914,118.398 37.388,24.926 78.338,1.78 78.338,1.78 l -0.89,-128.192 -97.924,8.902 z"
           id="path162" />
        <path
           fill="#b3b2b3"
           d="m 437.91,2040.174 c 0,0 20.476,93.472 -16.914,118.398 -37.39,24.926 -78.338,1.78 -78.338,1.78 l 0.89,-128.19 97.924,8.902 z"
           id="path164" />
        <g
           id="g168">
          <path
             fill="#bfbebe"
             d="m 866.726,1650.244 c 49.65,89.37 48.206,204.966 -3.658,293.07 -12.504,21.24 -27.79,41.164 -36.03,64.394 -11.708,33.004 -8.068,69.3 -13.684,103.866 -5.618,34.566 -26.11,71.81 -60.73,77.064 -27.574,4.186 -54.552,-14.362 -69.056,-38.182 -14.504,-23.822 -19.232,-52.122 -24.084,-79.586 -0.738,-4.18 -1.774,-8.818 -5.302,-11.18 -2,-1.338 -4.476,-1.696 -6.862,-2.014 -85.606,-11.392 -172.21,-15.278 -258.492,-11.596 -3.93,0.166 -8.056,0.41 -11.388,2.502 -7.314,4.594 -7.152,15.106 -6.23,23.694 2.202,20.47 3.788,41.428 -1.06,61.438 -4.85,20.01 -17.174,39.212 -36.034,47.47 -23.278,10.192 -51.492,1.342 -70.406,-15.626 -18.916,-16.97 -30.266,-40.656 -39.92,-64.162 -29.2,-71.112 -47.132,-146.248 -64.952,-221.028 -5.262,-22.084 -10.56,-44.496 -9.75,-67.186 0.782,-21.956 7.272,-43.322 15.174,-63.822 7.048,-18.284 15.422,-36.374 28.116,-51.302 25.344,-29.806 64.59,-43.482 102.532,-53.032 33.766,-8.5 68.092,-14.766 102.684,-18.742 54.15,-6.226 111.462,-7.618 158.036,-35.938"
             id="path166" />
        </g>
        <g
           id="g172">
          <path
             fill="#bfbebe"
             d="m 194.874,1931.203 c -23.658,53.958 2.3,77.402 -31.914,127.414 34.124,-5.172 11.544,11.572 38.676,-6.156 3.122,14.284 -7.638,35.538 -0.694,48.886 15.058,-10.73 42.116,-32.312 47.718,-48.008 13.506,16.676 29.566,31.96 47.688,45.378 2.042,1.512 4.416,3.094 7.164,2.974 3.846,-0.168 6.18,-3.446 7.802,-6.308 9.172,-16.18 18.342,-32.36 27.514,-48.54 11.318,9.582 22.634,19.166 33.952,28.75 2.318,1.962 5.03,4.068 8.364,4.046 3.214,-0.022 5.83,-2.02 8.094,-3.89 7.848,-6.486 15.696,-12.972 23.544,-19.458 8.77,9.36 17.54,18.722 26.31,28.082 11.396,-3.214 9.646,-18.092 19.228,-24.084 7.744,-4.84 19.268,-1.532 26.466,3.844 7.198,5.376 12.324,12.582 20.352,17.1 8.028,4.518 21.066,4.914 25.796,-2.064 5.322,-7.85 -1.514,-21.514 8.852,-24.428 0.34,10.17 17.984,12.894 29.658,9.428 11.674,-3.466 23.694,-9.946 35.456,-6.684 13.046,3.62 22.516,18.508 35.414,14.548 6.392,-1.962 9.344,-7.856 14.064,-11.896 14.756,-12.63 41.932,-3.668 54.72,10.33 -2.632,-6.654 4.46,-14.016 12.872,-15.2 8.414,-1.182 16.934,2.488 22.72,7.632 8.44,7.506 16.762,19.542 28.646,16.486 10.692,-2.75 55.574,-3.572 66.186,-6.524 0,0 -17.804,-16.618 0,-29.674 17.804,-13.056 7.122,-56.974 7.122,-56.974 z"
             id="path170" />
        </g>
        <g
           id="g176">
          <path
             fill="#b3b2b3"
             d="m 157.864,1854.68 c -5.474,46.108 -9.642,131.728 -15.116,177.836 11.3,-13.424 20.314,-29.032 26.464,-45.832 9.434,16.862 18.87,33.724 28.304,50.584 11.152,-22.614 22.304,-45.228 33.458,-67.842 23.618,38.146 63.35,60.672 101.424,81.648 8.702,-21.582 17.404,-43.162 26.106,-64.742 6.158,10.2 12.318,20.402 18.476,30.604 1.41,2.336 3.12,4.888 5.694,5.312 2.564,0.424 4.922,-1.438 6.938,-3.19 10.058,-8.754 20.114,-17.506 30.172,-26.26 4.172,13.012 13.46,29.01 25.742,24.764 12.844,-4.44 15.606,-28.64 29.046,-27.464 5.308,0.464 9.244,5.154 13.438,8.642 14.416,11.99 37.448,9.81 49.74,-4.708 5.046,-5.958 10.382,-14.48 17.72,-12.784 4.032,0.932 6.752,4.802 9.326,8.24 14.124,18.872 34.732,32.082 57,36.538 3.514,-15.848 9.532,-31.068 17.724,-44.822 28.002,15.358 55.35,32.072 81.93,50.074 2.036,-18.922 4.072,-37.844 6.11,-56.766 31.262,20.358 56.468,51.108 71.218,86.892 6.062,-19.814 12.126,-39.626 18.188,-59.44 0.794,-2.596 1.796,-5.458 4.096,-6.662 3.688,-1.928 7.718,1.598 10.478,4.824 7.754,9.064 15.506,18.128 23.26,27.19 5.938,-11.168 11.876,-22.338 17.814,-33.506 10,17.266 27.218,29.554 46.006,32.834 -4.684,-26.762 -9.368,-53.524 -14.052,-80.286 8.308,9.87 20.242,16.168 32.65,17.236 -14.764,-47.278 -32.968,-93.324 -54.392,-137.586 z"
             id="path174" />
        </g>
        <g
           id="g180">
          <path
             fill="#bfbebe"
             d="m 180.162,1742.73 c -23.658,53.958 -52.792,106.302 -87.006,156.312 34.124,-5.172 66.636,-17.326 93.768,-35.056 3.124,14.284 8.22,28.278 15.166,41.628 15.058,-10.73 26.258,-25.054 31.86,-40.748 13.504,16.676 29.566,31.96 47.688,45.378 2.042,1.512 4.416,3.094 7.166,2.974 3.846,-0.168 6.18,-3.448 7.802,-6.31 9.172,-16.18 18.344,-32.36 27.514,-48.54 11.318,9.584 22.634,19.166 33.952,28.75 2.318,1.964 5.03,4.07 8.364,4.046 3.214,-0.022 5.83,-2.02 8.094,-3.892 7.848,-6.486 15.696,-12.972 23.544,-19.458 8.77,9.36 17.54,18.722 26.31,28.084 11.396,-3.214 9.646,-18.092 19.228,-24.084 7.744,-4.84 19.268,-1.532 26.466,3.844 7.198,5.376 12.324,12.582 20.352,17.1 8.028,4.518 21.066,4.914 25.796,-2.062 5.322,-7.85 -1.512,-21.514 8.852,-24.428 0.34,10.17 17.984,12.894 29.656,9.428 11.672,-3.466 23.696,-9.948 35.456,-6.684 13.046,3.618 22.516,18.508 35.414,14.548 6.394,-1.962 9.344,-7.856 14.064,-11.896 14.756,-12.63 41.932,-3.668 54.72,10.33 -2.632,-6.654 4.46,-14.016 12.874,-15.198 8.412,-1.182 16.934,2.488 22.718,7.632 8.44,7.504 16.762,19.54 28.646,16.484 10.692,-2.75 12.494,-16.202 23.104,-19.154 14.096,-3.922 25.964,14.272 40.542,11.796 11.142,-1.892 17.65,-15.288 28.754,-13.25 3.294,0.606 5.94,2.55 8.424,4.422 8.61,6.494 17.22,12.986 25.83,19.48 2.364,-14.562 54.142,-32.026 67.72,-22.434 -11.362,-37.22 -48.836,-63.736 -60.196,-100.956 -5.154,-16.886 -10.456,-34.064 -21.49,-48.938 -18.656,-25.146 -51.426,-40.78 -84.07,-53.044 -32.644,-12.264 -67.118,-22.51 -94.98,-41.076 -14.69,-9.788 -28.526,-22.254 -47.218,-24.722 -16.222,-2.142 -32.15,3.84 -47.664,8.28 -73.672,21.084 -155.29,8.652 -232.008,20.348 -33.684,5.136 -66.028,14.87 -98.184,24.562 -16.596,5.002 -33.788,10.314 -46.094,20.716 -8.968,7.58 -14.672,17.334 -22.786,25.536 -25.26,25.538 -68.742,32.114 -108.416,36.98 29.054,5.592 58.758,8.914 88.578,9.904 z"
             id="path178" />
        </g>
      </g>
      <path
         fill="#66c8cf"
         d="m 785.521,1777.146 c -3.714,1.934 -7.886,2.552 -11.93,1.504 -98.916,-25.682 -205.21,-143.262 -234.534,-188.75 -0.148,-0.23 -0.312,-0.51 -0.464,-0.752 -0.704,1.484 -1.336,2.718 -1.864,3.56 l -9.936,8.28 c -4.734,7.536 2.59,21.208 7.51,28.844 29.322,45.488 135.618,163.068 234.534,188.75 4.044,1.05 8.214,0.43 11.93,-1.504 23.778,-12.384 114.318,-62.11 142.658,-115.262 0,0 10.662,-18.454 -0.288,-31.524 -32.738,49.904 -115.099,95.126 -137.616,106.854 z"
         id="path184" />
      <g
         id="g192">
        <path
           fill="#b3b2b3"
           d="m 884.16,1280.228 c 0,0 154.838,-26.614 190.506,48.072 35.668,74.686 90.514,207.202 14.69,187.432 -75.822,-19.772 -119.808,-134.712 -141.548,-121.4 -21.74,13.31 -63.648,-114.104 -63.648,-114.104 z"
           id="path186" />
        <path
           fill="#b3b2b3"
           d="m 642.026,1271.704 c 0,0 -151.06,-43.172 -194.582,27.228 -43.52,70.4 -112.35,196.222 -34.834,184.75 77.516,-11.472 133.648,-120.994 153.824,-105.414 20.178,15.582 75.592,-106.564 75.592,-106.564 z"
           id="path188" />
        <path
           fill="#bfbebe"
           d="m 496.362,1504.892 c -1.592,177.904 117.38,202.594 254.858,203.826 137.478,1.232 241.402,-21.466 242.994,-199.368 1.592,-177.904 -115.968,-265.482 -231.126,-264.73 -122.604,0.802 -265.134,82.37 -266.726,260.272 z"
           id="path190" />
      </g>
      <g
         id="g214">
        <g
           id="g196">
          <path
             fill="#e5e5e4"
             d="m 527.778,1570.438 c -57.864,17.804 -68.794,85.1 -83.712,127.54 19.072,-18.27 36.314,-38.45 51.382,-60.14 0.35,24.24 11.064,47.454 25.99,66.558 14.926,19.104 33.916,34.588 53.104,49.406 -9.066,-26.942 -11.536,-56.078 -7.14,-84.162 8.946,19.602 23.248,36.728 40.94,49.026 15.484,10.762 33.276,17.762 49.14,27.954 15.864,10.192 30.402,24.862 33.636,43.438 0.486,-27.052 0.972,-54.102 1.458,-81.154 36.118,36.696 68.254,77.312 95.656,120.904 -1.894,-29.614 -0.072,-59.464 5.414,-88.628 13.072,18.672 22.76,39.708 28.452,61.78 16.544,-31.308 35.644,-61.262 57.052,-89.47 9.034,25.132 34.96,54.708 37.648,81.28 22.832,-34.54 19.392,-76.562 28.584,-116.934 9.084,9.906 18.168,19.812 27.254,29.716 9.054,9.874 18.76,20.166 31.598,23.988 -19.416,-31.294 -30.992,-67.41 -33.388,-104.158 14.59,11.348 25.176,27.742 29.516,45.708 6.624,-29.49 3.584,-64.31 -16.798,-86.628 z"
             id="path194" />
        </g>
        <g
           id="g200">
          <path
             fill="#f2f2f2"
             d="m 804.404,1415.58 c 3.314,-4.796 9.19,-7.004 14.732,-8.812 18.164,-5.926 36.77,-10.498 55.612,-13.666 16.696,-2.808 33.914,-4.498 50.468,-0.952 16.552,3.544 32.512,13.008 40.492,27.938 -7.964,-3.844 -17.33,-4.694 -25.856,-2.344 5.374,3.102 10.698,6.288 15.972,9.558 5.778,3.58 11.794,7.316 15.496,13.014 10.584,16.292 6.868,24.55 10.59,36.058 -4.656,-9.54 -14.726,-17.674 -24.526,-21.76 -9.798,-4.086 -20.408,-5.746 -30.9,-7.36 1.684,6.5 3.366,13.002 5.05,19.502 0.748,2.884 0.476,7.238 -2.502,7.292 -6,-8.372 -12.068,-16.824 -19.786,-23.642 -19.154,-16.92 -46.266,-21.822 -71.814,-21.134 -15.554,0.42 -31.06,2.654 -46.1,6.644 z"
             id="path198" />
        </g>
        <g
           id="g204">
          <path
             fill="#f2f2f2"
             d="m 720.385,1411.788 c -2.338,-5.342 -7.684,-8.63 -12.778,-11.464 -16.698,-9.284 -34.09,-17.324 -51.98,-24.032 -15.852,-5.942 -32.432,-10.888 -49.358,-10.57 -16.926,0.318 -34.398,6.562 -45.082,19.694 8.552,-2.254 17.908,-1.3 25.828,2.636 -5.866,2.018 -11.702,4.13 -17.504,6.332 -6.354,2.412 -12.972,4.93 -17.696,9.818 -13.498,13.972 -11.428,22.786 -17.278,33.374 6.392,-8.476 17.83,-14.538 28.228,-16.678 10.398,-2.14 21.128,-1.744 31.738,-1.326 -2.894,6.06 -5.788,12.12 -8.68,18.18 -1.284,2.688 -1.85,7.014 1.064,7.636 7.486,-7.074 15.056,-14.21 23.936,-19.43 22.032,-12.952 49.58,-12.59 74.528,-7.034 15.188,3.382 29.982,8.536 43.982,15.324 z"
             id="path202" />
        </g>
        <g
           id="g208">
          <path
             fill="#ffffff"
             d="m 780.303,1546.7 c 59.942,-20.772 92.956,-1.61 105.346,0.708 47.688,8.916 83.09,32.768 129.192,43.932 -26.782,2.634 -53.394,3.126 -79.104,1.464 17.098,12.6 42.184,19.324 59.424,31.832 18.74,13.596 26.772,32.894 34.362,51.636 -12.926,-6.536 -25.852,-13.074 -38.778,-19.61 4.5,26.122 -1.216,54.346 -16.458,81.268 -13.634,-26.376 -35.91,-49.546 -63.152,-69.286 6.68,18.802 7.314,39.316 1.85,59.906 -2.642,9.96 -6.702,20.35 -3.5,29.454 -6.342,-17.138 -16.842,-33.062 -31.012,-47.036 -11.328,-11.17 -24.934,-21.058 -36.822,-31.922 -16.512,-15.09 -29.614,-31.976 -42.216,-49 -12.764,-17.244 -25.34,-35.808 -21.536,-56.942 z"
             id="path206" />
        </g>
        <g
           id="g212">
          <path
             fill="#ffffff"
             d="m 719.174,1542.842 c -12.282,-5.574 -84.788,-5.582 -97.048,-3.85 -47.184,6.672 -83.194,28.81 -128.956,37.796 26.062,3.874 52.082,5.604 77.344,5.144 -17.454,11.77 -39.392,17.784 -56.98,29.456 -19.118,12.686 -31.078,31.08 -39.578,49.416 13.024,-5.916 26.048,-11.834 39.072,-17.75 -5.894,25.84 -1.908,54.254 11.474,81.812 14.848,-25.668 37.974,-47.738 65.762,-66.156 -7.61,18.438 -9.4,38.868 -5.226,59.656 2.018,10.056 5.398,20.606 1.748,29.536 7.184,-16.796 18.37,-32.188 33.036,-45.462 11.724,-10.612 25.606,-19.84 37.86,-30.12 17.024,-14.28 30.81,-30.51 44.114,-46.902 13.476,-16.602 26.844,-34.532 24.326,-55.784 z"
             id="path210" />
        </g>
      </g>
      <g
         id="g222">
        <path
           fill="#333333"
           d="m 815.826,1482.184 c 3.222,16.702 19.376,27.63 36.08,24.406 16.702,-3.224 27.63,-19.376 24.406,-36.08 -3.224,-16.704 -19.376,-27.63 -36.08,-24.406 -16.701,3.224 -27.63,19.378 -24.406,36.08 z"
           id="path216" />
        <path
           fill="#333333"
           d="m 643.31,1478.346 c 3.222,16.704 19.376,27.63 36.08,24.408 16.702,-3.224 27.63,-19.376 24.406,-36.08 -3.222,-16.702 -19.376,-27.63 -36.08,-24.408 -16.702,3.226 -27.628,19.378 -24.406,36.08 z"
           id="path218" />
        <path
           fill="#333333"
           d="m 709.868,1559.418 c 0.424,14.658 21.86,37.734 47.456,36.992 25.596,-0.74 45.658,-25.02 45.234,-39.678 -0.424,-14.658 -21.518,-25.938 -47.114,-25.198 -25.596,0.742 -46,13.226 -45.576,27.884 z"
           id="path220" />
      </g>
      <g
         id="g232">
        <path
           fill="#c3c3c3"
           d="m 709.335,2173.946 c 0,0 21.42,-16.356 25,-42.196 0,0 2.842,38.96 -5.544,52.698 0.002,0 -13.389,-3.804 -19.456,-10.502 z"
           id="path224" />
        <path
           fill="#c3c3c3"
           d="m 748.281,2186.53 c 0,0 12.226,-30.232 9.248,-48.438 0,0 11.488,28.962 9.234,46.65 0,0 -10.846,3.578 -18.482,1.788 z"
           id="path226" />
        <path
           fill="#c3c3c3"
           d="m 274.02,2172.462 c 0,0 21.42,-16.356 25,-42.196 0,0 2.842,38.96 -5.544,52.698 0.002,0 -13.388,-3.804 -19.456,-10.502 z"
           id="path228" />
        <path
           fill="#c3c3c3"
           d="m 312.966,2185.046 c 0,0 12.226,-30.232 9.248,-48.438 0,0 11.488,28.962 9.234,46.65 0.001,0 -10.846,3.58 -18.482,1.788 z"
           id="path230" />
      </g>
    </g>
  </g>
</svg>
