<?xml version="1.0" encoding="UTF-8" standalone="no"?>
<!-- Created with Inkscape (http://www.inkscape.org/) -->

<svg
   width="210mm"
   height="297mm"
   viewBox="0 0 210 297"
   version="1.1"
   id="svg1541"
   inkscape:version="1.1 (c68e22c387, 2021-05-23)"
   sodipodi:docname="rana.svg"
   xmlns:inkscape="http://www.inkscape.org/namespaces/inkscape"
   xmlns:sodipodi="http://sodipodi.sourceforge.net/DTD/sodipodi-0.dtd"
   xmlns="http://www.w3.org/2000/svg"
   xmlns:svg="http://www.w3.org/2000/svg">
  <sodipodi:namedview
     id="namedview1543"
     pagecolor="#ffffff"
     bordercolor="#666666"
     borderopacity="1.0"
     inkscape:pageshadow="2"
     inkscape:pageopacity="0.0"
     inkscape:pagecheckerboard="0"
     inkscape:document-units="mm"
     showgrid="false"
     inkscape:snap-global="true"
     inkscape:zoom="0.47215208"
     inkscape:cx="408.7666"
     inkscape:cy="671.39385"
     inkscape:window-width="857"
     inkscape:window-height="706"
     inkscape:window-x="500"
     inkscape:window-y="0"
     inkscape:window-maximized="0"
     inkscape:current-layer="layer1" />
  <defs
     id="defs1538" />
  <g
     inkscape:label="Capa 1"
     inkscape:groupmode="layer"
     id="layer1">
    <g
       id="g156"
       transform="matrix(0.20938853,0,0,0.20938853,-338.74976,-210.17483)">
      <path
         fill="#b1d23b"
         d="m 1878.226,1859.651 c 0,0 -144.442,-72.222 -165.684,38.236 -21.242,110.456 63.724,150.814 63.724,150.814 0,0 -172.056,10.62 -152.94,84.966 h 367.48 z"
         id="path122" />
      <path
         fill="#a0bd3a"
         d="m 1878.226,1859.651 c 0,0 -53.242,-26.566 -99.834,-22.758 -15.518,19.126 -54.154,76.296 -16.464,133.48 46.2,70.098 81.25,116.298 81.25,116.298 0,0 -202.326,-11.152 -219.85,46.996 h 367.48 z"
         id="path124" />
      <path
         fill="#b1d23b"
         d="m 2336.092,1859.651 c 0,0 144.442,-72.222 165.684,38.236 21.242,110.456 -63.726,150.814 -63.726,150.814 0,0 172.056,10.62 152.938,84.966 H 2223.51 Z"
         id="path126" />
      <path
         fill="#a0bd3a"
         d="m 2336.092,1859.651 c 0,0 53.24,-26.566 99.832,-22.758 15.518,19.126 54.154,76.296 16.464,133.48 -46.2,70.098 -81.248,116.298 -81.248,116.298 0,0 202.326,-11.152 219.85,46.996 h -367.478 z"
         id="path128" />
      <path
         fill="#b1d23b"
         d="m 1872.914,1813.186 c 0,0 -6.35,329.244 229.408,332.43 235.782,3.186 265.52,-277.202 259.146,-334.554 -6.37,-57.353 -488.554,8.495 -488.554,2.124 z"
         id="path130" />
      <path
         fill="#e7db74"
         d="m 1872.914,1810.206 c 0,0 -6.35,291.174 229.408,293.992 235.782,2.818 265.52,-245.15 259.146,-295.87 -6.37,-50.72 -488.554,7.514 -488.554,1.878 z"
         id="path132" />
      <path
         fill="#b1d23b"
         d="m 1783.7,1798.316 c 0,0 23.366,231.532 125.326,295.258 0,0 -48.856,42.482 -21.242,57.352 27.614,14.868 70.098,-14.87 70.098,-14.87 0,0 -14.87,50.98 8.496,53.104 23.366,2.124 44.606,-44.606 44.606,-44.606 0,0 27.614,36.11 57.352,16.994 29.738,-19.118 -55.228,-82.842 -55.228,-82.842 0,0 -101.96,-74.346 -78.594,-231.532 z"
         id="path134" />
      <path
         fill="#a0bd3a"
         d="m 2068.338,2161.546 c 29.738,-19.118 -55.228,-82.842 -55.228,-82.842 0,0 -101.96,-74.346 -78.594,-231.534 l -63.792,-20.664 c 4.578,44.398 18.118,139.61 53.172,190.596 46.732,67.974 91.338,74.346 106.208,95.586 14.87,21.24 -36.11,-2.124 -36.11,-2.124 0,0 -3.966,56.328 -34.1,76.068 1.742,1.348 3.84,2.286 6.486,2.524 23.366,2.124 44.606,-44.608 44.606,-44.608 0,0 27.612,36.116 57.352,16.998 z"
         id="path136" />
      <path
         fill="#b1d23b"
         d="m 2435.756,1798.316 c 0,0 -23.366,231.532 -125.324,295.258 0,0 48.856,42.482 21.242,57.352 -27.614,14.868 -70.096,-14.87 -70.096,-14.87 0,0 14.87,50.98 -8.496,53.104 -23.366,2.124 -44.608,-44.606 -44.608,-44.606 0,0 -27.614,36.11 -57.352,16.994 -29.738,-19.118 55.228,-82.842 55.228,-82.842 0,0 101.96,-74.346 78.594,-231.532 z"
         id="path138" />
      <path
         fill="#a0bd3a"
         d="m 2151.12,2161.546 c -29.738,-19.118 55.228,-82.842 55.228,-82.842 0,0 101.96,-74.346 78.594,-231.534 l 63.792,-20.664 c -4.578,44.398 -18.118,139.61 -53.172,190.596 -46.732,67.974 -91.338,74.346 -106.208,95.586 -14.868,21.24 36.11,-2.124 36.11,-2.124 0,0 3.964,56.328 34.1,76.068 -1.742,1.348 -3.84,2.286 -6.484,2.524 -23.366,2.124 -44.608,-44.608 -44.608,-44.608 0,0 -27.614,36.116 -57.352,16.998 z"
         id="path140" />
      <path
         fill="#b1d23b"
         d="m 2069.398,1360.209 c 0,0 -16.728,-135.414 -139.398,-113.112 -122.67,22.304 -123.466,175.242 -123.466,175.242 0,0 -159.312,47.794 -146.566,221.444 12.746,173.65 180.022,243.746 479.528,240.56 299.506,-3.186 457.224,-138.6 466.784,-261.27 9.558,-122.67 -165.684,-205.512 -165.684,-205.512 0,0 -4.78,-141.788 -116.298,-144.974 -111.518,-3.186 -135.414,87.622 -135.414,87.622 0,0 -86.03,-14.337 -119.486,0 z"
         id="path142" />
      <path
         fill="#a0bd3a"
         d="m 2606.28,1623.073 c 9.558,-122.67 -165.684,-205.512 -165.684,-205.512 0,0 -4.438,-129.426 -102.182,-143.672 30.918,29.148 87.844,59.236 75.1,172.348 0,0 110.664,17.182 105.146,210.292 -4.78,167.278 -566.702,310.116 -814.798,105.938 69.082,87.454 217.116,124.202 435.636,121.878 299.504,-3.189 457.222,-138.601 466.782,-261.272 z"
         id="path144" />
      <path
         fill="#85a03c"
         d="m 2429.942,1656.599 c -50.048,27.354 -95.948,58.244 -149.594,78.894 -52.808,20.328 -108.89,31.43 -165.23,35.232 -59.812,4.036 -119.922,-3.214 -177.086,-21.104 -57.022,-17.844 -100.426,-54.144 -150.844,-83.918 -2.482,-1.464 -5.166,1.97 -3.078,3.988 90.65,87.576 206.428,125.282 331.006,119.564 108.974,-5.002 243.416,-43.876 321.43,-124.096 4.372,-4.489 -1.168,-11.529 -6.604,-8.56 z"
         id="path146" />
      <circle
         fill="#35170d"
         cx="1933.92"
         cy="1455.818"
         id="ellipse148"
         r="68.502998" />
      <path
         fill="#ffffff"
         d="m 1930.798,1432.432 c 0,11.438 -9.272,20.71 -20.71,20.71 -11.438,0 -20.71,-9.272 -20.71,-20.71 0,-11.438 9.272,-20.71 20.71,-20.71 11.438,0 20.71,9.27 20.71,20.71 z"
         id="path150" />
      <circle
         fill="#35170d"
         cx="2305.874"
         cy="1456.264"
         id="ellipse152"
         r="68.500999" />
      <path
         fill="#ffffff"
         d="m 2302.526,1432.432 c 0,11.438 -9.272,20.71 -20.71,20.71 -11.438,0 -20.71,-9.272 -20.71,-20.71 0,-11.438 9.272,-20.71 20.71,-20.71 11.436,0 20.71,9.27 20.71,20.71 z"
         id="path154" />
    </g>
  </g>
</svg>
