<?xml version="1.0" encoding="UTF-8" standalone="no"?>
<!-- Created with Inkscape (http://www.inkscape.org/) -->

<svg
   width="210mm"
   height="297mm"
   viewBox="0 0 210 297"
   version="1.1"
   id="svg1541"
   inkscape:version="1.1 (c68e22c387, 2021-05-23)"
   sodipodi:docname="tigre.svg"
   xmlns:inkscape="http://www.inkscape.org/namespaces/inkscape"
   xmlns:sodipodi="http://sodipodi.sourceforge.net/DTD/sodipodi-0.dtd"
   xmlns="http://www.w3.org/2000/svg"
   xmlns:svg="http://www.w3.org/2000/svg">
  <sodipodi:namedview
     id="namedview1543"
     pagecolor="#ffffff"
     bordercolor="#666666"
     borderopacity="1.0"
     inkscape:pageshadow="2"
     inkscape:pageopacity="0.0"
     inkscape:pagecheckerboard="0"
     inkscape:document-units="mm"
     showgrid="false"
     inkscape:snap-global="true"
     inkscape:zoom="0.47215208"
     inkscape:cx="408.7666"
     inkscape:cy="671.39385"
     inkscape:window-width="857"
     inkscape:window-height="706"
     inkscape:window-x="500"
     inkscape:window-y="0"
     inkscape:window-maximized="0"
     inkscape:current-layer="layer1" />
  <defs
     id="defs1538" />
  <g
     inkscape:label="Capa 1"
     inkscape:groupmode="layer"
     id="layer1">
    <g
       id="g330"
       transform="matrix(0.26458333,0,0,0.26458333,-244.38583,-619.72091)">
      <path
         fill-rule="evenodd"
         clip-rule="evenodd"
         fill="#e36325"
         d="m 1168.016,3157.979 -46.644,-17.306 c -54.342,28.61 -129.48,-82.234 -85.596,-152.798 27.288,-43.88 -71.412,-66.24 -74.772,1.684 -8.78,179.482 130.794,285.032 331.072,131.154 z"
         id="path236" />
      <path
         fill-rule="evenodd"
         clip-rule="evenodd"
         fill="#322212"
         d="m 1099.605,3145.118 c -9.854,-0.728 -19.712,-4.81 -28.968,-11.424 -17.792,15.146 -13.344,38.832 -8.78,52.418 8.656,3.122 17.792,5.53 27.412,7.092 -4.803,-23.923 2.405,-39.071 10.336,-48.086 z m -43.509,-24.522 c -5.172,-5.654 -9.978,-12.026 -14.192,-18.878 -25.608,35.944 1.804,66 -0.958,48.568 -3.009,-18.274 15.15,-29.69 15.15,-29.69 z m -25.857,-43.044 c -3.244,-8.656 -5.522,-17.792 -6.726,-27.046 -24.162,0.72 -42.436,8.534 -55.906,17.668 4.09,17.43 9.984,33.422 17.55,47.848 10.103,-21.159 31.744,-32.939 45.082,-38.47 z m -7.691,-41.234 c 0,-9.014 1.206,-17.91 3.608,-26.448 -44.964,2.528 -51.932,40.034 -40.274,32.342 8.414,-5.411 26.324,-6.012 36.666,-5.894 z m 8.055,-38.828 c 1.562,-3.246 3.25,-6.49 5.17,-9.616 0.724,-1.206 1.446,-2.404 1.922,-3.608 -27.53,-22.598 -56.024,-19.476 -72.004,-14.67 -2.652,5.534 -4.332,12.146 -4.69,19.962 -0.366,8.538 -0.49,16.948 -0.248,25.246 27.772,-23.325 57.347,-20.2 69.85,-17.314 z m -35.826,134.886 c 5.17,7.566 10.824,14.542 16.952,20.912 -5.288,-25.366 11.3,-51.808 0.964,-46.162 -7.697,4.212 -13.825,15.628 -17.916,25.25 z"
         id="path238" />
      <path
         fill-rule="evenodd"
         clip-rule="evenodd"
         fill="#f9e2c3"
         d="m 1328.866,3329.167 c 39.186,0 71.288,-31.974 71.288,-71.162 0,-39.314 -32.102,-71.288 -71.288,-71.288 -39.194,0 -71.294,31.974 -71.294,71.288 0,39.187 32.1,71.162 71.294,71.162 z"
         id="path240" />
      <path
         fill-rule="evenodd"
         clip-rule="evenodd"
         fill="#e36325"
         d="m 1166.094,3176.735 c 0,0 -45.928,-20.436 -69.732,20.434 -23.804,40.752 35.71,179.366 62.874,193.794 27.17,14.542 72.25,15.386 73.938,-6.738 1.798,-22.117 -67.08,-207.49 -67.08,-207.49 z"
         id="path242" />
      <path
         fill-rule="evenodd"
         clip-rule="evenodd"
         fill="#322212"
         d="m 1167.892,3356.22 c 31.02,-15.032 -6.128,-11.424 -37.988,-4.332 2.884,5.412 5.77,10.46 8.656,15.028 9.251,-1.924 18.15,-5.291 29.332,-10.696 z"
         id="path244" />
      <path
         fill-rule="evenodd"
         clip-rule="evenodd"
         fill="#322212"
         d="m 1162.004,3330.126 c 40.632,-7.808 26.208,-25.242 -33.54,-15.386 -5.054,1.322 -9.736,2.648 -14.068,3.966 2.768,6.614 5.53,12.986 8.538,19.238 12.864,-2.761 25.486,-5.289 39.07,-7.818 z"
         id="path246" />
      <path
         fill-rule="evenodd"
         clip-rule="evenodd"
         fill="#322212"
         d="m 1142.523,3298.997 c 35.344,-6.494 37.988,-21.52 16.238,-27.292 -17.202,-4.448 -40.4,-2.166 -58.792,5.652 2.644,9.492 5.886,19.108 9.378,28.49 10.819,-2.526 22.245,-4.808 33.176,-6.85 z"
         id="path248" />
      <path
         fill-rule="evenodd"
         clip-rule="evenodd"
         fill="#322212"
         d="m 1144.569,3245.136 c 40.632,-7.694 26.208,-25.242 -33.54,-15.27 -7.334,1.804 -13.828,3.73 -19.596,5.654 0.606,6.252 1.686,12.858 3.01,19.714 16.951,-3.608 32.699,-6.853 50.126,-10.098 z"
         id="path250" />
      <path
         fill-rule="evenodd"
         clip-rule="evenodd"
         fill="#f9e2c3"
         d="m 1328.866,3365.712 c 39.186,0 71.288,-31.974 71.288,-71.162 0,-39.314 -32.102,-71.288 -71.288,-71.288 -39.194,0 -71.294,31.974 -71.294,71.288 0,39.189 32.1,71.162 71.294,71.162 z"
         id="path252" />
      <path
         fill-rule="evenodd"
         clip-rule="evenodd"
         fill="#f48020"
         d="m 1295.682,3269.183 8.298,-6.494 c 0,0 0.116,-13.104 5.646,-17.31 5.412,-4.324 42.794,-11.42 43.882,23.322 0,0 1.68,-16.832 11.298,-24.644 9.736,-7.692 115.04,-56.504 115.04,-56.504 l 54.232,2.042 c 0,0 14.06,-67.682 10.568,-86.674 -3.484,-18.87 -69.724,-43.276 -96.654,-40.274 -26.922,3.01 -306.194,6.976 -306.194,6.976 l -32.21,43.276 c 0,0 3.966,64.436 16.586,104.708 12.622,40.158 -0.242,-2.644 -0.242,-2.644 l 79.578,8.538 c 0,0 55.306,9.378 64.202,14.908 9.014,5.408 27.048,10.938 29.932,16.35 2.89,5.528 -3.962,14.424 -3.962,14.424 z"
         id="path254" />
      <path
         fill-rule="evenodd"
         clip-rule="evenodd"
         fill="#f48020"
         d="m 1122.934,3101.96 1.082,23.562 c 0,0 -5.412,43.518 7.334,110.718 12.74,67.204 10.212,137.772 44.234,155.558 34.022,17.916 110.482,17.916 126.71,1.808 16.114,-16.23 1.688,-123.344 1.688,-145.464 0,-22.12 -41.72,-117.336 -70.572,-134.284 -28.971,-17.066 -110.476,-11.898 -110.476,-11.898 z"
         id="path256" />
      <path
         fill-rule="evenodd"
         clip-rule="evenodd"
         fill="#322212"
         d="m 1261.662,3361.75 c 78.38,-21.522 -154.956,-16.23 -76.094,1.68 29.814,6.854 46.636,6.372 76.094,-1.68 z"
         id="path258" />
      <path
         fill-rule="evenodd"
         clip-rule="evenodd"
         fill="#322212"
         d="m 1260.456,3328.564 c 51.938,-0.478 38.228,-24.876 -37.74,-26.082 -75.86,4.57 -88.722,29.694 -36.908,27.77 25.726,-0.961 48.929,-1.564 74.648,-1.688 z"
         id="path260" />
      <path
         fill-rule="evenodd"
         clip-rule="evenodd"
         fill="#322212"
         d="m 1243.752,3286.373 c 45.082,0 51.932,-17.792 26.324,-29.574 -28.976,-13.466 -77.298,-12.504 -102.666,6.252 -16.586,12.142 -6.61,26.082 33.906,24.282 13.826,-0.598 28.492,-0.96 42.436,-0.96 z"
         id="path262" />
      <path
         fill-rule="evenodd"
         clip-rule="evenodd"
         fill="#322212"
         d="m 1258.892,3221.212 c 51.814,-0.358 38.23,-24.882 -37.74,-26.086 -75.86,4.69 -88.722,29.694 -36.908,27.774 25.72,-0.963 48.932,-1.443 74.648,-1.688 z"
         id="path264" />
      <path
         fill-rule="evenodd"
         clip-rule="evenodd"
         fill="#e36325"
         d="m 1489.116,3176.735 c 0,0 45.92,-20.436 69.716,20.434 23.812,40.752 -35.694,179.366 -62.874,193.794 -27.17,14.542 -72.244,15.386 -73.932,-6.738 -1.684,-22.117 67.09,-207.49 67.09,-207.49 z"
         id="path266" />
      <path
         fill-rule="evenodd"
         clip-rule="evenodd"
         fill="#322212"
         d="m 1487.304,3356.22 c -31.02,-15.032 6.128,-11.424 37.988,-4.332 -2.876,5.412 -5.77,10.46 -8.532,15.028 -9.37,-1.924 -18.266,-5.291 -29.456,-10.696 z"
         id="path268" />
      <path
         fill-rule="evenodd"
         clip-rule="evenodd"
         fill="#322212"
         d="m 1493.2,3330.126 c -40.64,-7.808 -26.208,-25.242 33.532,-15.386 5.178,1.322 9.744,2.648 14.076,3.966 -2.77,6.614 -5.538,12.986 -8.54,19.238 -12.863,-2.761 -25.484,-5.289 -39.068,-7.818 z"
         id="path270" />
      <path
         fill-rule="evenodd"
         clip-rule="evenodd"
         fill="#322212"
         d="m 1512.678,3298.997 c -35.35,-6.494 -37.996,-21.52 -16.23,-27.292 17.188,-4.448 40.384,-2.166 58.784,5.652 -2.644,9.492 -5.894,19.108 -9.378,28.49 -10.816,-2.526 -22.249,-4.808 -33.176,-6.85 z"
         id="path272" />
      <path
         fill-rule="evenodd"
         clip-rule="evenodd"
         fill="#322212"
         d="m 1510.628,3245.136 c -40.632,-7.694 -26.2,-25.242 33.664,-15.27 7.208,1.804 13.82,3.73 19.472,5.654 -0.6,6.252 -1.68,12.858 -3.008,19.714 -16.824,-3.608 -32.695,-6.853 -50.128,-10.098 z"
         id="path274" />
      <path
         fill-rule="evenodd"
         clip-rule="evenodd"
         fill="#f48020"
         d="m 1534.796,3101.96 -1.088,23.562 c 0,0 5.414,43.518 -7.334,110.718 -12.738,67.204 -10.218,137.772 -44.234,155.558 -34.022,17.916 -110.488,17.916 -126.71,1.808 -16.112,-16.23 -1.686,-123.344 -1.686,-145.464 0,-22.12 41.72,-117.336 70.572,-134.284 28.966,-17.066 110.48,-11.898 110.48,-11.898 z"
         id="path276" />
      <path
         fill-rule="evenodd"
         clip-rule="evenodd"
         fill="#322212"
         d="m 1389.212,3362.826 c -78.62,-19.232 154.84,-19.232 76.218,0 -29.693,7.216 -46.529,7.216 -76.218,0 z"
         id="path278" />
      <path
         fill-rule="evenodd"
         clip-rule="evenodd"
         fill="#322212"
         d="m 1389.928,3330.613 c -51.806,0.72 -38.586,-23.322 37.398,-26.086 75.968,2.764 89.198,26.806 37.382,26.086 -25.851,-0.363 -49.048,-0.363 -74.78,0 z"
         id="path280" />
      <path
         fill-rule="evenodd"
         clip-rule="evenodd"
         fill="#322212"
         d="m 1406.048,3289.378 c -45.086,0.84 -52.056,-16.23 -26.814,-28.136 28.852,-13.7 77.176,-13.824 102.784,3.728 16.828,11.544 6.976,25.246 -33.422,24.406 -13.947,-0.359 -28.613,-0.359 -42.548,0 z"
         id="path282" />
      <path
         fill-rule="evenodd"
         clip-rule="evenodd"
         fill="#322212"
         d="m 1389.928,3226.5 c -51.806,0.724 -38.586,-23.322 37.398,-26.082 75.968,2.762 89.198,26.806 37.382,26.082 -25.851,-0.357 -49.048,-0.357 -74.78,0 z"
         id="path284" />
      <path
         fill-rule="evenodd"
         clip-rule="evenodd"
         fill="#f5caa5"
         d="m 1235.214,3145.715 c -0.84,1.084 0.242,5.176 0.242,8.538 0,3.242 -4.69,2.286 -4.69,2.286 -14.184,-3.01 -43.758,-8.176 -58.908,-33.902 -15.024,-25.728 -39.91,-41.958 -46.162,-34.626 -6.128,7.214 -22.964,15.628 -22.964,8.298 0,-7.214 4.688,-26.09 -9.496,-55.782 -14.184,-29.574 23.446,-71.77 23.446,-71.77 l 204.244,-6.012 226.01,6.012 c 0,0 31.736,42.196 17.552,71.77 -14.192,29.69 -10.218,55.058 -10.218,62.274 0,7.328 -16.828,-1.086 -23.082,-8.302 -6.252,-7.334 -31.02,8.896 -46.168,34.626 -15.024,25.724 -43.876,24.402 -58.052,27.412 0,0 -4.69,0.958 -4.69,-2.286 0,-3.364 1.074,-7.454 0.234,-8.538 -0.84,-1.202 -24.644,12.022 -32.584,28.136 -8.048,16.23 -28.002,48.686 -67.914,49.412 0,0 4.922,-9.258 -15.996,-20.802 -20.794,-11.66 -53.254,-30.056 -70.804,-56.744 z"
         id="path286" />
      <path
         fill-rule="evenodd"
         clip-rule="evenodd"
         fill="#f48020"
         d="m 1517.004,2570.72 c 43.752,-200.522 331.078,57.344 45.082,128.748 z"
         id="path288" />
      <path
         fill-rule="evenodd"
         clip-rule="evenodd"
         fill="#e36325"
         d="m 1544.292,2585.509 c 27.288,-125.268 206.894,35.826 28.128,80.424 z"
         id="path290" />
      <path
         fill-rule="evenodd"
         clip-rule="evenodd"
         fill="#f48020"
         d="m 1156.226,2570.72 c -43.75,-200.522 -331.194,57.344 -45.198,128.748 z"
         id="path292" />
      <path
         fill-rule="evenodd"
         clip-rule="evenodd"
         fill="#e36325"
         d="m 1128.937,2585.509 c -27.404,-125.268 -207.012,35.826 -28.244,80.424 z"
         id="path294" />
      <path
         fill-rule="evenodd"
         clip-rule="evenodd"
         fill="#f48020"
         d="m 1329.105,2461.2 c 0,0 120.816,-9.014 183.208,65.4 46.044,54.94 54.694,132.718 109.152,206.054 16.23,21.88 30.422,46.402 35.228,74.772 27.654,162.532 -205.09,224.326 -327.586,224.326 -122.622,0 -355.364,-61.792 -327.71,-224.326 4.922,-28.37 18.99,-52.892 35.344,-74.772 54.452,-73.336 62.99,-151.114 109.152,-206.054 62.391,-74.413 183.212,-65.4 183.212,-65.4 z"
         id="path296" />
      <path
         fill-rule="evenodd"
         clip-rule="evenodd"
         fill="#322212"
         d="m 1597.422,2695.266 c 6.974,12.5 14.914,25.004 24.044,37.39 2.646,3.48 5.172,6.972 7.576,10.694 -16.946,14.79 -13.454,53.262 -19.954,83.076 -7.932,36.304 -55.3,39.786 -29.94,22.474 25.492,-17.432 16.96,-56.38 10.468,-95.69 -6.496,-39.312 7.806,-57.944 7.806,-57.944 z"
         id="path298" />
      <path
         fill-rule="evenodd"
         clip-rule="evenodd"
         fill="#f9e2c3"
         d="m 1471.558,2619.888 c 38.952,-5.89 76.092,33.182 82.834,87.16 6.844,53.976 -19.232,102.42 -58.192,108.19 -38.946,5.77 -76.094,-33.178 -82.82,-87.156 -6.859,-53.972 19.231,-102.42 58.178,-108.194 z"
         id="path300" />
      <path
         fill-rule="evenodd"
         clip-rule="evenodd"
         fill="#f9e2c3"
         d="m 1186.647,2619.888 c -38.954,-5.89 -76.102,33.182 -82.952,87.16 -6.734,53.976 19.356,102.42 58.308,108.19 38.946,5.77 75.978,-33.178 82.828,-87.156 6.729,-53.972 -19.231,-102.42 -58.184,-108.194 z"
         id="path302" />
      <path
         fill-rule="evenodd"
         clip-rule="evenodd"
         fill="#e36325"
         d="m 1360.602,2797.571 -3.608,-16.594 c 0,0 27.53,4.09 30.056,-22.72 2.396,-26.93 3.478,-65.758 5.888,-72.248 2.526,-6.49 22.242,106.032 6.976,131.158 -15.39,25.242 -32.102,4.084 -32.102,4.084 z"
         id="path304" />
      <path
         fill-rule="evenodd"
         clip-rule="evenodd"
         fill="#f9e2c3"
         d="m 1643.59,2767.996 c 6.004,12.26 10.692,25.366 13.104,39.432 27.654,162.532 -205.09,224.326 -327.586,224.326 -122.622,0 -355.364,-61.792 -327.71,-224.326 2.402,-14.064 7.092,-27.172 13.22,-39.432 -11.182,129.592 127.91,145.344 163.136,98.214 35.104,-47.244 97.496,-51.808 97.496,-51.808 0,0 22.964,10.452 53.86,24.524 30.896,-14.072 53.736,-24.524 53.736,-24.524 0,0 62.392,4.564 97.612,51.808 35.222,47.13 174.189,31.378 163.132,-98.214 z"
         id="path306" />
      <path
         fill-rule="evenodd"
         clip-rule="evenodd"
         fill="#322212"
         d="m 1396.18,2793.6 c 17.916,14.304 -13.338,83.07 -67.074,83.07 -53.86,0 -84.998,-68.764 -67.088,-83.07 24.169,-19.114 110,-19.114 134.162,0 z"
         id="path308" />
      <path
         fill="#322212"
         d="m 1429.485,2892.18 c 0,-4.208 3.36,-7.57 7.45,-7.57 4.208,0 7.574,3.364 7.574,7.57 0,16.952 -6.852,32.338 -18.042,43.402 -11.052,11.178 -26.442,18.034 -43.394,18.034 -17.07,0 -32.452,-6.854 -43.518,-18.034 -11.176,-11.062 -18.034,-26.448 -18.034,-43.402 v -54.816 c 0,-4.208 3.376,-7.574 7.582,-7.574 4.084,0 7.45,3.368 7.45,7.574 v 54.816 c 0,12.742 5.288,24.402 13.586,32.82 8.414,8.29 20.072,13.582 32.934,13.582 12.746,0 24.41,-5.292 32.824,-13.582 8.3,-8.417 13.588,-20.08 13.588,-32.82 z"
         id="path310" />
      <path
         fill="#322212"
         d="m 1213.695,2892.18 c 0,-4.208 3.368,-7.57 7.458,-7.57 4.208,0 7.574,3.364 7.574,7.57 0,12.742 5.164,24.402 13.578,32.82 8.422,8.29 19.956,13.582 32.826,13.582 12.862,0 24.402,-5.292 32.81,-13.582 8.422,-8.418 13.584,-20.08 13.584,-32.82 v -54.816 c 0,-4.208 3.376,-7.574 7.582,-7.574 4.084,0 7.45,3.368 7.45,7.574 v 54.816 c 0,16.952 -6.85,32.338 -17.91,43.402 -11.182,11.178 -26.572,18.034 -43.516,18.034 -16.954,0 -32.342,-6.854 -43.402,-18.034 -11.183,-11.063 -18.034,-26.45 -18.034,-43.402 z"
         id="path312" />
      <path
         fill-rule="evenodd"
         clip-rule="evenodd"
         fill="#e34a26"
         d="m 1532.268,2854.677 c 20.078,0 36.426,-7.574 36.426,-16.956 0,-9.254 -16.348,-16.828 -36.426,-16.828 -20.196,0 -36.542,7.574 -36.542,16.828 0,9.382 16.348,16.956 36.542,16.956 z"
         id="path314" />
      <path
         fill-rule="evenodd"
         clip-rule="evenodd"
         fill="#e34a26"
         d="m 1125.936,2854.677 c 20.072,0 36.542,-7.574 36.542,-16.956 0,-9.254 -16.47,-16.828 -36.542,-16.828 -20.08,0 -36.548,7.574 -36.548,16.828 0,9.382 16.469,16.956 36.548,16.956 z"
         id="path316" />
      <path
         fill-rule="evenodd"
         clip-rule="evenodd"
         fill="#322212"
         d="m 1464.706,2685.526 c 20.08,-3.488 40.75,19.718 46.286,51.696 5.53,31.98 -6.252,60.71 -26.332,64.078 -20.078,3.48 -40.756,-19.718 -46.278,-51.694 -5.536,-31.983 6.378,-60.714 26.324,-64.08 z"
         id="path318" />
      <path
         fill-rule="evenodd"
         clip-rule="evenodd"
         fill="#322212"
         d="m 1193.376,2685.526 c -20.072,-3.488 -40.75,19.718 -46.278,51.696 -5.412,31.98 6.37,60.71 26.448,64.078 20.072,3.48 40.75,-19.718 46.286,-51.694 5.403,-31.983 -6.378,-60.714 -26.456,-64.08 z"
         id="path320" />
      <path
         fill-rule="evenodd"
         clip-rule="evenodd"
         fill="#ffffff"
         d="m 1175.107,2737.702 c 7.334,0 13.22,-6.734 13.22,-14.908 0,-8.294 -5.886,-14.908 -13.22,-14.908 -7.334,0 -13.344,6.614 -13.344,14.908 10e-4,8.175 6.01,14.908 13.344,14.908 z"
         id="path322" />
      <path
         fill-rule="evenodd"
         clip-rule="evenodd"
         fill="#ffffff"
         d="m 1480.702,2737.702 c 7.208,0 13.212,-6.734 13.212,-14.908 0,-8.294 -6.004,-14.908 -13.212,-14.908 -7.34,0 -13.352,6.614 -13.352,14.908 0,8.175 6.011,14.908 13.352,14.908 z"
         id="path324" />
      <path
         fill-rule="evenodd"
         clip-rule="evenodd"
         fill="#322212"
         d="m 1469.87,2493.178 c 0,0 -13.22,15.514 -46.278,8.658 -33.066,-6.73 -72.37,-21.398 -77.774,-18.396 -5.296,2.884 4.682,16.23 4.682,29.092 0,12.866 -3.724,18.994 8.538,19.236 12.14,0.244 40.508,-2.162 57.578,7.818 16.954,9.974 27.17,13.1 48.564,14.064 21.402,0.96 -18.026,15.504 -59.74,5.292 -41.83,-10.102 -52.056,-11.186 -58.906,-6.738 -6.728,4.332 -4.806,23.804 1.446,28.136 6.37,4.448 38.464,-7.216 53.014,2.52 14.666,9.62 13.104,14.068 34.504,15.028 21.394,0.964 -7.698,16.948 -31.502,8.78 -23.92,-8.302 -48.69,-7.334 -53.496,-1.928 -4.93,5.292 -6.37,12.146 -9.736,34.986 -3.368,22.84 -5.406,40.272 -11.658,42.312 -6.376,-2.042 -8.298,-19.472 -11.666,-42.312 -3.484,-22.84 -4.93,-29.694 -9.736,-34.986 -4.93,-5.406 -29.69,-6.374 -53.502,1.928 -23.796,8.17 -53.012,-7.816 -31.612,-8.78 21.4,-0.962 19.954,-5.408 34.504,-15.028 14.666,-9.736 46.76,1.928 53.012,-2.52 6.37,-4.332 8.298,-23.804 1.446,-28.136 -6.734,-4.448 -16.954,-3.364 -58.792,6.738 -41.83,10.212 -81.148,-4.332 -59.746,-5.292 21.276,-0.964 31.496,-4.09 48.572,-14.064 16.946,-9.98 45.438,-7.574 57.578,-7.818 12.146,-0.24 8.538,-6.368 8.538,-19.236 0,-12.862 9.978,-26.208 4.566,-29.092 -5.288,-3.002 -44.714,11.664 -77.774,18.396 -33.066,6.854 -46.168,-8.658 -46.168,-8.658 l 0.366,-1.802 c 62.99,-35.942 140.414,-30.176 140.414,-30.176 0,0 77.416,-5.766 140.29,30.176 z"
         id="path326" />
      <path
         fill-rule="evenodd"
         clip-rule="evenodd"
         fill="#322212"
         d="m 1060.901,2695.266 c -6.974,12.5 -14.908,25.004 -24.044,37.39 -2.644,3.48 -5.17,6.972 -7.574,10.694 16.954,14.79 13.468,53.262 19.954,83.076 7.932,36.304 55.3,39.786 29.932,22.474 -25.484,-17.432 -16.946,-56.38 -10.452,-95.69 6.369,-39.312 -7.816,-57.944 -7.816,-57.944 z"
         id="path328" />
    </g>
  </g>
</svg>
