<?xml version="1.0" encoding="UTF-8" standalone="no"?>
<!-- Created with Inkscape (http://www.inkscape.org/) -->

<svg
   width="210mm"
   height="297mm"
   viewBox="0 0 210 297"
   version="1.1"
   id="svg1541"
   inkscape:version="1.1 (c68e22c387, 2021-05-23)"
   sodipodi:docname="vaquita.svg"
   xmlns:inkscape="http://www.inkscape.org/namespaces/inkscape"
   xmlns:sodipodi="http://sodipodi.sourceforge.net/DTD/sodipodi-0.dtd"
   xmlns="http://www.w3.org/2000/svg"
   xmlns:svg="http://www.w3.org/2000/svg">
  <sodipodi:namedview
     id="namedview1543"
     pagecolor="#ffffff"
     bordercolor="#666666"
     borderopacity="1.0"
     inkscape:pageshadow="2"
     inkscape:pageopacity="0.0"
     inkscape:pagecheckerboard="0"
     inkscape:document-units="mm"
     showgrid="false"
     inkscape:snap-global="true"
     inkscape:zoom="0.47215208"
     inkscape:cx="408.7666"
     inkscape:cy="671.39385"
     inkscape:window-width="857"
     inkscape:window-height="706"
     inkscape:window-x="500"
     inkscape:window-y="0"
     inkscape:window-maximized="0"
     inkscape:current-layer="layer1" />
  <defs
     id="defs1538" />
  <g
     inkscape:label="Capa 1"
     inkscape:groupmode="layer"
     id="layer1">
    <g
       id="g716"
       transform="matrix(0.17330481,0,0,0.19220874,-262.73993,54.91644)">
      <path
         fill="#c9a277"
         d="m 2445.041,227.389 c -3.406,-21.768 -8.414,-43.638 -15.602,-65.584 -26.11,-3.348 -59.164,-30.458 -84.488,-40.864 -31.744,-13.044 -64.454,-19.256 -99.074,-20.7 80.36,22.208 147.878,66.776 199.164,127.148 z"
         id="path658" />
      <path
         fill="#331913"
         d="m 2448.963,264.705 c -0.778,-12.398 -1.968,-24.832 -3.922,-37.316 -51.286,-60.372 -118.804,-104.938 -199.164,-127.148 -0.408,-0.016 -0.8,-0.076 -1.208,-0.09 -6.916,-0.266 -13.774,-0.152 -20.602,0.126 97.752,34.57 168.848,91.718 224.896,164.428 z"
         id="path660" />
      <path
         fill="#c9a277"
         d="m 2445.957,344.977 c 3.538,-26.454 4.702,-53.236 3.006,-80.272 -56.048,-72.708 -127.144,-129.856 -224.896,-164.428 -8.418,0.344 -16.788,0.986 -25.07,2.056 l 4.998,4.998 -4.998,-4.998 c -24.398,3.154 -48.11,9.612 -71.056,18.44 123.43,44.588 236.3,121.13 318.016,224.204 z"
         id="path662" />
      <path
         fill="#331913"
         d="m 2439.045,382.521 c 2.792,-12.44 5.228,-24.936 6.912,-37.546 -81.716,-103.074 -194.584,-179.614 -318.016,-224.202 -11.21,4.314 -22.18,9.338 -32.98,14.778 138.064,47.404 255.188,134.632 344.084,246.97 z"
         id="path664" />
      <path
         fill="#c9a277"
         d="m 2094.961,135.551 c -67.976,34.234 -127.494,89.234 -173.22,147.192 -22.126,28.044 -42.658,45.62 -57.218,78.564 -60.072,135.902 -43.312,375.402 136.332,397.67 125.906,15.608 274.738,-82.214 345.324,-178.768 45.044,-61.618 77.288,-128.25 92.87,-197.686 -88.9,-112.34 -206.024,-199.568 -344.088,-246.972 z"
         id="path666" />
      <path
         fill="#a8deed"
         d="m 2084.361,144.867 c 15.918,-33.768 36.918,-56.154 65.236,-80.52 12.1,-10.41 31.448,-32.682 47.36,-35.978 31.214,-6.466 48.796,32.224 53.576,55.484 10.822,52.654 2.204,101.468 -11.044,152.884 -17.834,69.218 -39.406,126.526 -93.494,176.518 -32.794,30.312 -101.382,75.388 -126.388,15.556 -25.288,-60.512 -4.472,-140.982 20.622,-198.398 12.818,-29.328 30.456,-56.54 44.132,-85.546 z"
         id="path668" />
      <path
         fill="#a8deed"
         d="m 2447.081,200.529 c 36.892,-5.724 67.198,-0.864 103.244,8.948 15.402,4.194 44.688,7.748 56.332,19.086 22.838,22.238 0.63,58.472 -15.962,75.46 -37.56,38.454 -82.826,58.654 -132.842,76.476 -67.334,23.992 -126.892,38.216 -198.6,21.406 -43.478,-10.192 -119.236,-41.768 -83.672,-95.994 35.968,-54.84 114.292,-82.666 175.914,-94.03 31.474,-5.806 63.898,-6.436 95.586,-11.352 z"
         id="path670" />
      <path
         fill="#f06263"
         d="M 1731.797,653.915 C 1612.9,454.201 1664.222,152.977 1890.682,54.707 c 100.79,-43.736 203.11,-59.18 312.822,-53.618 28.016,116.088 -44.752,263.582 -90.312,367.828 -36.272,82.996 -75.506,162.488 -125.754,238.774 -34.436,52.282 -105.64,131.136 -178.02,123.844 z"
         id="path672" />
      <path
         fill="#f06263"
         d="m 1923.841,745.805 c -16.704,-150.864 54.932,-281.888 168.142,-376.704 122.664,-102.736 306.194,-199.282 465.908,-123.596 52.454,24.858 107.67,67.77 142.12,113.954 26.656,35.736 -101.11,235.038 -169.176,290.228 -165.422,134.13 -362.958,191.336 -571.652,143.824 z"
         id="path674" />
      <g
         id="g678">
        <path
           fill="#38373f"
           d="m 1857.932,595.699 c 38.81,-8.086 71.152,-33.96 108.346,-45.28 -14.554,42.044 3.234,92.176 6.468,134.22 -43.664,6.468 -101.878,-50.132 -122.902,-85.708 z"
           id="path676" />
      </g>
      <path
         fill="#38373f"
         d="m 2225.059,428.043 c -2.996,-14.326 -0.422,-31.6 8.042,-44.12 12.63,-18.676 41.938,-34.812 65.044,-27.496 23.362,7.396 39.836,29.65 38.45,53.858 -3.05,53.04 -98.584,79.682 -111.536,17.758 z"
         id="path680" />
      <path
         fill="#38373f"
         d="m 2536.197,428.043 c -2.996,-14.326 -0.422,-31.6 8.042,-44.12 12.63,-18.676 41.938,-34.812 65.044,-27.496 23.362,7.396 39.836,29.65 38.45,53.858 -3.05,53.04 -98.582,79.682 -111.536,17.758 z"
         id="path682" />
      <path
         fill="#38373f"
         d="m 2241.883,689.377 c -2.996,-14.326 -0.422,-31.6 8.044,-44.12 12.628,-18.676 41.938,-34.812 65.044,-27.496 23.362,7.396 39.836,29.65 38.45,53.858 -3.052,53.04 -98.586,79.682 -111.538,17.758 z"
         id="path684" />
      <path
         fill="#38373f"
         d="m 1727.583,469.029 c -2.996,-14.326 -0.424,-31.602 8.042,-44.12 12.63,-18.674 41.938,-34.812 65.044,-27.496 23.362,7.396 39.836,29.65 38.45,53.858 -3.05,53.04 -98.584,79.684 -111.536,17.758 z"
         id="path686" />
      <path
         fill="#38373f"
         d="m 1965.239,322.469 c -2.996,-14.326 -0.422,-31.602 8.044,-44.12 12.628,-18.674 41.936,-34.812 65.044,-27.496 23.362,7.396 39.836,29.65 38.45,53.858 -3.052,53.04 -98.586,79.682 -111.538,17.758 z"
         id="path688" />
      <path
         fill="#38373f"
         d="m 1877.445,141.353 c -2.996,-14.326 -0.422,-31.602 8.044,-44.12 12.628,-18.674 41.938,-34.812 65.044,-27.496 23.362,7.396 39.836,29.65 38.45,53.858 -3.052,53.04 -98.586,79.682 -111.538,17.758 z"
         id="path690" />
      <path
         fill="#4f4f54"
         d="m 1607.191,748.623 c -14.752,101.598 80.356,159.156 165.12,188.176 104.752,35.858 293.194,-56.438 288.422,-179.434 -3.844,-99.148 -88.202,-55.944 -145.956,-94.67 -65.298,-43.784 -95.74,-153.86 -195.682,-98.864 -63.74,35.074 -101.86,115.636 -111.904,184.792 z"
         id="path692" />
      <g
         id="g700">
        <path
           fill="#ffffff"
           d="m 1860.308,861.599 c 0,0 35.876,24.55 81.344,32.766 26.134,4.736 64.958,-95.706 6.384,-120.844 -60.407,-25.984 -101.051,58.502 -87.728,88.078 z"
           id="path694" />
        <path
           fill="#331913"
           d="m 1874.423,865.855 c 0,0 28.744,19.614 65.104,26.214 20.942,3.78 51.974,-76.602 5.106,-96.746 -48.334,-20.766 -80.862,46.842 -70.21,70.532 z"
           id="path696" />
        <path
           fill="#ffffff"
           d="m 1950.653,830.849 c -2.794,6.464 -10.586,9.364 -17.388,6.406 -6.846,-2.906 -10.142,-10.56 -7.336,-17.018 2.8,-6.506 10.568,-9.358 17.388,-6.434 6.844,2.906 10.13,10.552 7.336,17.046 z"
           id="path698" />
      </g>
      <g
         id="g708">
        <path
           fill="#ffffff"
           d="m 1628.113,735.131 c 0,0 33.278,24.854 76.358,34.496 24.762,5.554 65.794,-88.794 10.874,-115.11 -56.642,-27.194 -98.782,51.852 -87.232,80.614 z"
           id="path702" />
        <path
           fill="#331913"
           d="m 1641.419,739.751 c 0,0 26.666,19.862 61.116,27.6 19.842,4.438 52.644,-71.072 8.7,-92.156 -45.324,-21.736 -79.048,41.518 -69.816,64.556 z"
           id="path704" />
        <path
           fill="#ffffff"
           d="m 1715.573,709.347 c -2.922,6.06 -10.476,8.522 -16.852,5.428 -6.42,-3.046 -9.262,-10.482 -6.33,-16.536 2.93,-6.1 10.458,-8.516 16.854,-5.456 6.42,3.046 9.251,10.474 6.328,16.564 z"
           id="path706" />
      </g>
      <path
         fill="#331913"
         d="m 1734.603,897.669 c -8.908,-5.836 -30.81,-30.758 -14.426,-36.876 12.894,-4.816 45.268,13.43 56.25,18.478 -8.778,14.074 -25.243,29.26 -41.824,18.398 z"
         id="path710" />
      <path
         fill="#38373f"
         d="m 1537.089,626.887 c 46.66,-6.412 99.482,-21.79 144.532,-0.978 0,-5.586 0,-11.17 0,-16.756 -27.768,13.716 -76.046,0.736 -106.084,0.354 -14.474,-0.186 -37.7,-5.138 -47.782,8.16 -2.758,3.636 -1.046,8.69 1.516,11.758 10.554,12.628 27.36,9.924 42.224,8.126 34.086,-4.122 68.822,-2.868 102.892,-6.274 12.33,-1.232 12.45,-20.65 0,-19.404 -25.004,2.5 -50.514,2.626 -75.658,4.486 -10.666,0.79 -47.61,9.07 -55.738,-0.654 0.506,3.92 1.012,7.838 1.518,11.758 0.474,-0.624 28.85,1.44 31.026,1.45 17.5,0.082 34.95,0.856 52.404,2.114 22.46,1.622 42.666,5.162 63.474,-5.116 6.212,-3.068 6.468,-13.768 0,-16.756 -50.772,-23.454 -106.692,-8.232 -159.484,-0.978 -12.351,1.694 -7.072,20.39 5.16,18.71 z"
         id="path712" />
      <path
         fill="#38373f"
         d="m 1989.335,766.697 c 31.138,31.256 39.09,77.07 42.91,119.364 1.196,13.234 19.228,39.078 31.22,18.61 13.332,-22.758 4.42,-59.96 -2.464,-83.188 -8.886,-29.98 -27.908,-57.06 -55.864,-71.64 -11.082,-5.78 -20.892,10.966 -9.794,16.756 24.444,12.75 38.08,34.562 46.946,60.044 4.492,12.908 6.458,26.594 7.344,40.166 0.196,4.504 0.172,9.004 -0.072,13.506 -0.296,2.526 -0.594,5.05 -0.892,7.576 -2.318,9.828 -1.53,6.928 2.362,-8.702 -4.094,-45.336 -14.864,-92.976 -47.972,-126.21 -8.842,-8.878 -22.563,4.846 -13.724,13.718 z"
         id="path714" />
    </g>
  </g>
</svg>
